<svg width="146" height="172" viewBox="0 0 146 172" fill="none" xmlns="http://www.w3.org/2000/svg">
<path d="M110.752 41.5245C122.799 27.3323 146 35.8514 146 54.4672V152C146 163.046 137.046 172 126 172H43.2105C26.1686 172 16.9346 152.05 27.963 139.057L110.752 41.5245Z" fill="#F335DA"/>
<path d="M110.412 65.24C111.386 65.36 112.106 65.6733 112.572 66.18C113.052 66.6733 113.292 67.2867 113.292 68.02C113.292 68.7533 113.019 69.4467 112.472 70.1C111.939 70.7533 111.252 71.26 110.412 71.62C110.039 71.7667 109.546 71.8733 108.932 71.94C108.332 72.0067 107.712 72.04 107.072 72.04C106.006 72.04 104.912 71.94 103.792 71.74C103.592 71.7 103.379 71.6 103.152 71.44C102.939 71.28 102.832 71.0467 102.832 70.74C102.819 69.5133 102.772 67.8067 102.692 65.62L102.672 64.52C102.619 62.8133 102.592 61.4733 102.592 60.5C102.592 60.3267 102.692 60.1267 102.892 59.9C103.106 59.66 103.359 59.5267 103.652 59.5C103.826 59.5 103.992 59.4933 104.152 59.48C105.659 59.3333 106.666 59.26 107.172 59.26C108.172 59.26 109.052 59.36 109.812 59.56C110.586 59.7467 111.226 60.0933 111.732 60.6C111.919 60.8133 112.072 61.0867 112.192 61.42C112.312 61.74 112.372 62.0533 112.372 62.36C112.386 63.0133 112.212 63.6133 111.852 64.16C111.506 64.7067 111.026 65.0667 110.412 65.24ZM107.292 60.96C106.839 60.96 106.366 60.9867 105.872 61.04C105.392 61.0933 104.986 61.16 104.652 61.24L104.772 65.02L105.492 65C106.652 64.88 107.506 64.78 108.052 64.7C108.399 64.62 108.739 64.4667 109.072 64.24C109.406 64 109.679 63.7533 109.892 63.5C110.119 63.2333 110.232 63.0333 110.232 62.9C110.232 62.7 110.192 62.5 110.112 62.3C110.032 62.0867 109.946 61.9333 109.852 61.84C109.492 61.4933 109.126 61.26 108.752 61.14C108.379 61.02 107.892 60.96 107.292 60.96ZM104.832 70.28C105.512 70.3733 106.159 70.42 106.772 70.42C108.119 70.42 109.179 70.2467 109.952 69.9C110.739 69.54 111.132 68.86 111.132 67.86C111.132 67.46 110.832 67.1267 110.232 66.86C109.632 66.5933 108.986 66.46 108.292 66.46C107.826 66.46 107.232 66.5133 106.512 66.62C105.939 66.7 105.379 66.7533 104.832 66.78C104.859 67.58 104.872 68.0867 104.872 68.3C104.872 68.7133 104.866 69.0267 104.852 69.24L104.832 70.28ZM114.982 67.76C114.982 67.2533 115.075 66.7467 115.262 66.24C115.449 65.72 115.695 65.2467 116.002 64.82C116.309 64.3933 116.795 64.0467 117.462 63.78C118.129 63.5 118.722 63.36 119.242 63.36C119.775 63.36 120.315 63.4333 120.862 63.58C121.422 63.7267 121.809 63.9533 122.022 64.26C122.515 64.9533 122.762 65.6333 122.762 66.3C122.762 66.66 122.682 66.9667 122.522 67.22C122.375 67.4733 122.162 67.7467 121.882 68.04C121.655 68.28 121.295 68.44 120.802 68.52C120.322 68.6 119.842 68.64 119.362 68.64C119.055 68.64 118.682 68.6133 118.242 68.56C117.802 68.4933 117.375 68.4133 116.962 68.32C116.989 68.5867 117.055 68.8467 117.162 69.1C117.269 69.3533 117.395 69.5467 117.542 69.68C117.809 69.9333 118.082 70.0933 118.362 70.16C118.655 70.2267 119.029 70.26 119.482 70.26C119.962 70.26 120.409 70.18 120.822 70.02C121.155 69.9 121.429 69.84 121.642 69.84C121.895 69.84 122.089 69.92 122.222 70.08C122.355 70.2267 122.422 70.42 122.422 70.66C122.422 70.9933 122.229 71.2667 121.842 71.48C121.455 71.6933 121.009 71.8533 120.502 71.96C120.009 72.0533 119.609 72.1 119.302 72.1C118.675 72.1 118.069 71.9867 117.482 71.76C116.895 71.5333 116.409 71.2133 116.022 70.8C115.702 70.4267 115.449 69.98 115.262 69.46C115.075 68.9267 114.982 68.36 114.982 67.76ZM119.342 65.06C119.049 65.06 118.755 65.12 118.462 65.24C118.169 65.3467 117.929 65.5 117.742 65.7C117.502 65.9533 117.335 66.16 117.242 66.32C117.162 66.4667 117.109 66.6733 117.082 66.94C117.415 67.0467 118.109 67.1 119.162 67.1C119.735 67.1 120.175 67.0133 120.482 66.84C120.802 66.6667 120.962 66.44 120.962 66.16C120.962 65.88 120.789 65.6267 120.442 65.4C120.095 65.1733 119.729 65.06 119.342 65.06ZM130.273 67.5C130.38 67.5667 130.587 67.6933 130.893 67.88C131.213 68.0533 131.427 68.26 131.533 68.5C131.64 68.74 131.693 69.0733 131.693 69.5C131.693 69.98 131.553 70.4067 131.273 70.78C130.993 71.14 130.633 71.42 130.193 71.62C129.873 71.7667 129.48 71.88 129.013 71.96C128.56 72.04 128.2 72.08 127.933 72.08C127.667 72.08 127.32 72.04 126.893 71.96C126.48 71.88 126.193 71.8067 126.033 71.74C125.62 71.5 125.26 71.2067 124.953 70.86C124.66 70.5133 124.513 70.16 124.513 69.8C124.513 69.5333 124.6 69.3267 124.773 69.18C124.947 69.02 125.173 68.94 125.453 68.94C125.587 68.94 125.727 68.9933 125.873 69.1C126.02 69.1933 126.12 69.2933 126.173 69.4C126.32 69.7467 126.567 70.0067 126.913 70.18C127.26 70.3533 127.613 70.44 127.973 70.44C128.44 70.44 128.873 70.3667 129.273 70.22C129.673 70.06 129.873 69.8467 129.873 69.58C129.873 69.46 129.84 69.3667 129.773 69.3C129.72 69.22 129.64 69.14 129.533 69.06C129.347 68.9267 129.067 68.82 128.693 68.74C128.32 68.6467 128.08 68.5867 127.973 68.56C127.427 68.44 126.893 68.26 126.373 68.02C125.853 67.7667 125.44 67.4667 125.133 67.12C124.827 66.7733 124.673 66.3267 124.673 65.78C124.673 65.42 124.807 65.0467 125.073 64.66C125.34 64.26 125.64 63.98 125.973 63.82C126.213 63.7267 126.613 63.6267 127.173 63.52C127.747 63.4133 128.133 63.36 128.333 63.36C128.64 63.36 128.973 63.3933 129.333 63.46C129.693 63.5133 129.967 63.6067 130.153 63.74C130.513 63.9533 130.807 64.18 131.033 64.42C131.26 64.6467 131.373 64.9067 131.373 65.2C131.373 65.3467 131.34 65.5067 131.273 65.68C131.207 65.84 131.127 65.94 131.033 65.98C130.833 66.0733 130.6 66.12 130.333 66.12C130.213 66.12 130.113 66.0867 130.033 66.02C129.967 65.9533 129.873 65.8467 129.753 65.7C129.607 65.4733 129.467 65.34 129.333 65.3C129.173 65.26 128.94 65.2133 128.633 65.16C128.327 65.0933 128.12 65.06 128.013 65.06C127.707 65.06 127.387 65.1467 127.053 65.32C126.733 65.4933 126.573 65.6933 126.573 65.92C126.573 66.04 126.62 66.1333 126.713 66.2C126.82 66.2667 126.927 66.3267 127.033 66.38C127.153 66.4333 127.233 66.4667 127.273 66.48C127.553 66.6133 127.86 66.7267 128.193 66.82C128.54 66.9133 128.753 66.9733 128.833 67C129.553 67.1733 130.033 67.34 130.273 67.5ZM133.58 65.04C133.393 65.0133 133.24 64.94 133.12 64.82C133.013 64.6867 132.96 64.5267 132.96 64.34C132.96 64.1 133.053 63.9 133.24 63.74C133.28 63.7 133.346 63.6667 133.44 63.64C133.533 63.6 133.606 63.5667 133.66 63.54C133.953 63.4467 134.14 63.3733 134.22 63.32C134.526 63.1333 134.733 62.8267 134.84 62.4C134.946 61.8933 135.013 61.5467 135.04 61.36C135.066 61.0667 135.16 60.8467 135.32 60.7C135.493 60.54 135.706 60.46 135.96 60.46C136.293 60.46 136.526 60.5467 136.66 60.72C136.793 60.8933 136.86 61.2133 136.86 61.68C136.86 62.2933 136.713 62.8733 136.42 63.42C136.606 63.42 136.913 63.4067 137.34 63.38C137.98 63.3533 138.426 63.34 138.68 63.34C138.906 63.34 139.1 63.4 139.26 63.52C139.433 63.6267 139.52 63.7867 139.52 64C139.52 64.5067 139.286 64.8067 138.82 64.9C138.393 65.02 137.62 65.0933 136.5 65.12C136.406 66.4267 136.36 67.46 136.36 68.22C136.36 68.6867 136.38 69.02 136.42 69.22C136.5 69.6333 136.633 69.94 136.82 70.14C137.02 70.3267 137.313 70.42 137.7 70.42C137.886 70.42 138.166 70.3733 138.54 70.28C138.766 70.2133 138.946 70.18 139.08 70.18C139.253 70.18 139.386 70.24 139.48 70.36C139.573 70.48 139.62 70.64 139.62 70.84C139.62 71.2 139.386 71.5 138.92 71.74C138.453 71.9667 137.9 72.08 137.26 72.08C136.86 72.08 136.466 71.9867 136.08 71.8C135.693 71.6 135.366 71.36 135.1 71.08C135.046 71.0533 134.966 70.9067 134.86 70.64C134.766 70.3733 134.673 70.08 134.58 69.76C134.54 69.6 134.52 69.2133 134.52 68.6C134.52 68.0133 134.56 67 134.64 65.56L134.66 65.12C134.566 65.12 134.393 65.1133 134.14 65.1C133.886 65.0733 133.7 65.0533 133.58 65.04ZM100.786 84.34C100.786 83.7667 101.206 83.48 102.046 83.48C102.406 83.48 103.093 83.4933 104.106 83.52C105.226 83.5733 106.073 83.6 106.646 83.6C107.113 83.6 107.68 83.5733 108.346 83.52C108.8 83.4933 109.086 83.48 109.206 83.48C109.94 83.5067 110.56 83.64 111.066 83.88C111.213 83.9467 111.333 84.0267 111.426 84.12C111.52 84.2133 111.566 84.3667 111.566 84.58C111.566 84.8733 111.473 85.1267 111.286 85.34C111.1 85.54 110.873 85.64 110.606 85.64C110.313 85.64 109.886 85.6 109.326 85.52C108.833 85.4267 108.4 85.38 108.026 85.38C107.666 85.38 107.393 85.3867 107.206 85.4C107.166 85.84 107.146 86.8933 107.146 88.56C107.146 90.5467 107.206 92.56 107.326 94.6L107.366 95.18C107.366 95.7267 107.053 96 106.426 96C105.933 96 105.6 95.8867 105.426 95.66C105.253 95.42 105.166 95.06 105.166 94.58C105.166 93.6333 105.14 92.4533 105.086 91.04C105.033 89.8667 105.006 89.0333 105.006 88.54C105.006 88.2067 105.046 87.1867 105.126 85.48L102.786 85.5C102.04 85.5 101.52 85.4333 101.226 85.3C100.933 85.1533 100.786 84.8333 100.786 84.34ZM111.012 89.26C110.905 89.26 110.805 89.22 110.712 89.14C110.632 89.0467 110.592 88.94 110.592 88.82C110.592 88.5133 110.725 88.2267 110.992 87.96C111.072 87.92 111.232 87.8533 111.472 87.76C111.712 87.6667 111.925 87.62 112.112 87.62C112.619 87.62 113.032 87.76 113.352 88.04C113.672 88.3067 113.832 88.6933 113.832 89.2C113.832 89.3467 113.805 89.66 113.752 90.14C113.699 90.7 113.672 91.1333 113.672 91.44C113.672 92.3733 113.799 93.1267 114.052 93.7C114.145 93.8867 114.292 94.0333 114.492 94.14C114.692 94.2467 114.872 94.3 115.032 94.3C115.419 94.3 115.732 94.2333 115.972 94.1C116.212 93.9667 116.472 93.7533 116.752 93.46C117.032 93.1667 117.212 92.8333 117.292 92.46C117.385 92.0867 117.452 91.5733 117.492 90.92C117.519 90.4933 117.545 90.18 117.572 89.98C117.639 89.34 117.672 88.7933 117.672 88.34C117.672 88.0467 117.752 87.8067 117.912 87.62C118.072 87.42 118.292 87.32 118.572 87.32C118.732 87.32 118.912 87.3733 119.112 87.48C119.325 87.5733 119.465 87.6867 119.532 87.82C119.612 87.9533 119.652 88.1733 119.652 88.48C119.652 88.64 119.632 88.7933 119.592 88.94C119.499 89.2733 119.452 89.6733 119.452 90.14L119.472 91.18C119.472 92.1267 119.539 92.8267 119.672 93.28C119.739 93.4933 119.832 93.7133 119.952 93.94C120.072 94.1533 120.185 94.3333 120.292 94.48C120.559 94.7733 120.732 94.98 120.812 95.1C120.892 95.2067 120.932 95.3133 120.932 95.42C120.932 95.58 120.852 95.7333 120.692 95.88C120.545 96.0133 120.385 96.08 120.212 96.08C119.719 96.08 119.292 95.9133 118.932 95.58C118.572 95.2467 118.305 94.8133 118.132 94.28C117.679 94.8 117.259 95.22 116.872 95.54C116.605 95.7267 116.279 95.8667 115.892 95.96C115.505 96.04 115.119 96.08 114.732 96.08C114.212 96.08 113.685 95.8667 113.152 95.44C112.619 95.0133 112.259 94.52 112.072 93.96C112.059 93.9333 112.019 93.8267 111.952 93.64C111.899 93.4533 111.872 93.1733 111.872 92.8C111.872 92.3067 111.899 91.6867 111.952 90.94C111.992 90.46 112.012 90.02 112.012 89.62C112.012 89.5 111.965 89.4 111.872 89.32C111.792 89.24 111.699 89.2 111.592 89.2C111.512 89.2 111.419 89.2133 111.312 89.24C111.219 89.2533 111.119 89.26 111.012 89.26ZM125.407 95.2C125.407 95.4267 125.32 95.6267 125.147 95.8C124.973 95.9733 124.76 96.06 124.507 96.06C124.107 96.06 123.813 95.9867 123.627 95.84C123.44 95.68 123.347 95.3933 123.347 94.98C123.347 94.4867 123.333 93.84 123.307 93.04C123.28 92.3733 123.267 91.8133 123.267 91.36C123.267 91.1467 123.28 90.8667 123.307 90.52C123.333 90.2 123.347 89.96 123.347 89.8C123.307 89.5467 123.207 89.34 123.047 89.18C122.887 89.0067 122.68 88.92 122.427 88.92C122.307 88.92 122.207 88.8667 122.127 88.76C122.047 88.64 122.007 88.52 122.007 88.4C122.007 88.0933 122.127 87.86 122.367 87.7C122.62 87.54 122.92 87.46 123.267 87.46C123.987 87.46 124.487 87.8867 124.767 88.74C125.113 88.34 125.507 88.02 125.947 87.78C126.4 87.5267 126.833 87.4 127.247 87.4C127.74 87.4 128.187 87.5333 128.587 87.8C129 88.0667 129.207 88.4267 129.207 88.88C129.207 89.1333 129.093 89.3933 128.867 89.66C128.653 89.9267 128.433 90.06 128.207 90.06C128.087 90.06 127.98 90.0333 127.887 89.98C127.807 89.9133 127.707 89.82 127.587 89.7C127.453 89.5667 127.34 89.4733 127.247 89.42C127.153 89.3533 127.047 89.32 126.927 89.32C126.713 89.32 126.513 89.3533 126.327 89.42C126.14 89.4867 126.013 89.5667 125.947 89.66C125.733 89.9933 125.573 90.2933 125.467 90.56C125.373 90.8267 125.327 91.1133 125.327 91.42C125.327 91.6467 125.32 91.8267 125.307 91.96L125.287 93.1C125.287 93.2733 125.293 93.4667 125.307 93.68C125.32 93.8933 125.333 94.0533 125.347 94.16C125.387 94.52 125.407 94.8667 125.407 95.2ZM130.236 88.96C130.129 88.88 130.043 88.8 129.976 88.72C129.909 88.6267 129.876 88.4667 129.876 88.24C129.876 87.9867 129.963 87.7933 130.136 87.66C130.323 87.5133 130.536 87.44 130.776 87.44C131.243 87.44 131.643 87.56 131.976 87.8C132.323 88.04 132.576 88.3733 132.736 88.8C133.029 88.2533 133.403 87.88 133.856 87.68C134.309 87.4667 134.936 87.36 135.736 87.36C136.056 87.36 136.383 87.46 136.716 87.66C137.063 87.8467 137.376 88.08 137.656 88.36C137.883 88.6533 138.076 89.02 138.236 89.46C138.396 89.8867 138.476 90.2733 138.476 90.62C138.476 90.82 138.463 91.1467 138.436 91.6C138.409 92.08 138.396 92.46 138.396 92.74C138.396 93.6733 138.576 94.2467 138.936 94.46C138.989 94.4867 139.089 94.52 139.236 94.56C139.383 94.6 139.489 94.64 139.556 94.68C139.636 94.72 139.676 94.78 139.676 94.86C139.689 95.18 139.569 95.4467 139.316 95.66C139.076 95.86 138.783 95.96 138.436 95.96C137.916 95.96 137.509 95.82 137.216 95.54C136.923 95.26 136.716 94.8333 136.596 94.26C136.529 94.0467 136.496 93.7333 136.496 93.32C136.496 93.0933 136.509 92.7267 136.536 92.22C136.576 91.82 136.596 91.3933 136.596 90.94C136.596 90.4733 136.463 90.0667 136.196 89.72C135.929 89.36 135.563 89.18 135.096 89.18C134.816 89.18 134.523 89.2667 134.216 89.44C133.909 89.6 133.696 89.8 133.576 90.04C133.376 90.4533 133.243 90.8733 133.176 91.3C133.016 92.1267 132.936 92.92 132.936 93.68C132.936 93.8667 132.949 94.2267 132.976 94.76C132.976 94.8 132.976 94.9 132.976 95.06C132.976 95.2067 132.956 95.3467 132.916 95.48C132.889 95.6133 132.836 95.7333 132.756 95.84C132.703 95.8933 132.603 95.9467 132.456 96C132.309 96.0533 132.183 96.08 132.076 96.08C131.889 96.08 131.656 96 131.376 95.84C131.096 95.68 130.929 95.5 130.876 95.3L130.856 95.02C130.856 94.9133 130.869 94.7533 130.896 94.54C131.056 93.6067 131.136 92.7933 131.136 92.1C131.136 91.7933 131.129 91.56 131.116 91.4L131.096 90.48C131.096 90.2 131.016 89.9333 130.856 89.68C130.696 89.4133 130.489 89.1733 130.236 88.96Z" fill="white"/>
</svg>
