<svg width="146" height="172" viewBox="0 0 146 172" fill="none" xmlns="http://www.w3.org/2000/svg">
<path d="M110.752 41.5245C122.799 27.3323 146 35.8514 146 54.4672V152C146 163.046 137.046 172 126 172H43.2105C26.1686 172 16.9346 152.05 27.963 139.057L110.752 41.5245Z" fill="#F335DA"/>
<path d="M109.371 69.916C110.247 70.024 110.895 70.306 111.315 70.762C111.747 71.206 111.963 71.758 111.963 72.418C111.963 73.078 111.717 73.702 111.225 74.29C110.745 74.878 110.127 75.334 109.371 75.658C109.035 75.79 108.591 75.886 108.039 75.946C107.499 76.006 106.941 76.036 106.365 76.036C105.405 76.036 104.421 75.946 103.413 75.766C103.233 75.73 103.041 75.64 102.837 75.496C102.645 75.352 102.549 75.142 102.549 74.866C102.537 73.762 102.495 72.226 102.423 70.258L102.405 69.268C102.357 67.732 102.333 66.526 102.333 65.65C102.333 65.494 102.423 65.314 102.603 65.11C102.795 64.894 103.023 64.774 103.287 64.75C103.443 64.75 103.593 64.744 103.737 64.732C105.093 64.6 105.999 64.534 106.455 64.534C107.355 64.534 108.147 64.624 108.831 64.804C109.527 64.972 110.103 65.284 110.559 65.74C110.727 65.932 110.865 66.178 110.973 66.478C111.081 66.766 111.135 67.048 111.135 67.324C111.147 67.912 110.991 68.452 110.667 68.944C110.355 69.436 109.923 69.76 109.371 69.916ZM106.563 66.064C106.155 66.064 105.729 66.088 105.285 66.136C104.853 66.184 104.487 66.244 104.187 66.316L104.295 69.718L104.943 69.7C105.987 69.592 106.755 69.502 107.247 69.43C107.559 69.358 107.865 69.22 108.165 69.016C108.465 68.8 108.711 68.578 108.903 68.35C109.107 68.11 109.209 67.93 109.209 67.81C109.209 67.63 109.173 67.45 109.101 67.27C109.029 67.078 108.951 66.94 108.867 66.856C108.543 66.544 108.213 66.334 107.877 66.226C107.541 66.118 107.103 66.064 106.563 66.064ZM104.349 74.452C104.961 74.536 105.543 74.578 106.095 74.578C107.307 74.578 108.261 74.422 108.957 74.11C109.665 73.786 110.019 73.174 110.019 72.274C110.019 71.914 109.749 71.614 109.209 71.374C108.669 71.134 108.087 71.014 107.463 71.014C107.043 71.014 106.509 71.062 105.861 71.158C105.345 71.23 104.841 71.278 104.349 71.302C104.373 72.022 104.385 72.478 104.385 72.67C104.385 73.042 104.379 73.324 104.367 73.516L104.349 74.452ZM113.484 72.184C113.484 71.728 113.568 71.272 113.736 70.816C113.904 70.348 114.126 69.922 114.402 69.538C114.678 69.154 115.116 68.842 115.716 68.602C116.316 68.35 116.85 68.224 117.318 68.224C117.798 68.224 118.284 68.29 118.776 68.422C119.28 68.554 119.628 68.758 119.82 69.034C120.264 69.658 120.486 70.27 120.486 70.87C120.486 71.194 120.414 71.47 120.27 71.698C120.138 71.926 119.946 72.172 119.694 72.436C119.49 72.652 119.166 72.796 118.722 72.868C118.29 72.94 117.858 72.976 117.426 72.976C117.15 72.976 116.814 72.952 116.418 72.904C116.022 72.844 115.638 72.772 115.266 72.688C115.29 72.928 115.35 73.162 115.446 73.39C115.542 73.618 115.656 73.792 115.788 73.912C116.028 74.14 116.274 74.284 116.526 74.344C116.79 74.404 117.126 74.434 117.534 74.434C117.966 74.434 118.368 74.362 118.74 74.218C119.04 74.11 119.286 74.056 119.478 74.056C119.706 74.056 119.88 74.128 120 74.272C120.12 74.404 120.18 74.578 120.18 74.794C120.18 75.094 120.006 75.34 119.658 75.532C119.31 75.724 118.908 75.868 118.452 75.964C118.008 76.048 117.648 76.09 117.372 76.09C116.808 76.09 116.262 75.988 115.734 75.784C115.206 75.58 114.768 75.292 114.42 74.92C114.132 74.584 113.904 74.182 113.736 73.714C113.568 73.234 113.484 72.724 113.484 72.184ZM117.408 69.754C117.144 69.754 116.88 69.808 116.616 69.916C116.352 70.012 116.136 70.15 115.968 70.33C115.752 70.558 115.602 70.744 115.518 70.888C115.446 71.02 115.398 71.206 115.374 71.446C115.674 71.542 116.298 71.59 117.246 71.59C117.762 71.59 118.158 71.512 118.434 71.356C118.722 71.2 118.866 70.996 118.866 70.744C118.866 70.492 118.71 70.264 118.398 70.06C118.086 69.856 117.756 69.754 117.408 69.754ZM127.246 71.95C127.342 72.01 127.528 72.124 127.804 72.292C128.092 72.448 128.284 72.634 128.38 72.85C128.476 73.066 128.524 73.366 128.524 73.75C128.524 74.182 128.398 74.566 128.146 74.902C127.894 75.226 127.57 75.478 127.174 75.658C126.886 75.79 126.532 75.892 126.112 75.964C125.704 76.036 125.38 76.072 125.14 76.072C124.9 76.072 124.588 76.036 124.204 75.964C123.832 75.892 123.574 75.826 123.43 75.766C123.058 75.55 122.734 75.286 122.458 74.974C122.194 74.662 122.062 74.344 122.062 74.02C122.062 73.78 122.14 73.594 122.296 73.462C122.452 73.318 122.656 73.246 122.908 73.246C123.028 73.246 123.154 73.294 123.286 73.39C123.418 73.474 123.508 73.564 123.556 73.66C123.688 73.972 123.91 74.206 124.222 74.362C124.534 74.518 124.852 74.596 125.176 74.596C125.596 74.596 125.986 74.53 126.346 74.398C126.706 74.254 126.886 74.062 126.886 73.822C126.886 73.714 126.856 73.63 126.796 73.57C126.748 73.498 126.676 73.426 126.58 73.354C126.412 73.234 126.16 73.138 125.824 73.066C125.488 72.982 125.272 72.928 125.176 72.904C124.684 72.796 124.204 72.634 123.736 72.418C123.268 72.19 122.896 71.92 122.62 71.608C122.344 71.296 122.206 70.894 122.206 70.402C122.206 70.078 122.326 69.742 122.566 69.394C122.806 69.034 123.076 68.782 123.376 68.638C123.592 68.554 123.952 68.464 124.456 68.368C124.972 68.272 125.32 68.224 125.5 68.224C125.776 68.224 126.076 68.254 126.4 68.314C126.724 68.362 126.97 68.446 127.138 68.566C127.462 68.758 127.726 68.962 127.93 69.178C128.134 69.382 128.236 69.616 128.236 69.88C128.236 70.012 128.206 70.156 128.146 70.312C128.086 70.456 128.014 70.546 127.93 70.582C127.75 70.666 127.54 70.708 127.3 70.708C127.192 70.708 127.102 70.678 127.03 70.618C126.97 70.558 126.886 70.462 126.778 70.33C126.646 70.126 126.52 70.006 126.4 69.97C126.256 69.934 126.046 69.892 125.77 69.844C125.494 69.784 125.308 69.754 125.212 69.754C124.936 69.754 124.648 69.832 124.348 69.988C124.06 70.144 123.916 70.324 123.916 70.528C123.916 70.636 123.958 70.72 124.042 70.78C124.138 70.84 124.234 70.894 124.33 70.942C124.438 70.99 124.51 71.02 124.546 71.032C124.798 71.152 125.074 71.254 125.374 71.338C125.686 71.422 125.878 71.476 125.95 71.5C126.598 71.656 127.03 71.806 127.246 71.95ZM130.222 69.736C130.054 69.712 129.916 69.646 129.808 69.538C129.712 69.418 129.664 69.274 129.664 69.106C129.664 68.89 129.748 68.71 129.916 68.566C129.952 68.53 130.012 68.5 130.096 68.476C130.18 68.44 130.246 68.41 130.294 68.386C130.558 68.302 130.726 68.236 130.798 68.188C131.074 68.02 131.26 67.744 131.356 67.36C131.452 66.904 131.512 66.592 131.536 66.424C131.56 66.16 131.644 65.962 131.788 65.83C131.944 65.686 132.136 65.614 132.364 65.614C132.664 65.614 132.874 65.692 132.994 65.848C133.114 66.004 133.174 66.292 133.174 66.712C133.174 67.264 133.042 67.786 132.778 68.278C132.946 68.278 133.222 68.266 133.606 68.242C134.182 68.218 134.584 68.206 134.812 68.206C135.016 68.206 135.19 68.26 135.334 68.368C135.49 68.464 135.568 68.608 135.568 68.8C135.568 69.256 135.358 69.526 134.938 69.61C134.554 69.718 133.858 69.784 132.85 69.808C132.766 70.984 132.724 71.914 132.724 72.598C132.724 73.018 132.742 73.318 132.778 73.498C132.85 73.87 132.97 74.146 133.138 74.326C133.318 74.494 133.582 74.578 133.93 74.578C134.098 74.578 134.35 74.536 134.686 74.452C134.89 74.392 135.052 74.362 135.172 74.362C135.328 74.362 135.448 74.416 135.532 74.524C135.616 74.632 135.658 74.776 135.658 74.956C135.658 75.28 135.448 75.55 135.028 75.766C134.608 75.97 134.11 76.072 133.534 76.072C133.174 76.072 132.82 75.988 132.472 75.82C132.124 75.64 131.83 75.424 131.59 75.172C131.542 75.148 131.47 75.016 131.374 74.776C131.29 74.536 131.206 74.272 131.122 73.984C131.086 73.84 131.068 73.492 131.068 72.94C131.068 72.412 131.104 71.5 131.176 70.204L131.194 69.808C131.11 69.808 130.954 69.802 130.726 69.79C130.498 69.766 130.33 69.748 130.222 69.736ZM100.708 85.506C100.708 84.99 101.086 84.732 101.842 84.732C102.166 84.732 102.784 84.744 103.696 84.768C104.704 84.816 105.466 84.84 105.982 84.84C106.402 84.84 106.912 84.816 107.512 84.768C107.92 84.744 108.178 84.732 108.286 84.732C108.946 84.756 109.504 84.876 109.96 85.092C110.092 85.152 110.2 85.224 110.284 85.308C110.368 85.392 110.41 85.53 110.41 85.722C110.41 85.986 110.326 86.214 110.158 86.406C109.99 86.586 109.786 86.676 109.546 86.676C109.282 86.676 108.898 86.64 108.394 86.568C107.95 86.484 107.56 86.442 107.224 86.442C106.9 86.442 106.654 86.448 106.486 86.46C106.45 86.856 106.432 87.804 106.432 89.304C106.432 91.092 106.486 92.904 106.594 94.74L106.63 95.262C106.63 95.754 106.348 96 105.784 96C105.34 96 105.04 95.898 104.884 95.694C104.728 95.478 104.65 95.154 104.65 94.722C104.65 93.87 104.626 92.808 104.578 91.536C104.53 90.48 104.506 89.73 104.506 89.286C104.506 88.986 104.542 88.068 104.614 86.532L102.508 86.55C101.836 86.55 101.368 86.49 101.104 86.37C100.84 86.238 100.708 85.95 100.708 85.506ZM109.911 89.934C109.815 89.934 109.725 89.898 109.641 89.826C109.569 89.742 109.533 89.646 109.533 89.538C109.533 89.262 109.653 89.004 109.893 88.764C109.965 88.728 110.109 88.668 110.325 88.584C110.541 88.5 110.733 88.458 110.901 88.458C111.357 88.458 111.729 88.584 112.017 88.836C112.305 89.076 112.449 89.424 112.449 89.88C112.449 90.012 112.425 90.294 112.377 90.726C112.329 91.23 112.305 91.62 112.305 91.896C112.305 92.736 112.419 93.414 112.647 93.93C112.731 94.098 112.863 94.23 113.043 94.326C113.223 94.422 113.385 94.47 113.529 94.47C113.877 94.47 114.159 94.41 114.375 94.29C114.591 94.17 114.825 93.978 115.077 93.714C115.329 93.45 115.491 93.15 115.563 92.814C115.647 92.478 115.707 92.016 115.743 91.428C115.767 91.044 115.791 90.762 115.815 90.582C115.875 90.006 115.905 89.514 115.905 89.106C115.905 88.842 115.977 88.626 116.121 88.458C116.265 88.278 116.463 88.188 116.715 88.188C116.859 88.188 117.021 88.236 117.201 88.332C117.393 88.416 117.519 88.518 117.579 88.638C117.651 88.758 117.687 88.956 117.687 89.232C117.687 89.376 117.669 89.514 117.633 89.646C117.549 89.946 117.507 90.306 117.507 90.726L117.525 91.662C117.525 92.514 117.585 93.144 117.705 93.552C117.765 93.744 117.849 93.942 117.957 94.146C118.065 94.338 118.167 94.5 118.263 94.632C118.503 94.896 118.659 95.082 118.731 95.19C118.803 95.286 118.839 95.382 118.839 95.478C118.839 95.622 118.767 95.76 118.623 95.892C118.491 96.012 118.347 96.072 118.191 96.072C117.747 96.072 117.363 95.922 117.039 95.622C116.715 95.322 116.475 94.932 116.319 94.452C115.911 94.92 115.533 95.298 115.185 95.586C114.945 95.754 114.651 95.88 114.303 95.964C113.955 96.036 113.607 96.072 113.259 96.072C112.791 96.072 112.317 95.88 111.837 95.496C111.357 95.112 111.033 94.668 110.865 94.164C110.853 94.14 110.817 94.044 110.757 93.876C110.709 93.708 110.685 93.456 110.685 93.12C110.685 92.676 110.709 92.118 110.757 91.446C110.793 91.014 110.811 90.618 110.811 90.258C110.811 90.15 110.769 90.06 110.685 89.988C110.613 89.916 110.529 89.88 110.433 89.88C110.361 89.88 110.277 89.892 110.181 89.916C110.097 89.928 110.007 89.934 109.911 89.934ZM122.866 95.28C122.866 95.484 122.788 95.664 122.632 95.82C122.476 95.976 122.284 96.054 122.056 96.054C121.696 96.054 121.432 95.988 121.264 95.856C121.096 95.712 121.012 95.454 121.012 95.082C121.012 94.638 121 94.056 120.976 93.336C120.952 92.736 120.94 92.232 120.94 91.824C120.94 91.632 120.952 91.38 120.976 91.068C121 90.78 121.012 90.564 121.012 90.42C120.976 90.192 120.886 90.006 120.742 89.862C120.598 89.706 120.412 89.628 120.184 89.628C120.076 89.628 119.986 89.58 119.914 89.484C119.842 89.376 119.806 89.268 119.806 89.16C119.806 88.884 119.914 88.674 120.13 88.53C120.358 88.386 120.628 88.314 120.94 88.314C121.588 88.314 122.038 88.698 122.29 89.466C122.602 89.106 122.956 88.818 123.352 88.602C123.76 88.374 124.15 88.26 124.522 88.26C124.966 88.26 125.368 88.38 125.728 88.62C126.1 88.86 126.286 89.184 126.286 89.592C126.286 89.82 126.184 90.054 125.98 90.294C125.788 90.534 125.59 90.654 125.386 90.654C125.278 90.654 125.182 90.63 125.098 90.582C125.026 90.522 124.936 90.438 124.828 90.33C124.708 90.21 124.606 90.126 124.522 90.078C124.438 90.018 124.342 89.988 124.234 89.988C124.042 89.988 123.862 90.018 123.694 90.078C123.526 90.138 123.412 90.21 123.352 90.294C123.16 90.594 123.016 90.864 122.92 91.104C122.836 91.344 122.794 91.602 122.794 91.878C122.794 92.082 122.788 92.244 122.776 92.364L122.758 93.39C122.758 93.546 122.764 93.72 122.776 93.912C122.788 94.104 122.8 94.248 122.812 94.344C122.848 94.668 122.866 94.98 122.866 95.28ZM127.212 89.664C127.116 89.592 127.038 89.52 126.978 89.448C126.918 89.364 126.888 89.22 126.888 89.016C126.888 88.788 126.966 88.614 127.122 88.494C127.29 88.362 127.482 88.296 127.698 88.296C128.118 88.296 128.478 88.404 128.778 88.62C129.09 88.836 129.318 89.136 129.462 89.52C129.726 89.028 130.062 88.692 130.47 88.512C130.878 88.32 131.442 88.224 132.162 88.224C132.45 88.224 132.744 88.314 133.044 88.494C133.356 88.662 133.638 88.872 133.89 89.124C134.094 89.388 134.268 89.718 134.412 90.114C134.556 90.498 134.628 90.846 134.628 91.158C134.628 91.338 134.616 91.632 134.592 92.04C134.568 92.472 134.556 92.814 134.556 93.066C134.556 93.906 134.718 94.422 135.042 94.614C135.09 94.638 135.18 94.668 135.312 94.704C135.444 94.74 135.54 94.776 135.6 94.812C135.672 94.848 135.708 94.902 135.708 94.974C135.72 95.262 135.612 95.502 135.384 95.694C135.168 95.874 134.904 95.964 134.592 95.964C134.124 95.964 133.758 95.838 133.494 95.586C133.23 95.334 133.044 94.95 132.936 94.434C132.876 94.242 132.846 93.96 132.846 93.588C132.846 93.384 132.858 93.054 132.882 92.598C132.918 92.238 132.936 91.854 132.936 91.446C132.936 91.026 132.816 90.66 132.576 90.348C132.336 90.024 132.006 89.862 131.586 89.862C131.334 89.862 131.07 89.94 130.794 90.096C130.518 90.24 130.326 90.42 130.218 90.636C130.038 91.008 129.918 91.386 129.858 91.77C129.714 92.514 129.642 93.228 129.642 93.912C129.642 94.08 129.654 94.404 129.678 94.884C129.678 94.92 129.678 95.01 129.678 95.154C129.678 95.286 129.66 95.412 129.624 95.532C129.6 95.652 129.552 95.76 129.48 95.856C129.432 95.904 129.342 95.952 129.21 96C129.078 96.048 128.964 96.072 128.868 96.072C128.7 96.072 128.49 96 128.238 95.856C127.986 95.712 127.836 95.55 127.788 95.37L127.77 95.118C127.77 95.022 127.782 94.878 127.806 94.686C127.95 93.846 128.022 93.114 128.022 92.49C128.022 92.214 128.016 92.004 128.004 91.86L127.986 91.032C127.986 90.78 127.914 90.54 127.77 90.312C127.626 90.072 127.44 89.856 127.212 89.664Z" fill="#FFF0FD"/>
</svg>
