<svg width="270" height="175" viewBox="0 0 270 175" fill="none" xmlns="http://www.w3.org/2000/svg">
<path d="M157.645 74.863C177.253 61.7979 163.059 31.3773 140.45 38.011L6.68845 77.2575C2.7236 78.4208 0 82.0584 0 86.1903C0 90.2909 2.68301 93.9085 6.60699 95.0989L139.684 135.468C157.964 141.014 168.998 115.791 152.519 106.13C142.244 100.107 141.821 85.4064 151.732 78.8026L157.645 74.863Z" fill="#F335DA"/>
<path d="M157.645 74.863C177.253 61.7979 163.059 31.3773 140.45 38.011L6.68845 77.2575C2.7236 78.4208 0 82.0584 0 86.1903C0 90.2909 2.68301 93.9085 6.60699 95.0989L139.684 135.468C157.964 141.014 168.998 115.791 152.519 106.13C142.244 100.107 141.821 85.4064 151.732 78.8026L157.645 74.863Z" fill="#F335DA"/>
<path d="M49.5103 87.928C50.1983 87.928 50.6543 88 50.8783 88.144C51.1023 88.272 51.2143 88.56 51.2143 89.008C51.2143 89.36 51.0463 89.616 50.7103 89.776C50.3743 89.936 49.9823 90.016 49.5343 90.016L48.7423 90.04C48.1983 90.072 47.7983 90.088 47.5423 90.088C47.3183 90.088 47.1743 90.08 47.1103 90.064C47.0783 90.176 47.0623 90.36 47.0623 90.616C47.0463 90.84 47.0703 91.192 47.1343 91.672C47.1503 91.768 47.1663 91.904 47.1823 92.08C47.1983 92.256 47.2063 92.416 47.2063 92.56C47.2063 93.024 47.1183 93.376 46.9423 93.616C46.7663 93.84 46.4783 93.952 46.0783 93.952C45.8383 93.952 45.5983 93.864 45.3583 93.688C45.1343 93.496 45.0223 93.288 45.0223 93.064C45.0223 91.8 44.9903 90.792 44.9263 90.04C44.4943 89.992 44.2223 89.968 44.1103 89.968C43.7263 89.968 43.3503 89.992 42.9823 90.04C42.5023 90.072 42.1583 90.088 41.9503 90.088C41.5343 90.072 41.1823 89.992 40.8943 89.848C40.6223 89.688 40.4863 89.448 40.4863 89.128C40.4863 88.776 40.5583 88.528 40.7023 88.384C40.9423 88.128 41.4143 88 42.1183 88C42.4863 88 42.8943 87.984 43.3423 87.952C43.7263 87.92 43.9903 87.904 44.1343 87.904C44.2783 87.904 44.4143 87.92 44.5423 87.952C44.6703 87.968 44.7903 87.976 44.9023 87.976C44.9343 87.832 44.9503 87.6 44.9503 87.28C44.9503 87.008 44.9343 86.616 44.9023 86.104C44.8703 85.624 44.8543 85.272 44.8543 85.048C44.8543 84.568 44.9183 84.216 45.0463 83.992C45.1903 83.768 45.4703 83.656 45.8863 83.656C46.2543 83.656 46.5343 83.736 46.7263 83.896C46.9183 84.04 47.0143 84.248 47.0143 84.52C47.0303 84.856 47.0223 85.344 46.9903 85.984L46.9663 87.064C46.9663 87.448 46.9743 87.736 46.9903 87.928C47.3743 87.96 47.6543 87.976 47.8303 87.976C48.1983 87.976 48.4703 87.968 48.6463 87.952L49.5103 87.928ZM59.8089 81.376C59.6489 84.512 59.5689 87.008 59.5689 88.864C59.5689 89.824 59.5929 90.736 59.6409 91.6C59.7689 91.696 60.0169 91.744 60.3849 91.744L60.9369 91.72C61.1609 91.688 61.3689 91.672 61.5609 91.672C61.9769 91.672 62.2969 91.744 62.5209 91.888C62.7609 92.032 62.8809 92.312 62.8809 92.728C62.8809 93.128 62.7609 93.44 62.5209 93.664C62.2969 93.888 61.8249 94 61.1049 94C60.4969 94 59.7609 93.952 58.8969 93.856C58.6889 93.84 58.4889 93.824 58.2969 93.808C58.1049 93.792 57.9289 93.784 57.7689 93.784C56.8889 93.8 56.2329 93.832 55.8009 93.88C55.3689 93.928 54.8809 93.952 54.3369 93.952C53.8409 93.952 53.5929 93.576 53.5929 92.824C53.5929 92.104 54.0569 91.744 54.9849 91.744C55.1289 91.744 55.3609 91.76 55.6809 91.792C55.9529 91.84 56.2409 91.864 56.5449 91.864C56.7209 91.864 56.8649 91.856 56.9769 91.84C56.9929 90.768 57.0489 89.208 57.1449 87.16C57.2409 84.76 57.2889 82.984 57.2889 81.832C57.2089 81.848 56.9289 81.96 56.4489 82.168C55.7129 82.536 55.1689 82.72 54.8169 82.72C54.6249 82.72 54.4489 82.624 54.2889 82.432C54.1289 82.224 54.0489 81.984 54.0489 81.712C54.0489 81.44 54.2169 81.176 54.5529 80.92C54.8889 80.664 55.4329 80.328 56.1849 79.912C56.6009 79.704 57.0009 79.472 57.3849 79.216C57.4809 79.152 57.6169 79.088 57.7929 79.024C57.9849 78.96 58.1289 78.928 58.2249 78.928C58.6409 78.928 59.0169 79.016 59.3529 79.192C59.7049 79.352 59.8809 79.568 59.8809 79.84L59.8089 81.376ZM73.6443 93.04C73.6443 93.312 73.5403 93.552 73.3323 93.76C73.1243 93.968 72.8683 94.072 72.5643 94.072C72.0843 94.072 71.7323 93.984 71.5083 93.808C71.2843 93.616 71.1723 93.272 71.1723 92.776C71.1723 92.184 71.1563 91.408 71.1243 90.448C71.0923 89.648 71.0763 88.976 71.0763 88.432C71.0763 88.176 71.0923 87.84 71.1243 87.424C71.1563 87.04 71.1723 86.752 71.1723 86.56C71.1243 86.256 71.0043 86.008 70.8123 85.816C70.6203 85.608 70.3723 85.504 70.0683 85.504C69.9243 85.504 69.8043 85.44 69.7083 85.312C69.6123 85.168 69.5643 85.024 69.5643 84.88C69.5643 84.512 69.7083 84.232 69.9963 84.04C70.3003 83.848 70.6603 83.752 71.0763 83.752C71.9403 83.752 72.5403 84.264 72.8763 85.288C73.2923 84.808 73.7643 84.424 74.2923 84.136C74.8363 83.832 75.3563 83.68 75.8523 83.68C76.4443 83.68 76.9803 83.84 77.4603 84.16C77.9563 84.48 78.2043 84.912 78.2043 85.456C78.2043 85.76 78.0683 86.072 77.7963 86.392C77.5403 86.712 77.2763 86.872 77.0043 86.872C76.8603 86.872 76.7323 86.84 76.6203 86.776C76.5243 86.696 76.4043 86.584 76.2603 86.44C76.1003 86.28 75.9643 86.168 75.8523 86.104C75.7403 86.024 75.6123 85.984 75.4683 85.984C75.2123 85.984 74.9723 86.024 74.7483 86.104C74.5243 86.184 74.3723 86.28 74.2923 86.392C74.0363 86.792 73.8443 87.152 73.7163 87.472C73.6043 87.792 73.5483 88.136 73.5483 88.504C73.5483 88.776 73.5403 88.992 73.5243 89.152L73.5003 90.52C73.5003 90.728 73.5083 90.96 73.5243 91.216C73.5403 91.472 73.5563 91.664 73.5723 91.792C73.6203 92.224 73.6443 92.64 73.6443 93.04ZM89.1354 86.296C89.2634 86.52 89.3674 86.848 89.4474 87.28C89.5274 87.696 89.5674 88.072 89.5674 88.408C89.5674 89.032 89.4314 89.92 89.1594 91.072C88.0554 93.088 86.4234 94.096 84.2634 94.096C83.4634 94.096 82.6474 93.832 81.8154 93.304C80.9834 92.776 80.4074 92.168 80.0874 91.48C79.6554 90.104 79.4394 89.232 79.4394 88.864C79.4394 88.224 79.5754 87.544 79.8474 86.824C80.1354 86.104 80.4954 85.48 80.9274 84.952C81.1994 84.584 81.6874 84.272 82.3914 84.016C83.0954 83.744 83.7354 83.608 84.3114 83.608C85.4314 83.608 86.3834 83.824 87.1674 84.256C87.9514 84.672 88.6074 85.352 89.1354 86.296ZM87.0474 90.16C87.1274 89.952 87.1674 89.416 87.1674 88.552C87.1674 88.088 87.0794 87.632 86.9034 87.184C86.7434 86.736 86.5034 86.352 86.1834 86.032C86.1514 86 86.0634 85.952 85.9194 85.888C85.7754 85.808 85.5754 85.736 85.3194 85.672C85.0794 85.592 84.7994 85.552 84.4794 85.552C83.5834 85.552 82.9274 85.912 82.5114 86.632C82.0954 87.352 81.8874 88.168 81.8874 89.08C81.8874 89.24 81.9274 89.544 82.0074 89.992C82.1034 90.44 82.1834 90.72 82.2474 90.832C82.2954 90.944 82.4154 91.104 82.6074 91.312C82.8154 91.504 83.0634 91.68 83.3514 91.84C83.6554 91.984 83.9674 92.056 84.2874 92.056C85.0074 92.056 85.5834 91.888 86.0154 91.552C86.4474 91.2 86.7914 90.736 87.0474 90.16ZM92.9446 83.584C94.0006 83.584 94.5286 84.28 94.5286 85.672C94.5286 85.848 94.5126 86.24 94.4806 86.848C94.4486 87.552 94.4326 88.104 94.4326 88.504C94.4326 89.624 94.5846 90.528 94.8886 91.216C95.0006 91.44 95.2006 91.616 95.4886 91.744C95.7926 91.872 96.0486 91.936 96.2566 91.936C96.5766 91.936 96.8406 91.896 97.0486 91.816C97.2566 91.736 97.4486 91.616 97.6246 91.456C97.8166 91.296 98.0006 91.12 98.1766 90.928C98.4806 90.592 98.6726 90.208 98.7526 89.776C98.8486 89.328 98.9046 88.736 98.9206 88C98.9206 87.536 98.9446 87.088 98.9926 86.656C99.0886 85.952 99.1366 85.296 99.1366 84.688C99.1366 84.352 99.2246 84.072 99.4006 83.848C99.5926 83.608 99.8646 83.488 100.217 83.488C100.393 83.488 100.601 83.552 100.841 83.68C101.097 83.792 101.265 83.92 101.345 84.064C101.457 84.256 101.513 84.52 101.513 84.856C101.513 85.064 101.489 85.256 101.441 85.432C101.361 85.672 101.321 85.976 101.321 86.344C101.321 86.536 101.337 86.856 101.369 87.304C101.417 87.64 101.441 87.984 101.441 88.336C101.441 89.408 101.521 90.2 101.681 90.712C101.857 91.256 102.097 91.736 102.401 92.152C102.721 92.488 102.937 92.736 103.049 92.896C103.161 93.04 103.217 93.168 103.217 93.28C103.217 93.472 103.121 93.656 102.929 93.832C102.737 94.008 102.537 94.096 102.329 94.096C101.737 94.096 101.217 93.896 100.769 93.496C100.337 93.08 100.017 92.552 99.8086 91.912C99.6326 92.12 99.4006 92.376 99.1126 92.68C98.8246 92.984 98.5526 93.232 98.2966 93.424C97.6726 93.872 96.8726 94.096 95.8966 94.096C95.4966 94.096 95.0566 93.976 94.5766 93.736C94.1126 93.496 93.6886 93.184 93.3046 92.8C92.9206 92.4 92.6566 91.976 92.5126 91.528C92.4966 91.496 92.4486 91.368 92.3686 91.144C92.3046 90.92 92.2726 90.584 92.2726 90.136L92.2486 86.296C92.2486 86.072 92.1926 85.72 92.0806 85.24C91.9846 84.92 91.9366 84.68 91.9366 84.52C91.9366 84.248 92.0246 84.024 92.2006 83.848C92.3926 83.672 92.6406 83.584 92.9446 83.584ZM104.822 85.552C104.694 85.456 104.59 85.36 104.51 85.264C104.43 85.152 104.39 84.96 104.39 84.688C104.39 84.384 104.494 84.152 104.702 83.992C104.926 83.816 105.182 83.728 105.47 83.728C106.03 83.728 106.51 83.872 106.91 84.16C107.326 84.448 107.63 84.848 107.822 85.36C108.174 84.704 108.622 84.256 109.166 84.016C109.71 83.76 110.462 83.632 111.422 83.632C111.806 83.632 112.198 83.752 112.598 83.992C113.014 84.216 113.39 84.496 113.726 84.832C113.998 85.184 114.23 85.624 114.422 86.152C114.614 86.664 114.71 87.128 114.71 87.544C114.71 87.784 114.694 88.176 114.662 88.72C114.63 89.296 114.614 89.752 114.614 90.088C114.614 91.208 114.83 91.896 115.262 92.152C115.326 92.184 115.446 92.224 115.622 92.272C115.798 92.32 115.926 92.368 116.006 92.416C116.102 92.464 116.15 92.536 116.15 92.632C116.166 93.016 116.022 93.336 115.718 93.592C115.43 93.832 115.078 93.952 114.662 93.952C114.038 93.952 113.55 93.784 113.198 93.448C112.846 93.112 112.598 92.6 112.454 91.912C112.374 91.656 112.334 91.28 112.334 90.784C112.334 90.512 112.35 90.072 112.382 89.464C112.43 88.984 112.454 88.472 112.454 87.928C112.454 87.368 112.294 86.88 111.974 86.464C111.654 86.032 111.214 85.816 110.654 85.816C110.318 85.816 109.966 85.92 109.598 86.128C109.23 86.32 108.974 86.56 108.83 86.848C108.59 87.344 108.43 87.848 108.35 88.36C108.158 89.352 108.062 90.304 108.062 91.216C108.062 91.44 108.078 91.872 108.11 92.512C108.11 92.56 108.11 92.68 108.11 92.872C108.11 93.048 108.086 93.216 108.038 93.376C108.006 93.536 107.942 93.68 107.846 93.808C107.782 93.872 107.662 93.936 107.486 94C107.31 94.064 107.158 94.096 107.03 94.096C106.806 94.096 106.526 94 106.19 93.808C105.854 93.616 105.654 93.4 105.59 93.16L105.566 92.824C105.566 92.696 105.582 92.504 105.614 92.248C105.806 91.128 105.902 90.152 105.902 89.32C105.902 88.952 105.894 88.672 105.878 88.48L105.854 87.376C105.854 87.04 105.758 86.72 105.566 86.416C105.374 86.096 105.126 85.808 104.822 85.552ZM127.387 78.976C127.387 79.136 127.363 79.336 127.315 79.576C127.299 79.672 127.283 79.776 127.267 79.888C127.251 80 127.235 80.136 127.219 80.296C127.075 81.736 127.003 83.52 127.003 85.648C127.003 87.664 127.091 89.16 127.267 90.136C127.443 91.112 127.715 91.696 128.083 91.888L128.539 92.08C128.779 92.16 128.955 92.248 129.067 92.344C129.195 92.44 129.259 92.6 129.259 92.824C129.259 93.144 129.091 93.424 128.755 93.664C128.419 93.888 128.051 94 127.651 94C127.235 94 126.827 93.832 126.427 93.496C126.027 93.144 125.699 92.704 125.443 92.176C125.171 92.752 124.691 93.216 124.003 93.568C123.315 93.904 122.659 94.072 122.035 94.072C121.475 94.072 120.987 94 120.571 93.856C120.155 93.696 119.723 93.456 119.275 93.136C118.731 92.752 118.315 92.264 118.027 91.672C117.755 91.08 117.619 90.432 117.619 89.728C117.619 89.024 117.755 88.28 118.027 87.496C118.299 86.696 118.611 86.04 118.963 85.528C119.379 84.936 119.931 84.496 120.619 84.208C121.307 83.904 122.019 83.752 122.755 83.752C123.171 83.752 123.531 83.832 123.835 83.992C124.139 84.136 124.451 84.344 124.771 84.616C124.771 83.816 124.755 83.144 124.723 82.6C124.707 82.456 124.699 82.288 124.699 82.096C124.699 80.72 124.811 79.632 125.035 78.832C125.211 78.16 125.635 77.824 126.307 77.824C126.675 77.824 126.947 77.904 127.123 78.064C127.299 78.224 127.387 78.528 127.387 78.976ZM119.947 89.68C119.947 90.496 120.211 91.12 120.739 91.552C120.979 91.776 121.179 91.928 121.339 92.008C121.499 92.088 121.699 92.128 121.939 92.128C122.403 92.128 122.843 92 123.259 91.744C123.691 91.472 124.027 91.12 124.267 90.688C124.523 90.256 124.651 89.792 124.651 89.296L124.627 86.92C124.291 86.536 123.979 86.272 123.691 86.128C123.419 85.968 123.131 85.888 122.827 85.888C121.803 85.888 121.099 86.28 120.715 87.064C120.507 87.432 120.323 87.848 120.163 88.312C120.019 88.776 119.947 89.232 119.947 89.68Z" fill="white"/>
</svg>
