<svg width="286" height="184" viewBox="0 0 286 184" fill="none" xmlns="http://www.w3.org/2000/svg">
<path d="M118.996 105.87C98.2518 119.665 113.237 151.842 137.146 144.841L278.928 103.324C283.12 102.097 286 98.2521 286 93.8846C286 89.5502 283.163 85.7267 279.014 84.4708L137.977 41.7721C118.645 35.9196 106.997 62.5987 124.431 72.7983C135.309 79.1629 135.757 94.725 125.262 101.704L118.996 105.87Z" fill="#C10BA9"/>
<path d="M118.996 105.87C98.2518 119.665 113.237 151.842 137.146 144.841L278.928 103.324C283.12 102.097 286 98.2521 286 93.8846C286 89.5502 283.163 85.7267 279.014 84.4708L137.977 41.7721C118.645 35.9196 106.997 62.5987 124.431 72.7983C135.309 79.1629 135.757 94.725 125.262 101.704L118.996 105.87Z" fill="#C10BA9"/>
<path d="M159.912 79.832C161.609 79.832 163.154 80.0473 164.548 80.478C165.941 80.8833 167.081 81.4913 167.968 82.302C169.564 83.746 170.678 85.3293 171.312 87.052C171.97 88.7493 172.3 90.928 172.3 93.588C172.3 94.4493 171.894 95.8933 171.084 97.92C170.628 98.8067 170.146 99.5033 169.64 100.01C169.158 100.517 168.411 101.125 167.398 101.834C168.259 103.202 168.93 104.139 169.412 104.646C169.918 105.178 170.488 105.444 171.122 105.444C171.324 105.444 171.476 105.431 171.578 105.406C171.654 105.381 171.768 105.368 171.92 105.368C172.274 105.368 172.553 105.482 172.756 105.71C172.984 105.963 173.098 106.255 173.098 106.584C173.098 106.761 173.047 106.951 172.946 107.154C172.844 107.357 172.705 107.509 172.528 107.61C172.046 107.914 171.628 108.104 171.274 108.18C170.919 108.281 170.273 108.332 169.336 108.332C168.348 108.332 167.461 107.889 166.676 107.002C165.916 106.141 165.118 104.937 164.282 103.392C163.192 103.797 162.09 104 160.976 104C156.086 104 152.603 102.328 150.526 98.984C149.943 98.0467 149.487 97.0713 149.158 96.058C148.854 95.0447 148.702 94.0567 148.702 93.094C148.702 90.51 149.158 88.2553 150.07 86.33C151.007 84.4047 152.299 82.9227 153.946 81.884C154.908 81.276 155.922 80.782 156.986 80.402C158.075 80.022 159.05 79.832 159.912 79.832ZM152.578 93.094C152.578 94.0313 152.717 94.8673 152.996 95.602C153.3 96.3113 153.73 96.9827 154.288 97.616C154.744 96.6533 155.39 95.9313 156.226 95.45C157.062 94.9687 158.05 94.728 159.19 94.728C160.38 94.728 161.394 94.9433 162.23 95.374C163.066 95.8047 163.686 96.2607 164.092 96.742C164.497 97.198 165.004 97.8567 165.612 98.718C167.41 97.274 168.31 95.2347 168.31 92.6C168.31 90.624 168.094 89.0913 167.664 88.002C167.258 86.9127 166.486 85.8993 165.346 84.962C164.738 84.4553 163.978 84.0753 163.066 83.822C162.179 83.5687 161.229 83.442 160.216 83.442C158.67 83.442 157.315 83.9233 156.15 84.886C154.984 85.8233 154.098 87.0393 153.49 88.534C152.882 90.0033 152.578 91.5233 152.578 93.094ZM159.874 97.616C159.164 97.616 158.506 97.768 157.898 98.072C157.29 98.3507 156.872 98.8827 156.644 99.668L157.138 100.048C157.67 100.251 158.138 100.403 158.544 100.504C158.949 100.58 159.405 100.618 159.912 100.618C160.748 100.618 161.647 100.479 162.61 100.2C162.154 99.364 161.698 98.7307 161.242 98.3C160.811 97.844 160.355 97.616 159.874 97.616ZM175.553 91.194C175.35 91.194 175.16 91.118 174.983 90.966C174.831 90.7887 174.755 90.586 174.755 90.358C174.755 89.7753 175.008 89.2307 175.515 88.724C175.667 88.648 175.971 88.5213 176.427 88.344C176.883 88.1667 177.288 88.078 177.643 88.078C178.605 88.078 179.391 88.344 179.999 88.876C180.607 89.3827 180.911 90.1173 180.911 91.08C180.911 91.3587 180.86 91.954 180.759 92.866C180.657 93.93 180.607 94.7533 180.607 95.336C180.607 97.1093 180.847 98.5407 181.329 99.63C181.506 99.9847 181.785 100.263 182.165 100.466C182.545 100.669 182.887 100.77 183.191 100.77C183.925 100.77 184.521 100.643 184.977 100.39C185.433 100.137 185.927 99.7313 186.459 99.174C186.991 98.6167 187.333 97.9833 187.485 97.274C187.662 96.5647 187.789 95.5893 187.865 94.348C187.915 93.5373 187.966 92.942 188.017 92.562C188.143 91.346 188.207 90.3073 188.207 89.446C188.207 88.8887 188.359 88.4327 188.663 88.078C188.967 87.698 189.385 87.508 189.917 87.508C190.221 87.508 190.563 87.6093 190.943 87.812C191.348 87.9893 191.614 88.2047 191.741 88.458C191.893 88.7113 191.969 89.1293 191.969 89.712C191.969 90.016 191.931 90.3073 191.855 90.586C191.677 91.2193 191.589 91.9793 191.589 92.866L191.627 94.842C191.627 96.6407 191.753 97.9707 192.007 98.832C192.133 99.2373 192.311 99.6553 192.539 100.086C192.767 100.491 192.982 100.833 193.185 101.112C193.691 101.669 194.021 102.062 194.173 102.29C194.325 102.493 194.401 102.695 194.401 102.898C194.401 103.202 194.249 103.493 193.945 103.772C193.666 104.025 193.362 104.152 193.033 104.152C192.095 104.152 191.285 103.835 190.601 103.202C189.917 102.569 189.41 101.745 189.081 100.732C188.219 101.72 187.421 102.518 186.687 103.126C186.18 103.481 185.559 103.747 184.825 103.924C184.09 104.076 183.355 104.152 182.621 104.152C181.633 104.152 180.632 103.747 179.619 102.936C178.605 102.125 177.921 101.188 177.567 100.124C177.541 100.073 177.465 99.8707 177.339 99.516C177.237 99.1613 177.187 98.6293 177.187 97.92C177.187 96.9827 177.237 95.8047 177.339 94.386C177.415 93.474 177.453 92.638 177.453 91.878C177.453 91.65 177.364 91.46 177.187 91.308C177.035 91.156 176.857 91.08 176.655 91.08C176.503 91.08 176.325 91.1053 176.123 91.156C175.945 91.1813 175.755 91.194 175.553 91.194ZM199.217 79.604C200.103 79.68 200.876 79.9207 201.535 80.326C202.193 80.706 202.523 81.2887 202.523 82.074C202.523 82.6567 202.244 83.1253 201.687 83.48C201.155 83.8093 200.509 83.974 199.749 83.974C199.014 83.974 198.507 83.784 198.229 83.404C197.95 83.024 197.811 82.6313 197.811 82.226C197.811 81.466 197.887 80.8327 198.039 80.326C198.216 79.8193 198.609 79.5787 199.217 79.604ZM202.257 96.438V97.54C202.257 98.528 202.282 99.4653 202.333 100.352C202.409 101.213 202.497 102.087 202.599 102.974C202.599 103.278 202.421 103.557 202.067 103.81C201.712 104.038 201.383 104.152 201.079 104.152C200.597 104.152 200.103 104.063 199.597 103.886C199.115 103.683 198.824 103.443 198.723 103.164C198.571 102.353 198.495 101.631 198.495 100.998C198.495 98.9207 198.431 96.59 198.305 94.006C198.203 91.726 198.153 90.13 198.153 89.218C198.153 88.762 198.381 88.3693 198.837 88.04C199.293 87.7107 199.774 87.546 200.281 87.546C201.015 87.546 201.522 87.7107 201.801 88.04C202.105 88.3693 202.257 88.8887 202.257 89.598V96.438ZM207.001 90.852C206.647 90.8013 206.355 90.6493 206.127 90.396C205.925 90.1427 205.823 89.8387 205.823 89.484C205.823 89.3067 205.861 89.1167 205.937 88.914C206.039 88.7113 206.178 88.534 206.355 88.382C206.685 88.0527 207.571 87.888 209.015 87.888C209.218 86.9 209.319 85.8993 209.319 84.886C209.319 84.506 209.307 84.1767 209.281 83.898C209.256 83.6193 209.243 83.404 209.243 83.252C209.243 82.6947 209.446 82.2767 209.851 81.998C210.282 81.7193 210.763 81.58 211.295 81.58C211.954 81.58 212.397 81.7447 212.625 82.074C212.879 82.4033 213.005 83.0113 213.005 83.898C213.005 85.2153 212.891 86.5073 212.663 87.774C213.069 87.774 213.626 87.7487 214.335 87.698C215.298 87.6473 215.995 87.622 216.425 87.622C216.856 87.622 217.223 87.736 217.527 87.964C217.857 88.1667 218.021 88.458 218.021 88.838C218.021 89.826 217.578 90.4087 216.691 90.586C215.754 90.814 214.297 90.9533 212.321 91.004C212.245 91.992 212.207 93.0687 212.207 94.234C212.207 96.058 212.321 97.5527 212.549 98.718C212.701 99.5287 212.955 100.124 213.309 100.504C213.689 100.859 214.247 101.036 214.981 101.036C215.412 101.036 215.855 100.922 216.311 100.694C216.615 100.517 216.894 100.428 217.147 100.428C217.502 100.428 217.755 100.542 217.907 100.77C218.085 100.998 218.173 101.302 218.173 101.682C218.173 102.391 217.793 102.987 217.033 103.468C216.273 103.924 215.298 104.152 214.107 104.152C213.373 104.152 212.625 103.975 211.865 103.62C211.131 103.265 210.51 102.822 210.003 102.29C209.927 102.214 209.788 101.923 209.585 101.416C209.383 100.909 209.205 100.365 209.053 99.782C208.8 98.5913 208.673 96.9193 208.673 94.766C208.673 93.8287 208.724 92.5747 208.825 91.004L207.001 90.852Z" fill="white"/>
</svg>
