<svg width="310" height="138" viewBox="0 0 310 138" fill="none" xmlns="http://www.w3.org/2000/svg">
<path d="M274.833 15.655C291.367 8.29487 310 20.3963 310 38.4943V113C310 126.807 298.807 138 285 138H117.632C90.6384 138 82.8044 101.139 107.465 90.1608L274.833 15.655Z" fill="#C10BA9"/>
<path d="M219.119 102.56C219.039 102.96 218.799 103.307 218.399 103.6C218.025 103.867 217.492 104 216.799 104C216.212 104 215.745 103.84 215.399 103.52C215.079 103.2 214.905 102.867 214.879 102.52C215.039 101.4 215.119 99.72 215.119 97.48C215.119 96.1467 215.039 94.0933 214.879 91.32C214.692 88.7067 214.599 86.3867 214.599 84.36C214.599 83.2667 214.652 82.1467 214.759 81C214.759 80.6267 214.972 80.2267 215.399 79.8C215.852 79.3733 216.465 79.1067 217.239 79C219.772 78.7333 222.879 78.6 226.559 78.6H227.839C228.799 78.6 229.732 78.7733 230.639 79.12C231.572 79.4667 232.039 80.0667 232.039 80.92C232.039 81.48 231.905 81.92 231.639 82.24C231.372 82.56 230.879 82.72 230.159 82.72C229.812 82.72 229.412 82.6933 228.959 82.64C228.505 82.5867 228.185 82.5467 227.999 82.52C226.985 82.36 226.199 82.28 225.639 82.28C222.545 82.28 220.212 82.4933 218.639 82.92C218.639 83.8 218.665 85.2267 218.719 87.2L218.759 89.76C220.145 89.76 221.385 89.7067 222.479 89.6C223.572 89.4667 224.199 89.3867 224.359 89.36C225.745 89.2 226.665 89.12 227.119 89.12C227.759 89.12 228.292 89.2667 228.719 89.56C229.172 89.8267 229.399 90.2533 229.399 90.84C229.399 92.1733 228.465 92.84 226.599 92.84C226.145 92.84 225.745 92.8533 225.399 92.88C225.052 92.9067 224.759 92.9333 224.519 92.96C223.559 93.0667 222.799 93.12 222.239 93.12C221.012 93.12 219.972 93.16 219.119 93.24C219.119 94.2267 219.159 95.2667 219.239 96.36C219.239 96.7067 219.252 97.24 219.279 97.96C219.332 98.68 219.359 99.3333 219.359 99.92C219.359 100.427 219.345 100.893 219.319 101.32C219.292 101.747 219.225 102.16 219.119 102.56ZM251.179 102.08C251.179 102.667 250.859 103.16 250.219 103.56C249.606 103.96 249.033 104.16 248.499 104.16C247.486 104.16 246.673 104.04 246.059 103.8C245.473 103.533 244.926 103.053 244.419 102.36C243.726 102.973 242.779 103.44 241.579 103.76C240.379 104.053 239.273 104.2 238.259 104.2C236.606 104.2 235.246 103.76 234.179 102.88C233.113 101.973 232.579 100.653 232.579 98.92C232.579 98.1733 232.779 97.4933 233.179 96.88C233.579 96.24 234.126 95.68 234.819 95.2C235.593 94.6933 236.473 94.3067 237.459 94.04C238.446 93.7467 239.473 93.6 240.539 93.6C241.099 93.6 241.766 93.7067 242.539 93.92C243.313 94.1333 243.913 94.36 244.339 94.6V93.96C244.339 92.52 243.993 91.5333 243.299 91C242.606 90.44 241.486 90.16 239.939 90.16C239.486 90.16 239.033 90.2533 238.579 90.44C238.153 90.6267 237.659 90.88 237.099 91.2C236.353 91.6 235.646 91.8 234.979 91.8C234.739 91.8 234.513 91.64 234.299 91.32C234.086 90.9733 233.979 90.6667 233.979 90.4C233.979 89.6267 234.339 88.96 235.059 88.4C235.806 87.84 236.686 87.4267 237.699 87.16C238.713 86.8667 239.619 86.72 240.419 86.72C241.219 86.72 242.139 86.88 243.179 87.2C244.219 87.4933 245.073 87.9067 245.739 88.44C246.539 89.1333 247.153 89.9467 247.579 90.88C248.033 91.7867 248.259 92.7867 248.259 93.88C248.259 94.2267 248.233 94.7467 248.179 95.44C248.126 96.1867 248.099 96.8267 248.099 97.36C248.099 97.6 248.073 97.96 248.019 98.44C247.966 99.0267 247.939 99.4933 247.939 99.84C247.939 100.16 248.059 100.44 248.299 100.68C248.539 100.893 248.819 101 249.139 101L250.259 100.96C250.553 100.96 250.779 101.067 250.939 101.28C251.099 101.493 251.179 101.76 251.179 102.08ZM238.299 101.04C239.446 101.04 240.406 100.92 241.179 100.68C241.953 100.44 242.886 100 243.979 99.36C244.086 98.9067 244.153 98.3067 244.179 97.56C242.713 96.8667 241.499 96.52 240.539 96.52C239.446 96.52 238.473 96.72 237.619 97.12C236.766 97.52 236.339 98.2267 236.339 99.24C236.339 99.7467 236.553 100.173 236.979 100.52C237.406 100.867 237.846 101.04 238.299 101.04ZM255.879 78.32C256.812 78.4 257.625 78.6533 258.319 79.08C259.012 79.48 259.359 80.0933 259.359 80.92C259.359 81.5333 259.065 82.0267 258.479 82.4C257.919 82.7467 257.239 82.92 256.439 82.92C255.665 82.92 255.132 82.72 254.839 82.32C254.545 81.92 254.399 81.5067 254.399 81.08C254.399 80.28 254.479 79.6133 254.639 79.08C254.825 78.5467 255.239 78.2933 255.879 78.32ZM259.079 96.04V97.2C259.079 98.24 259.105 99.2267 259.159 100.16C259.239 101.067 259.332 101.987 259.439 102.92C259.439 103.24 259.252 103.533 258.879 103.8C258.505 104.04 258.159 104.16 257.839 104.16C257.332 104.16 256.812 104.067 256.279 103.88C255.772 103.667 255.465 103.413 255.359 103.12C255.199 102.267 255.119 101.507 255.119 100.84C255.119 98.6533 255.052 96.2 254.919 93.48C254.812 91.08 254.759 89.4 254.759 88.44C254.759 87.96 254.999 87.5467 255.479 87.2C255.959 86.8533 256.465 86.68 256.999 86.68C257.772 86.68 258.305 86.8533 258.599 87.2C258.919 87.5467 259.079 88.0933 259.079 88.84V96.04ZM268.553 97.8C268.553 98.8133 268.7 99.6 268.993 100.16C269.313 100.693 269.713 100.96 270.193 100.96C270.46 100.96 270.713 100.947 270.953 100.92C271.193 100.867 271.433 100.84 271.673 100.84C271.94 100.84 272.166 100.973 272.353 101.24C272.566 101.507 272.673 101.8 272.673 102.12C272.673 102.76 272.366 103.267 271.753 103.64C271.166 103.987 270.366 104.16 269.353 104.16C268.633 104.16 267.9 103.947 267.153 103.52C266.433 103.067 265.833 102.373 265.353 101.44C264.873 100.48 264.633 99.2933 264.633 97.88C264.633 94.84 264.686 92.2667 264.793 90.16C264.926 87.6533 264.993 84.4933 264.993 80.68C264.993 79.48 265.06 78.64 265.193 78.16C265.353 77.7867 265.606 77.5067 265.953 77.32C266.326 77.1067 266.713 77 267.113 77C267.513 77 267.86 77.0667 268.153 77.2C268.473 77.3333 268.686 77.5467 268.793 77.84C268.9 78.16 268.966 78.48 268.993 78.8C269.046 79.0933 269.073 79.52 269.073 80.08C269.073 81.1733 269.033 82.2267 268.953 83.24C268.9 84.4667 268.873 85.36 268.873 85.92C268.66 90.6133 268.553 94.5733 268.553 97.8Z" fill="white"/>
<path d="M139.546 107.28C141.018 107.28 141.754 108.112 141.754 109.776C141.754 110.64 141.45 111.264 140.842 111.648C140.266 112.032 139.546 112.224 138.682 112.224C138.426 112.224 138.154 112.208 137.866 112.176C137.578 112.144 137.274 112.112 136.954 112.08C135.994 111.92 135.13 111.84 134.362 111.84C133.818 111.84 133.002 111.904 131.914 112.032C130.762 112.16 129.882 112.224 129.274 112.224C128.41 112.224 127.642 112.064 126.97 111.744C126.298 111.392 125.962 110.816 125.962 110.016C125.962 108.896 126.378 108.176 127.21 107.856C128.042 107.504 129.21 107.328 130.714 107.328L132.298 107.376C133.066 107.44 133.658 107.472 134.074 107.472L137.578 107.376L139.546 107.28ZM158.524 94.752C158.204 101.024 158.044 106.016 158.044 109.728C158.044 111.648 158.092 113.472 158.188 115.2C158.444 115.392 158.94 115.488 159.676 115.488L160.78 115.44C161.228 115.376 161.644 115.344 162.028 115.344C162.86 115.344 163.5 115.488 163.948 115.776C164.428 116.064 164.668 116.624 164.668 117.456C164.668 118.256 164.428 118.88 163.948 119.328C163.5 119.776 162.556 120 161.116 120C159.9 120 158.428 119.904 156.7 119.712C156.284 119.68 155.884 119.648 155.5 119.616C155.116 119.584 154.764 119.568 154.444 119.568C152.684 119.6 151.372 119.664 150.508 119.76C149.644 119.856 148.668 119.904 147.58 119.904C146.588 119.904 146.092 119.152 146.092 117.648C146.092 116.208 147.02 115.488 148.876 115.488C149.164 115.488 149.628 115.52 150.268 115.584C150.812 115.68 151.388 115.728 151.996 115.728C152.348 115.728 152.636 115.712 152.86 115.68C152.892 113.536 153.004 110.416 153.196 106.32C153.388 101.52 153.484 97.968 153.484 95.664C153.324 95.696 152.764 95.92 151.804 96.336C150.332 97.072 149.244 97.44 148.54 97.44C148.156 97.44 147.804 97.248 147.484 96.864C147.164 96.448 147.004 95.968 147.004 95.424C147.004 94.88 147.34 94.352 148.012 93.84C148.684 93.328 149.772 92.656 151.276 91.824C152.108 91.408 152.908 90.944 153.676 90.432C153.868 90.304 154.14 90.176 154.492 90.048C154.876 89.92 155.164 89.856 155.356 89.856C156.188 89.856 156.94 90.032 157.612 90.384C158.316 90.704 158.668 91.136 158.668 91.68L158.524 94.752Z" fill="#2E1B67"/>
</svg>
