<svg width="318" height="295" viewBox="0 0 318 295" fill="none" xmlns="http://www.w3.org/2000/svg">
<path d="M197.53 278.116C183.335 284.337 176.237 287.447 168.867 288.675C162.334 289.765 155.666 289.765 149.133 288.675C141.763 287.447 134.665 284.337 120.47 278.116L43.7234 244.486C36.213 241.195 32.4578 239.55 29.2146 237.611C13.3859 228.149 2.78758 211.934 0.474041 193.638C0 189.889 0 185.79 0 177.59V177.59C0 169.141 0 164.916 0.498481 161.073C2.93333 142.302 14.0831 125.781 30.5798 116.5C33.9571 114.599 37.8747 113.019 45.71 109.858L186.081 53.2237C230.257 35.4004 252.346 26.4888 270.085 30.1364C285.597 33.3261 299.218 42.5189 307.98 55.7106C318 70.7965 318 94.6147 318 142.251V162.581C318 185.285 318 196.637 314.417 206.535C311.25 215.283 306.092 223.175 299.35 229.587C291.723 236.841 281.325 241.398 260.53 250.51L197.53 278.116Z" fill="#F335DA"/>
<path d="M253.723 92.4C257.221 93.168 260.123 94.6827 262.427 96.944C264.731 99.2053 265.882 101.829 265.882 104.816C265.882 106.608 265.456 108.357 264.603 110.064C263.237 112.795 261.189 114.843 258.459 116.208C255.771 117.573 252.656 118.256 249.115 118.256C246.896 118.256 244.912 117.851 243.163 117.04C241.413 116.187 239.685 115.056 237.979 113.648C237.339 113.051 236.763 112.197 236.251 111.088C235.781 109.979 235.547 109.061 235.547 108.336C235.547 107.397 235.803 106.651 236.315 106.096C236.869 105.499 237.595 105.2 238.491 105.2C239.387 105.2 240.091 105.413 240.603 105.84C241.115 106.267 241.733 106.949 242.459 107.888C243.141 108.784 243.76 109.509 244.315 110.064C244.869 110.576 245.616 111.024 246.555 111.408C247.493 111.792 248.667 111.984 250.075 111.984C252.933 111.984 255.173 111.28 256.795 109.872C258.416 108.464 259.227 106.48 259.227 103.92C259.227 102.939 258.693 101.957 257.627 100.976C256.56 99.952 255.557 99.2267 254.619 98.8C254.064 98.5013 253.04 98.2027 251.547 97.904C249.541 97.392 248.027 96.9013 247.003 96.432C246.021 95.92 245.531 95.1307 245.531 94.064C245.531 93.3387 245.851 92.6347 246.491 91.952C247.131 91.2267 248.091 90.3307 249.371 89.264C250.651 88.1973 251.611 87.3227 252.251 86.64C252.891 85.9147 253.211 85.1893 253.211 84.464C252.4 84.2507 251.184 84.144 249.562 84.144C248.837 84.144 247.749 84.1867 246.299 84.272C245.019 84.3573 244.037 84.4 243.355 84.4C241.819 84.4 240.496 84.144 239.387 83.632C238.32 83.12 237.786 82.4587 237.786 81.648C237.786 80.752 237.872 80.048 238.043 79.536C238.213 78.9813 238.533 78.64 239.003 78.512C239.301 78.384 239.835 78.32 240.603 78.32C242.693 78.32 244.507 78.384 246.043 78.512C247.749 78.5973 249.051 78.64 249.947 78.64L255.259 78.576C259.611 78.576 261.787 79.6213 261.787 81.712C261.787 83.2907 260.976 85.0827 259.355 87.088C257.776 89.0507 255.899 90.8213 253.723 92.4Z" fill="#FDBFF5"/>
</svg>
