<svg width="146" height="172" viewBox="0 0 146 172" fill="none" xmlns="http://www.w3.org/2000/svg">
<path d="M35.2475 41.5245C23.2006 27.3323 0 35.8514 0 54.4672V152C0 163.046 8.95432 172 20 172H102.79C119.831 172 129.065 152.05 118.037 139.057L35.2475 41.5245Z" fill="#C10BA9"/>
<path d="M14.1729 68.3C14.4262 68.3 14.6529 68.3667 14.8529 68.5C15.0662 68.6333 15.1929 68.8667 15.2329 69.2C15.3929 70.2533 15.4929 71.3067 15.5329 72.36C15.5862 73.4 15.6129 74.58 15.6129 75.9C15.6129 76.46 15.5662 77.48 15.4729 78.96C16.0596 79.0133 16.5129 79.04 16.8329 79.04C17.0596 79.04 17.5729 79.0067 18.3729 78.94C18.8396 78.8733 19.2462 78.84 19.5929 78.84C19.9129 78.84 20.2062 78.8733 20.4729 78.94C20.7396 78.9933 21.0129 79.0867 21.2929 79.22C21.5729 79.38 21.7129 79.6267 21.7129 79.96C21.7129 80.2267 21.6262 80.4667 21.4529 80.68C21.2929 80.8933 21.0996 81 20.8729 81C20.7129 81 20.4596 80.9733 20.1129 80.92C19.4862 80.8267 18.8862 80.78 18.3129 80.78C18.1262 80.78 17.9129 80.7933 17.6729 80.82C17.4462 80.8333 17.2796 80.84 17.1729 80.84C16.8529 80.88 16.5329 80.9 16.2129 80.9C15.5596 80.9 14.9729 80.8667 14.4529 80.8C14.1862 80.7733 13.9196 80.6733 13.6529 80.5C13.3862 80.3133 13.2529 80.0467 13.2529 79.7C13.2529 79.5 13.2796 78.9867 13.3329 78.16C13.4262 76.7867 13.4729 75.74 13.4729 75.02C13.4729 74.46 13.4462 73.8733 13.3929 73.26C13.3396 72.6467 13.3062 72.26 13.2929 72.1C13.1729 70.9667 13.1129 70.0333 13.1129 69.3C13.1129 68.9533 13.1929 68.7 13.3529 68.54C13.5262 68.38 13.7996 68.3 14.1729 68.3ZM24.3705 68.9C24.8639 70.3667 25.4239 71.98 26.0505 73.74C26.6772 75.4867 27.2505 77 27.7705 78.28C28.1572 77.04 28.6905 75.5533 29.3705 73.82C30.0505 72.0733 30.6839 70.5 31.2705 69.1C31.4439 68.6867 31.7372 68.48 32.1505 68.48C32.5372 68.48 32.8305 68.56 33.0305 68.72C33.2305 68.8667 33.3305 69.1267 33.3305 69.5C33.3305 69.6467 33.3105 69.7733 33.2705 69.88C33.2305 69.9867 33.1705 70.1267 33.0905 70.3C32.6772 71.1133 32.2639 72.0533 31.8505 73.12C31.4372 74.1733 30.9305 75.5133 30.3305 77.14C30.3572 77.0733 30.1705 77.5733 29.7705 78.64L29.1105 80.36C29.0305 80.5733 28.8972 80.74 28.7105 80.86C28.5372 80.9667 28.3372 81.02 28.1105 81.02C27.8839 81.02 27.6305 80.9667 27.3505 80.86C27.0839 80.74 26.8905 80.62 26.7705 80.5C26.3172 79.6333 25.7372 78.38 25.0305 76.74C24.3372 75.1 23.7372 73.5867 23.2305 72.2L22.9305 71.38C22.7305 70.82 22.5839 70.3933 22.4905 70.1C22.3972 69.7933 22.3505 69.5467 22.3505 69.36C22.3505 69.0933 22.4972 68.88 22.7905 68.72C23.0972 68.56 23.3905 68.48 23.6705 68.48C23.8172 68.48 23.9572 68.5133 24.0905 68.58C24.2239 68.6467 24.3172 68.7533 24.3705 68.9ZM40.2279 76.48C39.7212 76.48 39.2879 76.4667 38.9279 76.44C38.5812 76.4 38.1212 76.34 37.5479 76.26C37.5479 76.8333 37.5346 77.5333 37.5079 78.36L37.4879 79.9C37.4879 80.2467 37.3946 80.52 37.2079 80.72C37.0212 80.9067 36.8012 81 36.5479 81C36.1079 81 35.7812 80.9467 35.5679 80.84C35.3679 80.72 35.2679 80.5133 35.2679 80.22C35.2679 79.7 35.2946 79.1533 35.3479 78.58C35.5079 77.1933 35.5879 75.6333 35.5879 73.9C35.5879 72.6867 35.5546 71.5467 35.4879 70.48C35.2612 70.3867 35.0612 70.2667 34.8879 70.12C34.7279 69.9733 34.6412 69.8267 34.6279 69.68C34.6279 69.3333 34.7546 69.0533 35.0079 68.84C35.2612 68.6267 35.6479 68.52 36.1679 68.52C36.5946 68.52 37.1212 68.4867 37.7479 68.42C37.8946 68.4067 38.1479 68.3867 38.5079 68.36C38.8679 68.3333 39.1812 68.32 39.4479 68.32C40.5412 68.32 41.3879 68.4267 41.9879 68.64C42.6012 68.8533 43.2146 69.2067 43.8279 69.7C44.4946 70.74 44.8279 71.4733 44.8279 71.9C44.8279 73.2733 44.4212 74.38 43.6079 75.22C42.8079 76.06 41.6812 76.48 40.2279 76.48ZM39.7879 70.02C39.3612 70.02 38.9812 70.0467 38.6479 70.1C38.3279 70.14 37.9546 70.2133 37.5279 70.32C37.5946 71.3467 37.6279 72.24 37.6279 73C37.6279 73.5733 37.6079 74.0533 37.5679 74.44C38.1412 74.56 38.5879 74.64 38.9079 74.68C39.2412 74.7067 39.6146 74.72 40.0279 74.72C41.0146 74.72 41.7079 74.4667 42.1079 73.96C42.5212 73.4533 42.7279 72.8533 42.7279 72.16C42.7279 71.96 42.6679 71.7133 42.5479 71.42C42.4412 71.1267 42.3412 70.9333 42.2479 70.84C41.8879 70.52 41.5346 70.3067 41.1879 70.2C40.8412 70.08 40.3746 70.02 39.7879 70.02Z" fill="white"/>
</svg>
