<svg width="146" height="172" viewBox="0 0 146 172" fill="none" xmlns="http://www.w3.org/2000/svg">
<path d="M35.2475 130.476C23.2006 144.668 0 136.149 0 117.533V20C0 8.9543 8.95432 0 20 0H102.79C119.831 0 129.065 19.9503 118.037 32.9427L35.2475 130.476Z" fill="#F335DA"/>
<path d="M21.8804 93.36C22.0671 93.36 22.2937 93.4867 22.5604 93.74C22.8404 93.98 22.9804 94.1867 22.9804 94.36C22.9804 95.1733 22.9537 96.2867 22.9004 97.7C22.8871 98.0467 22.8737 98.4667 22.8604 98.96C22.8471 99.44 22.8404 100 22.8404 100.64C22.8404 102.667 22.9604 104.16 23.2004 105.12C23.1871 105.44 23.0604 105.673 22.8204 105.82C22.5804 105.953 22.3404 106.02 22.1004 106.02C21.5671 106.02 21.2137 105.833 21.0404 105.46C20.8804 105.087 20.8004 104.553 20.8004 103.86C20.8004 101.287 20.8271 98.92 20.8804 96.76C19.3471 98.4667 18.1537 99.9 17.3004 101.06C17.3004 101.06 17.1804 101.14 16.9404 101.3C16.7137 101.5 16.5271 101.6 16.3804 101.6C16.0337 101.6 15.7471 101.513 15.5204 101.34C15.2937 101.167 15.0737 100.913 14.8604 100.58L13.9004 99.22C13.2337 98.2867 12.7471 97.58 12.4404 97.1C12.4404 98.3267 12.5004 99.9933 12.6204 102.1C12.7137 103.313 12.7604 104.227 12.7604 104.84C12.7604 105.16 12.6804 105.433 12.5204 105.66C12.3604 105.873 12.1071 105.98 11.7604 105.98C11.4137 105.98 11.1271 105.913 10.9004 105.78C10.6871 105.647 10.5737 105.447 10.5604 105.18C10.5737 104.953 10.5804 104.58 10.5804 104.06C10.5804 103.02 10.5471 101.753 10.4804 100.26L10.4404 99.18L10.4004 97.78C10.3871 97.3667 10.3737 96.8867 10.3604 96.34C10.3471 95.78 10.3404 95.1733 10.3404 94.52C10.3404 93.72 10.7737 93.32 11.6404 93.32C11.9071 93.32 12.1737 93.3867 12.4404 93.52C12.7204 93.6533 12.9271 93.8467 13.0604 94.1C13.1671 94.5667 13.5604 95.34 14.2404 96.42C14.9204 97.5 15.5871 98.5133 16.2404 99.46C16.8271 98.7133 17.3071 98.1533 17.6804 97.78C18.3204 97.1267 18.8471 96.52 19.2604 95.96C19.6871 95.4 20.1471 94.7267 20.6404 93.94C20.7604 93.78 20.9337 93.6467 21.1604 93.54C21.3871 93.42 21.6271 93.36 21.8804 93.36ZM27.183 93.9C27.6764 95.3667 28.2364 96.98 28.863 98.74C29.4897 100.487 30.063 102 30.583 103.28C30.9697 102.04 31.503 100.553 32.183 98.82C32.863 97.0733 33.4964 95.5 34.083 94.1C34.2564 93.6867 34.5497 93.48 34.963 93.48C35.3497 93.48 35.643 93.56 35.843 93.72C36.043 93.8667 36.143 94.1267 36.143 94.5C36.143 94.6467 36.123 94.7733 36.083 94.88C36.043 94.9867 35.983 95.1267 35.903 95.3C35.4897 96.1133 35.0764 97.0533 34.663 98.12C34.2497 99.1733 33.743 100.513 33.143 102.14C33.1697 102.073 32.983 102.573 32.583 103.64L31.923 105.36C31.843 105.573 31.7097 105.74 31.523 105.86C31.3497 105.967 31.1497 106.02 30.923 106.02C30.6964 106.02 30.443 105.967 30.163 105.86C29.8964 105.74 29.703 105.62 29.583 105.5C29.1297 104.633 28.5497 103.38 27.843 101.74C27.1497 100.1 26.5497 98.5867 26.043 97.2L25.743 96.38C25.543 95.82 25.3964 95.3933 25.303 95.1C25.2097 94.7933 25.163 94.5467 25.163 94.36C25.163 94.0933 25.3097 93.88 25.603 93.72C25.9097 93.56 26.203 93.48 26.483 93.48C26.6297 93.48 26.7697 93.5133 26.903 93.58C27.0364 93.6467 27.1297 93.7533 27.183 93.9ZM43.0404 101.48C42.5337 101.48 42.1004 101.467 41.7404 101.44C41.3937 101.4 40.9337 101.34 40.3604 101.26C40.3604 101.833 40.3471 102.533 40.3204 103.36L40.3004 104.9C40.3004 105.247 40.2071 105.52 40.0204 105.72C39.8337 105.907 39.6137 106 39.3604 106C38.9204 106 38.5937 105.947 38.3804 105.84C38.1804 105.72 38.0804 105.513 38.0804 105.22C38.0804 104.7 38.1071 104.153 38.1604 103.58C38.3204 102.193 38.4004 100.633 38.4004 98.9C38.4004 97.6867 38.3671 96.5467 38.3004 95.48C38.0737 95.3867 37.8737 95.2667 37.7004 95.12C37.5404 94.9733 37.4537 94.8267 37.4404 94.68C37.4404 94.3333 37.5671 94.0533 37.8204 93.84C38.0737 93.6267 38.4604 93.52 38.9804 93.52C39.4071 93.52 39.9337 93.4867 40.5604 93.42C40.7071 93.4067 40.9604 93.3867 41.3204 93.36C41.6804 93.3333 41.9937 93.32 42.2604 93.32C43.3537 93.32 44.2004 93.4267 44.8004 93.64C45.4137 93.8533 46.0271 94.2067 46.6404 94.7C47.3071 95.74 47.6404 96.4733 47.6404 96.9C47.6404 98.2733 47.2337 99.38 46.4204 100.22C45.6204 101.06 44.4937 101.48 43.0404 101.48ZM42.6004 95.02C42.1737 95.02 41.7937 95.0467 41.4604 95.1C41.1404 95.14 40.7671 95.2133 40.3404 95.32C40.4071 96.3467 40.4404 97.24 40.4404 98C40.4404 98.5733 40.4204 99.0533 40.3804 99.44C40.9537 99.56 41.4004 99.64 41.7204 99.68C42.0537 99.7067 42.4271 99.72 42.8404 99.72C43.8271 99.72 44.5204 99.4667 44.9204 98.96C45.3337 98.4533 45.5404 97.8533 45.5404 97.16C45.5404 96.96 45.4804 96.7133 45.3604 96.42C45.2537 96.1267 45.1537 95.9333 45.0604 95.84C44.7004 95.52 44.3471 95.3067 44.0004 95.2C43.6537 95.08 43.1871 95.02 42.6004 95.02Z" fill="white"/>
</svg>
