<svg width="349" height="97" viewBox="0 0 349 97" fill="none" xmlns="http://www.w3.org/2000/svg">
<path d="M310.168 89.6034C325.888 93.3746 341 81.4593 341 65.2932V27C341 13.1929 329.807 2 316 2L156.378 2C126.755 2 121.74 44.3997 150.546 51.3102L310.168 89.6034Z" fill="#C10BA9"/>
<path d="M182.422 22.2846C182.498 21.6707 182.701 21.1586 183.032 20.7482C183.386 20.3193 183.849 20.1404 184.421 20.2115C184.908 20.2721 185.33 20.4213 185.687 20.6592C186.045 20.8972 186.196 21.2384 186.14 21.683C186.032 22.551 185.839 23.763 185.559 25.3191C185.285 26.8328 185.102 27.9601 185.009 28.7011C184.865 29.8654 184.713 31.4267 184.556 33.3849C184.409 35.2584 184.281 36.6292 184.174 37.4972C184.087 38.1958 184.012 38.7131 183.948 39.0492C183.906 39.3879 183.673 39.703 183.25 39.9943C182.851 40.2671 182.27 40.3561 181.508 40.2613C181.106 40.2113 180.764 40.1043 180.484 39.9405C180.227 39.758 180.056 39.5756 179.971 39.393C179.126 38.0626 177.932 35.8287 176.387 32.6915C174.652 29.1865 173.213 26.4924 172.072 24.6091C172.051 26.1544 171.904 28.0279 171.631 30.2296C171.509 31.2034 171.33 32.471 171.093 34.0323C170.88 35.5751 170.711 36.586 170.587 37.0651C170.426 37.6685 170.176 38.1211 169.838 38.423C169.523 38.7063 169.059 38.8098 168.445 38.7334C167.979 38.6755 167.645 38.505 167.444 38.222C167.267 37.9205 167.198 37.4389 167.237 36.7774C167.324 35.9068 167.538 34.6114 167.881 32.8912C167.937 32.6187 168.028 32.1463 168.154 31.4741C168.281 30.8019 168.377 30.2012 168.443 29.6719C168.625 28.2112 168.759 26.5295 168.845 24.627C168.976 22.5365 169.103 20.9937 169.227 19.9987C169.29 19.4906 169.519 19.1214 169.913 18.8909C170.328 18.6631 170.779 18.5795 171.266 18.64C171.69 18.6927 172.121 18.8538 172.56 19.1234C174.097 21.6363 176.139 25.3514 178.688 30.2689L181.104 35.2129C181.167 34.8768 181.237 34.4018 181.313 33.7878C181.448 32.7081 181.571 31.5411 181.684 30.2868C181.797 29.0325 181.871 28.1818 181.905 27.7346C182.055 25.6679 182.227 23.8512 182.422 22.2846ZM188.481 30.2937C188.312 30.2727 188.161 30.1894 188.029 30.044C187.92 29.88 187.878 29.7027 187.901 29.5122C187.962 29.0253 188.23 28.5964 188.706 28.2257C188.841 28.178 189.108 28.1037 189.508 28.0029C189.907 27.9021 190.255 27.8701 190.552 27.907C191.356 28.0071 191.985 28.311 192.437 28.8187C192.893 29.3053 193.071 29.9508 192.971 30.7553C192.942 30.9882 192.837 31.4804 192.658 32.232C192.463 33.1106 192.335 33.7934 192.274 34.2803C192.09 35.7622 192.142 36.9834 192.431 37.9437C192.543 38.2585 192.747 38.5204 193.043 38.7292C193.34 38.9381 193.615 39.0583 193.869 39.0899C194.483 39.1662 194.993 39.1223 195.401 38.958C195.808 38.7936 196.263 38.5063 196.766 38.0958C197.268 37.6854 197.62 37.1916 197.821 36.6147C198.042 36.0403 198.25 35.2384 198.442 34.209C198.569 33.5368 198.673 33.0446 198.755 32.7323C198.987 31.7293 199.148 30.8679 199.237 30.1481C199.295 29.6824 199.47 29.3171 199.761 29.0523C200.054 28.7663 200.423 28.651 200.868 28.7063C201.122 28.7379 201.397 28.8581 201.694 29.067C202.014 29.2573 202.214 29.4649 202.293 29.6897C202.394 29.9172 202.414 30.2745 202.354 30.7614C202.322 31.0154 202.26 31.2549 202.167 31.4799C201.953 31.9907 201.8 32.6166 201.708 33.3576L201.535 35.0128C201.348 36.5159 201.315 37.6405 201.437 38.3866C201.501 38.7385 201.606 39.1062 201.752 39.4898C201.9 39.8522 202.045 40.1604 202.185 40.4144C202.55 40.9328 202.785 41.2951 202.888 41.5015C202.994 41.6866 203.037 41.8639 203.015 42.0332C202.984 42.2873 202.827 42.5149 202.544 42.7162C202.284 42.899 202.017 42.9732 201.742 42.939C200.959 42.8416 200.314 42.4927 199.808 41.8923C199.303 41.292 198.965 40.5513 198.795 39.6703C197.972 40.4064 197.223 40.9903 196.545 41.4221C196.085 41.6658 195.539 41.8236 194.907 41.8954C194.277 41.9461 193.655 41.9332 193.041 41.8569C192.215 41.7542 191.421 41.3115 190.659 40.5287C189.896 39.7459 189.422 38.8916 189.236 37.9656C189.22 37.9206 189.178 37.7433 189.109 37.4338C189.061 37.1269 189.074 36.677 189.148 36.0842C189.245 35.3009 189.41 34.3218 189.642 33.1468C189.8 32.3926 189.919 31.6979 189.998 31.0628C190.022 30.8723 189.967 30.7043 189.835 30.5588C189.724 30.416 189.583 30.3341 189.414 30.313C189.287 30.2972 189.136 30.2999 188.961 30.3212C188.811 30.324 188.651 30.3148 188.481 30.2937ZM225.482 44.6338C225.238 44.0016 225.118 43.3203 225.123 42.5899C225.131 41.8385 225.215 40.817 225.375 39.5256C225.528 38.2978 225.492 37.2076 225.266 36.2552C225.041 35.3027 224.399 34.7607 223.34 34.629C222.938 34.579 222.52 34.656 222.086 34.86C221.676 35.0455 221.353 35.3063 221.118 35.6425C220.751 36.1773 220.472 36.7768 220.282 37.4411C220.094 38.0842 219.947 38.8397 219.839 39.7077C219.77 40.2581 219.732 40.8231 219.725 41.4026C219.703 41.5719 219.68 41.8485 219.654 42.2322C219.651 42.5973 219.632 42.9281 219.595 43.2245C219.437 44.4947 218.913 45.0745 218.024 44.9639C216.86 44.8191 216.322 44.1288 216.411 42.8931C216.519 42.0251 216.588 41.5607 216.617 41.4998L216.787 40.1343C216.881 39.3722 216.942 38.6273 216.968 37.8996C216.994 37.1719 216.987 36.6228 216.947 36.2524C216.843 35.5301 216.656 34.9587 216.386 34.5381C216.137 34.1202 215.685 33.8704 215.028 33.7888C214.097 33.6729 213.295 33.9817 212.624 34.7151C212.142 35.3002 211.782 36.04 211.541 36.9345C211.27 38.0831 211.06 38.9921 210.912 39.6617C210.788 40.3127 210.672 41.0722 210.564 41.9402C210.488 42.5541 210.32 43.0384 210.061 43.3932C209.823 43.7505 209.429 43.895 208.878 43.8265C208.476 43.7765 208.066 43.618 207.648 43.351C207.253 43.0655 207.08 42.7322 207.127 42.3511C207.177 41.9489 207.27 41.5519 207.404 41.1602C207.745 39.9772 208.109 37.8297 208.496 34.7177C208.559 34.2096 208.492 33.7069 208.296 33.2095C208.124 32.6936 207.869 32.4146 207.53 32.3725C207.445 32.362 207.281 32.3846 207.038 32.4403C206.815 32.4987 206.651 32.5212 206.546 32.5081C206.27 32.4739 206.032 32.3152 205.831 32.0322C205.651 31.7519 205.571 31.527 205.592 31.3576C205.658 30.8284 205.967 30.4154 206.52 30.1187C207.097 29.8034 207.671 29.6814 208.243 29.7525C209.026 29.8499 209.662 30.1763 210.152 30.7316C210.642 31.287 210.981 32.0171 211.17 32.922C211.762 32.1357 212.503 31.5399 213.391 31.1345C214.283 30.7079 215.237 30.5578 216.253 30.6842C216.888 30.7632 217.385 30.911 217.746 31.1278C218.129 31.326 218.43 31.5891 218.647 31.9171C218.867 32.2239 219.142 32.6881 219.473 33.3097C220.087 32.6981 220.83 32.2531 221.703 31.9747C222.597 31.699 223.489 31.6164 224.378 31.727C225.437 31.8586 226.335 32.4111 227.074 33.3844C227.816 34.3365 228.265 35.392 228.422 36.5509C228.499 37.1409 228.436 38.251 228.233 39.8811L228.131 41.7387C228.1 42.8527 228.377 43.5643 228.962 43.8735C229.656 44.1748 229.988 44.4418 229.959 44.6747C229.896 45.1828 229.723 45.5375 229.44 45.7387C229.233 45.8421 228.952 45.9468 228.594 46.0528C228.237 46.1589 227.963 46.2001 227.773 46.1764C226.63 46.0342 225.866 45.52 225.482 44.6338ZM233.479 40.9527C233.627 39.7672 233.749 38.8688 233.847 38.2575L234.254 35.2447C234.407 34.0168 234.542 32.6685 234.66 31.1999C234.694 30.7527 234.697 30.1295 234.667 29.3304C234.645 28.1238 234.671 27.2241 234.745 26.6314C234.866 25.6575 235.413 25.2312 236.387 25.3523C237.001 25.4286 237.414 25.652 237.626 26.0223C237.862 26.3741 237.989 26.9059 238.008 27.6176C238.038 29.1047 237.93 30.8327 237.686 32.8015C237.612 33.3943 237.48 34.2808 237.29 35.4611C237.772 34.876 238.352 34.443 239.032 34.1621C239.733 33.8838 240.401 33.7842 241.036 33.8631C242.878 34.0922 244.371 35.0518 245.515 36.7419C245.809 37.3159 246.048 37.9905 246.231 38.7657C246.438 39.5224 246.508 40.1653 246.442 40.6946C246.327 41.6261 246.114 42.4703 245.805 43.2273C245.517 43.9869 245.073 44.7056 244.473 45.3833C243.872 46.0611 243.152 46.5841 242.311 46.9525C241.49 47.3234 240.572 47.4457 239.556 47.3194C238.667 47.2088 237.885 46.9288 237.21 46.4794C236.556 46.0326 236.054 45.4865 235.705 44.8411C235.533 45.3572 235.234 45.8574 234.809 46.3419C234.385 46.8053 233.941 47.008 233.475 46.95C233.094 46.9027 232.789 46.7679 232.558 46.5458C232.33 46.3025 232.242 45.9797 232.292 45.5775C232.328 45.2811 232.438 44.9185 232.62 44.4897C232.824 43.8916 232.989 43.3424 233.116 42.8422C233.266 42.3235 233.387 41.6937 233.479 40.9527ZM239.09 44.5849C240.127 44.7139 241.04 44.462 241.828 43.8291C242.619 43.175 243.092 42.2235 243.247 40.9744C243.39 39.8312 243.205 38.8086 242.694 37.9066C242.516 37.6051 242.237 37.3446 241.856 37.1252C241.496 36.9085 241.125 36.7764 240.744 36.729C239.855 36.6184 239.071 36.7896 238.391 37.2425C237.714 37.6742 237.276 38.34 237.078 39.2398C236.841 40.4571 236.667 41.5104 236.556 42.3995C236.75 42.918 237.077 43.3994 237.538 43.8437C238.022 44.2694 238.54 44.5165 239.09 44.5849ZM264.045 45.012C263.921 46.007 263.61 46.7852 263.11 47.3465C262.61 47.9077 261.805 48.4203 260.694 48.884C259.942 49.2205 259.097 49.4486 258.158 49.5683C257.221 49.6668 256.287 49.6581 255.356 49.5423C254.784 49.4712 254.13 49.2824 253.395 48.9759C252.683 48.6509 252.107 48.3535 251.667 48.0839L251.187 47.5404C250.332 46.6387 249.742 45.9312 249.419 45.4181C249.12 44.8864 249.014 44.2713 249.101 43.5726C249.169 43.0222 249.347 42.6252 249.636 42.3816C249.924 42.138 250.354 42.0517 250.925 42.1228C251.222 42.1596 251.485 42.2891 251.716 42.5113C251.946 42.7334 252.135 43.0257 252.284 43.3881C252.697 44.3854 253.236 45.1511 253.901 45.6852C254.589 46.2007 255.43 46.5204 256.425 46.6441C257.357 46.76 258.335 46.5913 259.358 46.1382C260.202 45.7487 260.653 45.3211 260.711 44.8554C260.814 44.0297 260.529 43.2956 259.856 42.653C259.205 42.0131 258.229 41.3866 256.93 40.7735C256.141 40.3744 254.971 39.67 253.42 38.6602C252.366 37.9702 251.614 37.1887 251.164 36.3158C250.714 35.4429 250.544 34.5619 250.654 33.6727C250.754 32.8682 251.127 32.1192 251.772 31.4255C252.441 30.7133 253.202 30.2167 254.053 29.9356C254.503 29.7766 255.208 29.6386 256.169 29.5215C257.132 29.3833 257.846 29.3432 258.312 29.4011C259.18 29.5091 259.918 29.7084 260.527 29.9991C261.139 30.2686 261.729 30.6215 262.298 31.0577C263.164 31.7028 263.792 32.2647 264.184 32.7434C264.576 33.2221 264.733 33.779 264.654 34.4141C264.606 34.7952 264.416 35.1155 264.083 35.375C263.771 35.6372 263.265 35.7248 262.567 35.6379C262.397 35.6169 262.237 35.5217 262.086 35.3524C261.935 35.1832 261.751 34.9346 261.534 34.6066C261.251 34.1199 260.959 33.7827 260.66 33.595C260.578 33.5633 260.246 33.3823 259.664 33.0519C259.103 32.7241 258.377 32.5049 257.488 32.3944C256.641 32.289 255.865 32.3967 255.159 32.7173C254.455 33.0168 254.057 33.537 253.965 34.2779C253.873 35.0189 254.465 35.7052 255.74 36.3368C257.09 37.0636 258.206 37.6861 259.087 38.2041C259.99 38.7249 260.852 39.3157 261.672 39.9767C262.612 40.717 263.273 41.4549 263.654 42.1902C264.057 42.9283 264.187 43.8689 264.045 45.012ZM268.765 51.2744C268.342 51.2218 267.991 51.1029 267.713 50.9179C267.435 50.7328 267.275 50.5517 267.232 50.3744C267.105 49.4986 267.127 48.3727 267.298 46.9966C267.614 44.4562 267.913 42.3974 268.195 40.8202C268.514 38.9465 268.781 37.1417 268.997 35.4058C269.061 34.8977 269.089 34.1488 269.083 33.1592C269.083 32.9872 269.09 32.6763 269.103 32.2265C269.115 31.7766 269.146 31.3612 269.193 30.9801C269.251 30.5144 269.456 30.1636 269.808 29.9279C270.181 29.6948 270.632 29.6112 271.161 29.677C271.584 29.7297 271.906 29.9094 272.126 30.2162C272.369 30.5045 272.464 30.8709 272.408 31.3155C272.324 31.9929 272.227 32.9482 272.116 34.1813C272.016 35.3298 271.931 36.1898 271.86 36.7614C271.781 37.3965 271.654 38.2407 271.48 39.294C271.359 39.9238 271.28 40.3869 271.243 40.6833C271.127 41.6148 271.042 42.3888 270.987 43.0054C271.867 42.3195 273.009 41.5263 274.41 40.6258C275.812 39.7252 276.889 39.1067 277.64 38.7702C278.436 38.4177 278.951 38.256 279.184 38.285C279.628 38.3403 279.998 38.4829 280.292 38.7129C280.585 38.943 280.71 39.2379 280.665 39.5978C280.62 39.9577 280.532 40.2369 280.4 40.4355C280.268 40.634 280.051 40.822 279.749 40.9995L275.833 43.1889C276.175 43.3819 276.472 43.7521 276.727 44.2997C277.002 44.8499 277.319 45.588 277.677 46.5139C278.082 47.5747 278.424 48.3696 278.702 48.8987C279.002 49.4304 279.331 49.7186 279.691 49.7633L280.489 49.8303C280.637 49.8487 280.754 49.9492 280.838 50.1317C280.944 50.3169 280.978 50.5683 280.938 50.8858C280.878 51.3727 280.585 51.7341 280.062 51.9699C279.559 52.2084 279.011 52.2908 278.419 52.217C277.593 52.1144 276.902 51.706 276.346 50.9919C275.792 50.2566 275.298 49.303 274.864 48.1311L274.339 46.6469C274.116 46.0173 273.936 45.565 273.798 45.2898C273.682 45.0174 273.523 44.8256 273.322 44.7146L270.528 46.431L270.225 49.9082C270.156 50.4586 269.96 50.8318 269.634 51.0278C269.33 51.2265 269.04 51.3087 268.765 51.2744ZM285.82 39.2715C287.217 39.4453 287.801 40.4531 287.572 42.2949C287.543 42.5278 287.458 43.0438 287.315 43.843C287.157 44.7692 287.045 45.497 286.979 46.0262C286.795 47.5082 286.847 48.7293 287.136 49.6896C287.248 50.0044 287.483 50.2702 287.843 50.487C288.225 50.7064 288.553 50.8332 288.828 50.8674C289.251 50.9201 289.607 50.9106 289.896 50.839C290.184 50.7673 290.458 50.6401 290.717 50.4574C290.997 50.2773 291.27 50.0747 291.534 49.8496C291.992 49.4551 292.309 48.9786 292.486 48.4201C292.687 47.8432 292.858 47.0691 293.001 46.0979C293.077 45.484 293.182 44.8951 293.317 44.3314C293.56 43.4157 293.731 42.5557 293.831 41.7512C293.887 41.3066 294.049 40.9506 294.319 40.6832C294.612 40.3972 294.992 40.2832 295.458 40.3411C295.691 40.3701 295.955 40.489 296.252 40.6979C296.572 40.8882 296.773 41.0852 296.855 41.2889C296.972 41.5614 297.003 41.9199 296.947 42.3645C296.913 42.6397 296.85 42.8898 296.757 43.1147C296.612 43.4191 296.509 43.8148 296.449 44.3017C296.417 44.5557 296.385 44.9818 296.354 45.5798C296.362 46.0323 296.337 46.4914 296.28 46.9571C296.103 48.3756 296.079 49.4366 296.206 50.1404C296.349 50.8892 296.588 51.5638 296.922 52.1642C297.29 52.6615 297.535 53.0251 297.657 53.2553C297.781 53.4642 297.834 53.6428 297.816 53.791C297.784 54.045 297.627 54.2727 297.344 54.474C297.061 54.6753 296.782 54.7588 296.507 54.7246C295.723 54.6271 295.068 54.2769 294.541 53.674C294.038 53.0525 293.702 52.3012 293.532 51.4201C293.265 51.6664 292.916 51.9669 292.484 52.3218C292.053 52.6766 291.653 52.96 291.282 53.1719C290.383 53.662 289.288 53.8267 287.996 53.6661C287.467 53.6003 286.905 53.3691 286.309 52.9726C285.734 52.5787 285.225 52.0961 284.78 51.5248C284.338 50.9324 284.058 50.3279 283.941 49.7115C283.925 49.6665 283.883 49.4892 283.814 49.1797C283.766 48.8728 283.779 48.4229 283.853 47.8302L284.453 42.7454C284.49 42.449 284.474 41.974 284.404 41.3205C284.33 40.8813 284.306 40.5558 284.332 40.3441C284.377 39.9842 284.53 39.7023 284.792 39.4984C285.075 39.2971 285.418 39.2215 285.82 39.2715ZM304.245 50.5597C304.145 51.3642 304.183 52.0032 304.361 52.4767C304.562 52.9317 304.853 53.1829 305.235 53.2303C305.446 53.2566 305.649 53.2711 305.842 53.2736C306.038 53.2549 306.231 53.2575 306.421 53.2812C306.633 53.3075 306.8 53.4357 306.922 53.6658C307.065 53.8986 307.12 54.142 307.089 54.3961C307.026 54.9041 306.732 55.2761 306.208 55.5119C305.708 55.7292 305.056 55.7878 304.252 55.6878C303.68 55.6167 303.119 55.3749 302.568 54.9625C302.042 54.5315 301.634 53.9218 301.345 53.1335C301.058 52.324 300.985 51.3582 301.125 50.2362C301.425 47.8228 301.721 45.7851 302.014 44.1232C302.367 42.1464 302.732 39.6443 303.109 36.6169C303.227 35.6643 303.363 35.004 303.516 34.6361C303.68 34.3555 303.909 34.1582 304.203 34.0442C304.52 33.9117 304.837 33.8652 305.155 33.9047C305.473 33.9442 305.741 34.0314 305.961 34.1662C306.202 34.3036 306.35 34.4941 306.406 34.7375C306.459 35.002 306.48 35.2627 306.47 35.5193C306.483 35.7575 306.462 36.0988 306.407 36.5434C306.299 37.4114 306.163 38.2437 306 39.0402C305.836 40.0088 305.727 40.7154 305.672 41.16C305.039 44.8649 304.563 47.9981 304.245 50.5597ZM313.238 51.6782C313.138 52.4826 313.177 53.1216 313.354 53.5952C313.555 54.0502 313.847 54.3014 314.228 54.3488C314.439 54.3751 314.642 54.3895 314.835 54.392C315.031 54.3734 315.224 54.3759 315.415 54.3996C315.626 54.4259 315.793 54.5542 315.915 54.7843C316.058 55.0171 316.114 55.2605 316.082 55.5145C316.019 56.0226 315.725 56.3946 315.202 56.6304C314.702 56.8477 314.049 56.9063 313.245 56.8062C312.673 56.7352 312.112 56.4934 311.562 56.0809C311.035 55.65 310.627 55.0403 310.338 54.2519C310.052 53.4424 309.978 52.4767 310.118 51.3546C310.418 48.9412 310.714 46.9036 311.007 45.2416C311.36 43.2648 311.725 40.7627 312.102 37.7354C312.22 36.7827 312.356 36.1224 312.509 35.7545C312.673 35.4739 312.902 35.2767 313.196 35.1627C313.513 35.0302 313.831 34.9837 314.148 35.0232C314.466 35.0627 314.734 35.1498 314.954 35.2847C315.195 35.4221 315.343 35.6125 315.399 35.8559C315.452 36.1205 315.473 36.3811 315.463 36.6378C315.476 36.8759 315.455 37.2173 315.4 37.6619C315.292 38.5299 315.156 39.3621 314.993 40.1587C314.829 41.1273 314.72 41.8338 314.665 42.2784C314.032 45.9833 313.556 49.1166 313.238 51.6782Z" fill="white"/>
</svg>
