<svg width="141" height="150" viewBox="0 0 141 150" fill="none" xmlns="http://www.w3.org/2000/svg">
<path d="M116 74.3606C116 41.4261 80.2487 20.9277 51.8258 37.5656L5.17549 64.8732C1.96993 66.7497 3.45707e-06 70.1854 3.45707e-06 73.8998V73.8998C3.45707e-06 77.5595 1.91284 80.9531 5.0438 82.848L51.289 110.836C79.7036 128.033 116 107.574 116 74.3606V74.3606Z" fill="#F335DA"/>
<path d="M116 74.3606C116 41.4261 80.2487 20.9277 51.8258 37.5656L5.17549 64.8732C1.96993 66.7497 3.45707e-06 70.1854 3.45707e-06 73.8998V73.8998C3.45707e-06 77.5595 1.91284 80.9531 5.0438 82.848L51.289 110.836C79.7036 128.033 116 107.574 116 74.3606V74.3606Z" fill="#F335DA"/>
<path d="M52.974 62.49C53.9367 63.3767 54.646 64.4407 55.102 65.682C55.558 66.898 55.7353 68.114 55.634 69.33C55.5327 70.4953 55.1653 71.572 54.532 72.56C53.8987 73.5227 52.936 74.2573 51.644 74.764C50.6307 75.1947 49.63 75.4987 48.642 75.676C47.654 75.8533 46.5647 75.9927 45.374 76.094C44.842 76.1447 44.386 76.1827 44.006 76.208C43.6513 76.208 43.2333 76.2207 42.752 76.246C42.6507 76.246 42.4733 76.246 42.22 76.246C41.992 76.246 41.8273 76.2587 41.726 76.284V84.15C41.65 84.6313 41.5487 85.1253 41.422 85.632C41.3207 86.1387 41.0293 86.5313 40.548 86.81C40.2693 86.962 39.9273 87.0507 39.522 87.076C39.1167 87.1013 38.7493 87.0887 38.42 87.038C38.0653 86.9873 37.7613 86.8987 37.508 86.772C37.28 86.62 37.09 86.3667 36.938 86.012C36.8367 85.784 36.7353 85.5307 36.634 85.252C36.558 84.948 36.52 84.5807 36.52 84.15V63.136C36.52 62.9587 36.5327 62.794 36.558 62.642C36.5833 62.49 36.6087 62.338 36.634 62.186C36.6847 62.0593 36.7227 61.92 36.748 61.768C36.7733 61.616 36.8113 61.4767 36.862 61.35C36.9127 61.2233 36.9633 61.1093 37.014 61.008C37.09 60.9067 37.1787 60.818 37.28 60.742C37.4067 60.6153 37.5967 60.5013 37.85 60.4C38.1287 60.2987 38.534 60.248 39.066 60.248H39.142C39.9273 60.1973 40.8013 60.1593 41.764 60.134C42.7267 60.0833 43.5247 60.096 44.158 60.172C44.5127 60.2227 44.842 60.2607 45.146 60.286C45.45 60.286 45.7413 60.2987 46.02 60.324C46.324 60.3493 46.628 60.3747 46.932 60.4C47.236 60.4253 47.54 60.4633 47.844 60.514C48.0973 60.5647 48.3253 60.6027 48.528 60.628C48.756 60.6533 48.984 60.6913 49.212 60.742C49.4147 60.7927 49.63 60.8433 49.858 60.894C50.1113 60.9447 50.3393 61.0333 50.542 61.16C51.074 61.312 51.5173 61.502 51.872 61.73C52.2267 61.958 52.594 62.2113 52.974 62.49ZM50.694 68.76C50.7193 68.152 50.5927 67.62 50.314 67.164C50.0607 66.708 49.6933 66.328 49.212 66.024C48.7307 65.72 48.186 65.4793 47.578 65.302C46.97 65.1247 46.362 64.998 45.754 64.922C45.602 64.922 45.3867 64.922 45.108 64.922C44.8547 64.8967 44.576 64.884 44.272 64.884C43.968 64.8587 43.6767 64.846 43.398 64.846C43.1447 64.8207 42.942 64.808 42.79 64.808C42.6633 64.7827 42.5113 64.77 42.334 64.77C42.1567 64.77 41.954 64.77 41.726 64.77C41.7513 65.5553 41.764 66.3153 41.764 67.05C41.764 67.7593 41.764 68.532 41.764 69.368C41.7387 69.824 41.726 70.28 41.726 70.736C41.726 71.192 41.726 71.6353 41.726 72.066L44.082 72.028C44.69 72.028 45.3613 71.99 46.096 71.914C46.8307 71.838 47.5273 71.686 48.186 71.458C48.8447 71.23 49.402 70.9007 49.858 70.47C50.3393 70.0393 50.618 69.4693 50.694 68.76ZM63.8025 83.96C63.7772 84.0867 63.7518 84.2133 63.7265 84.34C63.7265 84.4413 63.7265 84.5553 63.7265 84.682L63.4985 85.48C63.4478 85.5813 63.4098 85.6447 63.3845 85.67L63.2705 85.898C63.1438 86.1767 62.9158 86.4047 62.5865 86.582C61.9785 86.886 61.3325 86.962 60.6485 86.81C60.2178 86.7593 59.8758 86.6327 59.6225 86.43C59.3692 86.2527 59.1918 86.0373 59.0905 85.784C58.9892 85.5307 58.9132 85.2773 58.8625 85.024C58.7865 84.7707 58.7485 84.5427 58.7485 84.34V63.06C58.7485 62.8827 58.7485 62.7307 58.7485 62.604C58.7738 62.452 58.7992 62.3127 58.8245 62.186C58.8498 62.0087 58.8752 61.8567 58.9005 61.73C58.9512 61.6033 59.0018 61.464 59.0525 61.312C59.1285 61.0587 59.2678 60.856 59.4705 60.704C59.7745 60.476 60.0658 60.3493 60.3445 60.324C60.5218 60.2733 60.6865 60.248 60.8385 60.248C60.9905 60.2227 61.1678 60.21 61.3705 60.21C61.7252 60.21 62.1305 60.3113 62.5865 60.514C62.9412 60.7167 63.1945 60.9953 63.3465 61.35C63.5998 61.8567 63.7265 62.3253 63.7265 62.756C63.7518 63.0093 63.7645 63.3893 63.7645 63.896C63.7898 64.4027 63.8025 64.7827 63.8025 65.036V65.188C63.8532 65.9987 63.8785 66.784 63.8785 67.544C63.8785 68.2787 63.8658 69.0893 63.8405 69.976C63.8405 70.8373 63.8278 71.6733 63.8025 72.484C63.8025 73.2693 63.8025 74.0547 63.8025 74.84V82.82C63.8025 82.9213 63.8025 83.0227 63.8025 83.124C63.8278 83.2 63.8405 83.2887 63.8405 83.39C63.8405 83.6433 63.8278 83.8333 63.8025 83.96ZM71.3586 71.002C72.1186 70.622 72.9166 70.356 73.7526 70.204C74.5886 70.0267 75.4119 69.9887 76.2226 70.09C77.0586 70.166 77.8566 70.3813 78.6166 70.736C79.3766 71.0653 80.0859 71.5467 80.7446 72.18C81.4032 72.8387 81.9099 73.5607 82.2646 74.346C82.6192 75.1313 82.8726 76.0053 83.0246 76.968C83.1259 77.6267 83.2906 78.2347 83.5186 78.792C83.7466 79.3493 83.9872 79.9067 84.2406 80.464C84.5192 81.0213 84.7726 81.5787 85.0006 82.136C85.2539 82.6933 85.4566 83.276 85.6086 83.884C85.7352 84.4667 85.6846 85.0367 85.4566 85.594C85.2539 86.126 84.8232 86.4553 84.1646 86.582C83.7846 86.658 83.4172 86.6327 83.0626 86.506C82.7332 86.354 82.4292 86.1513 82.1506 85.898C81.8719 85.6193 81.6186 85.328 81.3906 85.024C81.1879 84.6947 80.9979 84.3907 80.8206 84.112C80.2379 84.872 79.6046 85.4673 78.9206 85.898C78.2366 86.3033 77.4132 86.5693 76.4506 86.696C75.6399 86.7973 74.8672 86.8227 74.1326 86.772C73.3979 86.7213 72.6126 86.582 71.7766 86.354C70.6872 86.0753 69.7879 85.594 69.0786 84.91C68.3946 84.2007 67.8626 83.39 67.4826 82.478C67.1279 81.5407 66.9379 80.54 66.9126 79.476C66.8872 78.412 67.0139 77.3607 67.2926 76.322C67.6472 74.954 68.1792 73.8393 68.8886 72.978C69.5979 72.1167 70.4212 71.458 71.3586 71.002ZM72.3086 75.448C71.9539 75.8027 71.6752 76.2207 71.4726 76.702C71.2699 77.1833 71.1432 77.69 71.0926 78.222C71.0672 78.754 71.1179 79.286 71.2446 79.818C71.3712 80.35 71.5739 80.8187 71.8526 81.224C72.1059 81.5787 72.5366 81.8827 73.1446 82.136C73.7526 82.364 74.3859 82.5033 75.0446 82.554C75.8046 82.6047 76.4632 82.402 77.0206 81.946C77.6032 81.49 78.0339 80.92 78.3126 80.236C78.6166 79.5267 78.7559 78.7793 78.7306 77.994C78.7052 77.1833 78.4899 76.4487 78.0846 75.79C77.7806 75.3087 77.3752 74.954 76.8686 74.726C76.3872 74.498 75.8679 74.384 75.3106 74.384C74.7532 74.3587 74.1959 74.4473 73.6386 74.65C73.1066 74.8273 72.6632 75.0933 72.3086 75.448ZM104.691 70.052C104.919 70.4067 105.02 70.7867 104.995 71.192C104.995 71.7747 104.893 72.2813 104.691 72.712C104.64 72.8387 104.564 73.0033 104.463 73.206C104.387 73.4087 104.298 73.624 104.197 73.852C104.121 74.08 104.032 74.2953 103.931 74.498C103.829 74.7007 103.753 74.8527 103.703 74.954L103.627 75.144C103.272 75.9293 102.93 76.6893 102.601 77.424C102.271 78.1587 101.904 78.944 101.499 79.78C101.093 80.5907 100.701 81.3887 100.321 82.174C99.9658 82.934 99.6112 83.6813 99.2565 84.416C99.1552 84.6187 99.0665 84.8213 98.9905 85.024C98.9145 85.2013 98.8132 85.3913 98.6865 85.594L96.8625 89.508C96.5332 90.1667 96.2165 90.8127 95.9125 91.446C95.6338 92.0793 95.3172 92.7127 94.9625 93.346C94.8865 93.4727 94.8105 93.5867 94.7345 93.688C94.6838 93.8147 94.6332 93.9413 94.5825 94.068C94.4052 94.372 94.1392 94.6633 93.7845 94.942C93.4552 95.246 93.1005 95.4107 92.7205 95.436C92.0365 95.4867 91.4412 95.284 90.9345 94.828C90.6305 94.6507 90.3898 94.3973 90.2125 94.068C90.1112 93.84 90.0605 93.5487 90.0605 93.194C90.0858 93.042 90.0985 92.89 90.0985 92.738C90.1238 92.6113 90.1492 92.4847 90.1745 92.358C90.2252 92.2313 90.2632 92.1047 90.2885 91.978C90.3138 91.8513 90.3518 91.75 90.4025 91.674C90.4785 91.4713 90.5418 91.37 90.5925 91.37L93.3665 85.366C93.2398 85.0873 93.1132 84.8087 92.9865 84.53C92.8598 84.226 92.7458 83.96 92.6445 83.732C92.3152 82.9467 91.9605 82.1233 91.5805 81.262C91.2258 80.3753 90.8585 79.5013 90.4785 78.64C90.0985 77.7533 89.7058 76.892 89.3005 76.056C88.8952 75.22 88.4898 74.422 88.0845 73.662C87.9325 73.4087 87.7932 73.1427 87.6665 72.864C87.5398 72.56 87.4385 72.2687 87.3625 71.99C87.2865 71.686 87.2612 71.382 87.2865 71.078C87.3118 70.774 87.4258 70.47 87.6285 70.166C87.8312 69.786 88.0972 69.52 88.4265 69.368C88.7558 69.1907 89.0978 69.1147 89.4525 69.14C89.8325 69.14 90.1872 69.216 90.5165 69.368C90.8458 69.52 91.1118 69.7227 91.3145 69.976C91.7452 70.432 92.0872 70.9387 92.3405 71.496C92.5938 72.0533 92.8345 72.6233 93.0625 73.206C93.5438 74.2193 94.0378 75.2833 94.5445 76.398C95.0512 77.5127 95.5578 78.602 96.0645 79.666L98.0405 75.486C98.2432 75.0807 98.4205 74.688 98.5725 74.308C98.7499 73.928 98.9272 73.5607 99.1045 73.206C99.3072 72.7753 99.4972 72.332 99.6745 71.876C99.8772 71.42 100.105 71.002 100.359 70.622C100.409 70.5207 100.46 70.432 100.511 70.356C100.561 70.28 100.612 70.1913 100.663 70.09C100.891 69.786 101.093 69.5453 101.271 69.368C101.397 69.2667 101.499 69.1907 101.575 69.14C101.676 69.064 101.79 69.0133 101.917 68.988C102.094 68.9373 102.259 68.912 102.411 68.912C102.588 68.8867 102.753 68.8867 102.905 68.912C103.158 68.988 103.462 69.102 103.817 69.254C104.197 69.406 104.488 69.672 104.691 70.052Z" fill="white"/>
</svg>
