<svg width="242" height="108" viewBox="0 0 242 108" fill="none" xmlns="http://www.w3.org/2000/svg">
<path d="M28.1508 95.4368C14.922 101.341 1.27554e-05 91.6595 1.27554e-05 77.1731V20C1.27554e-05 8.95431 8.95432 5.126e-06 20 5.126e-06H148.11C169.695 5.126e-06 175.972 29.4672 156.261 38.2638L28.1508 95.4368Z" fill="#C10BA9"/>
<path d="M35.1964 21.56C36.9831 21.56 38.6097 21.7867 40.0764 22.24C41.5431 22.6667 42.7431 23.3067 43.6764 24.16C45.3564 25.68 46.5297 27.3467 47.1964 29.16C47.8897 30.9467 48.2364 33.24 48.2364 36.04C48.2364 36.9467 47.8097 38.4667 46.9564 40.6C46.4764 41.5333 45.9697 42.2667 45.4364 42.8C44.9297 43.3333 44.1431 43.9733 43.0764 44.72C43.9831 46.16 44.6897 47.1467 45.1964 47.68C45.7297 48.24 46.3297 48.52 46.9964 48.52C47.2097 48.52 47.3697 48.5067 47.4764 48.48C47.5564 48.4533 47.6764 48.44 47.8364 48.44C48.2097 48.44 48.5031 48.56 48.7164 48.8C48.9564 49.0667 49.0764 49.3733 49.0764 49.72C49.0764 49.9067 49.0231 50.1067 48.9164 50.32C48.8097 50.5333 48.6631 50.6933 48.4764 50.8C47.9697 51.12 47.5297 51.32 47.1564 51.4C46.7831 51.5067 46.1031 51.56 45.1164 51.56C44.0764 51.56 43.1431 51.0933 42.3164 50.16C41.5164 49.2533 40.6764 47.9867 39.7964 46.36C38.6497 46.7867 37.4897 47 36.3164 47C31.1697 47 27.5031 45.24 25.3164 41.72C24.7031 40.7333 24.2231 39.7067 23.8764 38.64C23.5564 37.5733 23.3964 36.5333 23.3964 35.52C23.3964 32.8 23.8764 30.4267 24.8364 28.4C25.8231 26.3733 27.1831 24.8133 28.9164 23.72C29.9297 23.08 30.9964 22.56 32.1164 22.16C33.2631 21.76 34.2897 21.56 35.1964 21.56ZM27.4764 35.52C27.4764 36.5067 27.6231 37.3867 27.9164 38.16C28.2364 38.9067 28.6897 39.6133 29.2764 40.28C29.7564 39.2667 30.4364 38.5067 31.3164 38C32.1964 37.4933 33.2364 37.24 34.4364 37.24C35.6897 37.24 36.7564 37.4667 37.6364 37.92C38.5164 38.3733 39.1697 38.8533 39.5964 39.36C40.0231 39.84 40.5564 40.5333 41.1964 41.44C43.0897 39.92 44.0364 37.7733 44.0364 35C44.0364 32.92 43.8097 31.3067 43.3564 30.16C42.9297 29.0133 42.1164 27.9467 40.9164 26.96C40.2764 26.4267 39.4764 26.0267 38.5164 25.76C37.5831 25.4933 36.5831 25.36 35.5164 25.36C33.8897 25.36 32.4631 25.8667 31.2364 26.88C30.0097 27.8667 29.0764 29.1467 28.4364 30.72C27.7964 32.2667 27.4764 33.8667 27.4764 35.52ZM35.1564 40.28C34.4097 40.28 33.7164 40.44 33.0764 40.76C32.4364 41.0533 31.9964 41.6133 31.7564 42.44L32.2764 42.84C32.8364 43.0533 33.3297 43.2133 33.7564 43.32C34.1831 43.4 34.6631 43.44 35.1964 43.44C36.0764 43.44 37.0231 43.2933 38.0364 43C37.5564 42.12 37.0764 41.4533 36.5964 41C36.1431 40.52 35.6631 40.28 35.1564 40.28ZM51.6608 33.52C51.4474 33.52 51.2474 33.44 51.0608 33.28C50.9008 33.0933 50.8208 32.88 50.8208 32.64C50.8208 32.0267 51.0874 31.4533 51.6208 30.92C51.7808 30.84 52.1008 30.7067 52.5808 30.52C53.0608 30.3333 53.4874 30.24 53.8608 30.24C54.8741 30.24 55.7008 30.52 56.3408 31.08C56.9808 31.6133 57.3008 32.3867 57.3008 33.4C57.3008 33.6933 57.2474 34.32 57.1408 35.28C57.0341 36.4 56.9808 37.2667 56.9808 37.88C56.9808 39.7467 57.2341 41.2533 57.7408 42.4C57.9274 42.7733 58.2208 43.0667 58.6208 43.28C59.0208 43.4933 59.3808 43.6 59.7008 43.6C60.4741 43.6 61.1008 43.4667 61.5808 43.2C62.0608 42.9333 62.5808 42.5067 63.1408 41.92C63.7008 41.3333 64.0608 40.6667 64.2208 39.92C64.4074 39.1733 64.5408 38.1467 64.6208 36.84C64.6741 35.9867 64.7274 35.36 64.7808 34.96C64.9141 33.68 64.9808 32.5867 64.9808 31.68C64.9808 31.0933 65.1408 30.6133 65.4608 30.24C65.7808 29.84 66.2208 29.64 66.7808 29.64C67.1008 29.64 67.4608 29.7467 67.8608 29.96C68.2874 30.1467 68.5674 30.3733 68.7008 30.64C68.8608 30.9067 68.9408 31.3467 68.9408 31.96C68.9408 32.28 68.9008 32.5867 68.8208 32.88C68.6341 33.5467 68.5408 34.3467 68.5408 35.28L68.5808 37.36C68.5808 39.2533 68.7141 40.6533 68.9808 41.56C69.1141 41.9867 69.3008 42.4267 69.5408 42.88C69.7808 43.3067 70.0074 43.6667 70.2208 43.96C70.7541 44.5467 71.1008 44.96 71.2608 45.2C71.4208 45.4133 71.5008 45.6267 71.5008 45.84C71.5008 46.16 71.3408 46.4667 71.0208 46.76C70.7274 47.0267 70.4074 47.16 70.0608 47.16C69.0741 47.16 68.2208 46.8267 67.5008 46.16C66.7808 45.4933 66.2474 44.6267 65.9008 43.56C64.9941 44.6 64.1541 45.44 63.3808 46.08C62.8474 46.4533 62.1941 46.7333 61.4208 46.92C60.6474 47.08 59.8741 47.16 59.1008 47.16C58.0608 47.16 57.0074 46.7333 55.9408 45.88C54.8741 45.0267 54.1541 44.04 53.7808 42.92C53.7541 42.8667 53.6741 42.6533 53.5408 42.28C53.4341 41.9067 53.3808 41.3467 53.3808 40.6C53.3808 39.6133 53.4341 38.3733 53.5408 36.88C53.6208 35.92 53.6608 35.04 53.6608 34.24C53.6608 34 53.5674 33.8 53.3808 33.64C53.2208 33.48 53.0341 33.4 52.8208 33.4C52.6608 33.4 52.4741 33.4267 52.2608 33.48C52.0741 33.5067 51.8741 33.52 51.6608 33.52ZM76.5702 21.32C77.5035 21.4 78.3168 21.6533 79.0102 22.08C79.7035 22.48 80.0502 23.0933 80.0502 23.92C80.0502 24.5333 79.7568 25.0267 79.1702 25.4C78.6102 25.7467 77.9302 25.92 77.1302 25.92C76.3568 25.92 75.8235 25.72 75.5302 25.32C75.2368 24.92 75.0902 24.5067 75.0902 24.08C75.0902 23.28 75.1702 22.6133 75.3302 22.08C75.5168 21.5467 75.9302 21.2933 76.5702 21.32ZM79.7702 39.04V40.2C79.7702 41.24 79.7968 42.2267 79.8502 43.16C79.9302 44.0667 80.0235 44.9867 80.1302 45.92C80.1302 46.24 79.9435 46.5333 79.5702 46.8C79.1968 47.04 78.8502 47.16 78.5302 47.16C78.0235 47.16 77.5035 47.0667 76.9702 46.88C76.4635 46.6667 76.1568 46.4133 76.0502 46.12C75.8902 45.2667 75.8102 44.5067 75.8102 43.84C75.8102 41.6533 75.7435 39.2 75.6102 36.48C75.5035 34.08 75.4502 32.4 75.4502 31.44C75.4502 30.96 75.6902 30.5467 76.1702 30.2C76.6502 29.8533 77.1568 29.68 77.6902 29.68C78.4635 29.68 78.9968 29.8533 79.2902 30.2C79.6102 30.5467 79.7702 31.0933 79.7702 31.84V39.04ZM84.7645 33.16C84.3912 33.1067 84.0845 32.9467 83.8445 32.68C83.6312 32.4133 83.5245 32.0933 83.5245 31.72C83.5245 31.5333 83.5645 31.3333 83.6445 31.12C83.7512 30.9067 83.8979 30.72 84.0845 30.56C84.4312 30.2133 85.3645 30.04 86.8845 30.04C87.0979 29 87.2045 27.9467 87.2045 26.88C87.2045 26.48 87.1912 26.1333 87.1645 25.84C87.1379 25.5467 87.1245 25.32 87.1245 25.16C87.1245 24.5733 87.3379 24.1333 87.7645 23.84C88.2179 23.5467 88.7245 23.4 89.2845 23.4C89.9779 23.4 90.4445 23.5733 90.6845 23.92C90.9512 24.2667 91.0845 24.9067 91.0845 25.84C91.0845 27.2267 90.9645 28.5867 90.7245 29.92C91.1512 29.92 91.7379 29.8933 92.4845 29.84C93.4979 29.7867 94.2312 29.76 94.6845 29.76C95.1379 29.76 95.5245 29.88 95.8445 30.12C96.1912 30.3333 96.3645 30.64 96.3645 31.04C96.3645 32.08 95.8979 32.6933 94.9645 32.88C93.9779 33.12 92.4445 33.2667 90.3645 33.32C90.2845 34.36 90.2445 35.4933 90.2445 36.72C90.2445 38.64 90.3645 40.2133 90.6045 41.44C90.7645 42.2933 91.0312 42.92 91.4045 43.32C91.8045 43.6933 92.3912 43.88 93.1645 43.88C93.6179 43.88 94.0845 43.76 94.5645 43.52C94.8845 43.3333 95.1779 43.24 95.4445 43.24C95.8179 43.24 96.0845 43.36 96.2445 43.6C96.4312 43.84 96.5245 44.16 96.5245 44.56C96.5245 45.3067 96.1245 45.9333 95.3245 46.44C94.5245 46.92 93.4979 47.16 92.2445 47.16C91.4712 47.16 90.6845 46.9733 89.8845 46.6C89.1112 46.2267 88.4579 45.76 87.9245 45.2C87.8445 45.12 87.6979 44.8133 87.4845 44.28C87.2712 43.7467 87.0845 43.1733 86.9245 42.56C86.6579 41.3067 86.5245 39.5467 86.5245 37.28C86.5245 36.2933 86.5779 34.9733 86.6845 33.32L84.7645 33.16Z" fill="white"/>
</svg>
