<svg width="312" height="355" viewBox="0 0 312 355" fill="none" xmlns="http://www.w3.org/2000/svg">
<path d="M110.932 51.2793C134.827 24.0914 177.173 24.0913 201.068 51.2793L277.189 137.891C297.098 160.544 297.098 194.456 277.189 217.109L201.068 303.721C177.173 330.909 134.827 330.909 110.932 303.721L34.8113 217.109C14.902 194.456 14.902 160.544 34.8113 137.891L110.932 51.2793Z" fill="#FDBFF5"/>
<path d="M108.769 140.34C108.769 139.767 109.189 139.48 110.029 139.48C110.389 139.48 111.075 139.493 112.089 139.52C113.209 139.573 114.055 139.6 114.629 139.6C115.095 139.6 115.662 139.573 116.329 139.52C116.782 139.493 117.069 139.48 117.189 139.48C117.922 139.507 118.542 139.64 119.049 139.88C119.195 139.947 119.315 140.027 119.409 140.12C119.502 140.213 119.549 140.367 119.549 140.58C119.549 140.873 119.455 141.127 119.269 141.34C119.082 141.54 118.855 141.64 118.589 141.64C118.295 141.64 117.869 141.6 117.309 141.52C116.815 141.427 116.382 141.38 116.009 141.38C115.649 141.38 115.375 141.387 115.189 141.4C115.149 141.84 115.129 142.893 115.129 144.56C115.129 146.547 115.189 148.56 115.309 150.6L115.349 151.18C115.349 151.727 115.035 152 114.409 152C113.915 152 113.582 151.887 113.409 151.66C113.235 151.42 113.149 151.06 113.149 150.58C113.149 149.633 113.122 148.453 113.069 147.04C113.015 145.867 112.989 145.033 112.989 144.54C112.989 144.207 113.029 143.187 113.109 141.48L110.769 141.5C110.022 141.5 109.502 141.433 109.209 141.3C108.915 141.153 108.769 140.833 108.769 140.34ZM118.687 147.76C118.687 147.253 118.78 146.747 118.967 146.24C119.154 145.72 119.4 145.247 119.707 144.82C120.014 144.393 120.5 144.047 121.167 143.78C121.834 143.5 122.427 143.36 122.947 143.36C123.48 143.36 124.02 143.433 124.567 143.58C125.127 143.727 125.514 143.953 125.727 144.26C126.22 144.953 126.467 145.633 126.467 146.3C126.467 146.66 126.387 146.967 126.227 147.22C126.08 147.473 125.867 147.747 125.587 148.04C125.36 148.28 125 148.44 124.507 148.52C124.027 148.6 123.547 148.64 123.067 148.64C122.76 148.64 122.387 148.613 121.947 148.56C121.507 148.493 121.08 148.413 120.667 148.32C120.694 148.587 120.76 148.847 120.867 149.1C120.974 149.353 121.1 149.547 121.247 149.68C121.514 149.933 121.787 150.093 122.067 150.16C122.36 150.227 122.734 150.26 123.187 150.26C123.667 150.26 124.114 150.18 124.527 150.02C124.86 149.9 125.134 149.84 125.347 149.84C125.6 149.84 125.794 149.92 125.927 150.08C126.06 150.227 126.127 150.42 126.127 150.66C126.127 150.993 125.934 151.267 125.547 151.48C125.16 151.693 124.714 151.853 124.207 151.96C123.714 152.053 123.314 152.1 123.007 152.1C122.38 152.1 121.774 151.987 121.187 151.76C120.6 151.533 120.114 151.213 119.727 150.8C119.407 150.427 119.154 149.98 118.967 149.46C118.78 148.927 118.687 148.36 118.687 147.76ZM123.047 145.06C122.754 145.06 122.46 145.12 122.167 145.24C121.874 145.347 121.634 145.5 121.447 145.7C121.207 145.953 121.04 146.16 120.947 146.32C120.867 146.467 120.814 146.673 120.787 146.94C121.12 147.047 121.814 147.1 122.867 147.1C123.44 147.1 123.88 147.013 124.187 146.84C124.507 146.667 124.667 146.44 124.667 146.16C124.667 145.88 124.494 145.627 124.147 145.4C123.8 145.173 123.434 145.06 123.047 145.06ZM135.978 152.08C135.525 152.08 135.178 152.013 134.938 151.88C134.698 151.733 134.438 151.467 134.158 151.08C133.812 151.387 133.292 151.633 132.598 151.82C131.918 152.007 131.332 152.1 130.838 152.1C130.025 152.1 129.365 151.88 128.858 151.44C128.365 150.987 128.118 150.327 128.118 149.46C128.118 149.087 128.218 148.747 128.418 148.44C128.632 148.12 128.905 147.84 129.238 147.6C129.612 147.347 130.052 147.147 130.558 147C131.078 146.853 131.552 146.78 131.978 146.78C132.698 146.78 133.338 146.847 133.898 146.98V146.96C133.898 146.24 133.718 145.747 133.358 145.48C133.012 145.2 132.452 145.06 131.678 145.06C131.185 145.06 130.758 145.28 130.398 145.72C130.265 145.893 129.985 145.98 129.558 145.98C129.345 145.98 129.185 145.893 129.078 145.72C128.985 145.533 128.938 145.347 128.938 145.16C128.938 144.773 129.098 144.44 129.418 144.16C129.752 143.88 130.152 143.673 130.618 143.54C131.085 143.393 131.518 143.32 131.918 143.32C132.305 143.32 132.765 143.4 133.298 143.56C133.832 143.72 134.265 143.933 134.598 144.2C134.998 144.547 135.305 144.953 135.518 145.42C135.745 145.873 135.858 146.373 135.858 146.92C135.858 147.093 135.845 147.353 135.818 147.7C135.792 148.1 135.778 148.427 135.778 148.68C135.778 148.8 135.765 148.953 135.738 149.14C135.712 149.38 135.698 149.58 135.698 149.74C135.698 149.913 135.752 150.08 135.858 150.24C135.965 150.4 136.112 150.533 136.298 150.64C136.472 150.733 136.585 150.833 136.638 150.94C136.692 151.047 136.718 151.167 136.718 151.3C136.718 151.433 136.632 151.6 136.458 151.8C136.298 151.987 136.138 152.08 135.978 152.08ZM131.978 148.26C131.458 148.26 130.998 148.36 130.598 148.56C130.198 148.76 129.998 149.113 129.998 149.62C129.998 149.873 130.085 150.087 130.258 150.26C130.445 150.433 130.645 150.52 130.858 150.52C131.432 150.52 131.912 150.46 132.298 150.34C132.685 150.22 133.152 150 133.698 149.68C133.765 149.467 133.805 149.167 133.818 148.78C133.818 148.633 133.825 148.52 133.838 148.44C133.118 148.32 132.498 148.26 131.978 148.26ZM150.842 151.3C150.642 150.927 150.515 150.513 150.462 150.06C150.409 149.593 150.382 148.953 150.382 148.14C150.382 147.367 150.275 146.693 150.062 146.12C149.849 145.547 149.409 145.26 148.742 145.26C148.489 145.26 148.235 145.34 147.982 145.5C147.742 145.647 147.562 145.833 147.442 146.06C147.255 146.42 147.129 146.813 147.062 147.24C146.995 147.653 146.962 148.133 146.962 148.68C146.962 149.027 146.982 149.38 147.022 149.74C147.022 149.847 147.029 150.02 147.042 150.26C147.069 150.487 147.082 150.693 147.082 150.88C147.082 151.68 146.802 152.08 146.242 152.08C145.509 152.08 145.122 151.693 145.082 150.92C145.082 150.373 145.089 150.08 145.102 150.04V149.18C145.102 148.7 145.082 148.233 145.042 147.78C145.002 147.327 144.955 146.987 144.902 146.76C144.782 146.32 144.622 145.98 144.422 145.74C144.235 145.5 143.935 145.38 143.522 145.38C142.935 145.38 142.462 145.633 142.102 146.14C141.849 146.54 141.682 147.027 141.602 147.6C141.522 148.333 141.462 148.913 141.422 149.34C141.395 149.753 141.382 150.233 141.382 150.78C141.382 151.167 141.315 151.48 141.182 151.72C141.062 151.96 140.829 152.08 140.482 152.08C140.229 152.08 139.962 152.013 139.682 151.88C139.415 151.733 139.282 151.54 139.282 151.3C139.282 151.047 139.309 150.793 139.362 150.54C139.482 149.78 139.542 148.42 139.542 146.46C139.542 146.14 139.462 145.833 139.302 145.54C139.155 145.233 138.975 145.08 138.762 145.08C138.709 145.08 138.609 145.107 138.462 145.16C138.329 145.213 138.229 145.24 138.162 145.24C137.989 145.24 137.829 145.16 137.682 145C137.549 144.84 137.482 144.707 137.482 144.6C137.482 144.267 137.642 143.987 137.962 143.76C138.295 143.52 138.642 143.4 139.002 143.4C139.495 143.4 139.915 143.553 140.262 143.86C140.609 144.167 140.875 144.593 141.062 145.14C141.369 144.607 141.782 144.18 142.302 143.86C142.822 143.527 143.402 143.36 144.042 143.36C144.442 143.36 144.762 143.413 145.002 143.52C145.255 143.613 145.462 143.753 145.622 143.94C145.782 144.113 145.989 144.38 146.242 144.74C146.575 144.313 147.002 143.98 147.522 143.74C148.055 143.5 148.602 143.38 149.162 143.38C149.829 143.38 150.429 143.653 150.962 144.2C151.495 144.733 151.855 145.353 152.042 146.06C152.135 146.42 152.182 147.113 152.182 148.14L152.262 149.3C152.329 149.993 152.555 150.413 152.942 150.56C153.395 150.693 153.622 150.833 153.622 150.98C153.622 151.3 153.542 151.533 153.382 151.68C153.262 151.76 153.095 151.847 152.882 151.94C152.669 152.033 152.502 152.08 152.382 152.08C151.662 152.08 151.149 151.82 150.842 151.3ZM165.411 139.28C166.304 139.28 167.117 139.393 167.851 139.62C168.584 139.833 169.184 140.153 169.651 140.58C170.491 141.34 171.077 142.173 171.411 143.08C171.757 143.973 171.931 145.12 171.931 146.52C171.931 146.813 171.891 147.08 171.811 147.32C171.744 147.56 171.631 147.867 171.471 148.24C171.271 148.653 171.151 148.98 171.111 149.22C170.844 149.687 170.404 150.133 169.791 150.56C169.191 150.987 168.537 151.333 167.831 151.6C167.124 151.867 166.504 152 165.971 152C163.397 152 161.564 151.12 160.471 149.36C160.164 148.867 159.924 148.353 159.751 147.82C159.591 147.287 159.511 146.767 159.511 146.26C159.511 144.9 159.751 143.72 160.231 142.72C160.724 141.707 161.404 140.92 162.271 140.36C162.791 140.053 163.331 139.8 163.891 139.6C164.464 139.387 164.971 139.28 165.411 139.28ZM161.591 146.32C161.591 147.04 161.751 147.633 162.071 148.1C162.404 148.567 162.911 149.073 163.591 149.62C164.151 149.833 164.531 149.973 164.731 150.04C164.931 150.093 165.157 150.12 165.411 150.12C166.757 150.12 167.831 149.753 168.631 149.02C169.431 148.287 169.831 147.28 169.831 146C169.831 144.987 169.717 144.187 169.491 143.6C169.264 143.013 168.857 142.487 168.271 142.02C167.964 141.767 167.571 141.58 167.091 141.46C166.624 141.34 166.117 141.28 165.571 141.28C164.744 141.28 164.031 141.527 163.431 142.02C162.831 142.5 162.371 143.127 162.051 143.9C161.744 144.673 161.591 145.48 161.591 146.32ZM182.303 151.9C182.023 151.9 181.756 151.82 181.503 151.66C181.263 151.487 181.05 151.307 180.863 151.12C180.676 150.92 180.55 150.787 180.483 150.72C180.203 151.12 179.796 151.447 179.263 151.7C178.73 151.953 178.216 152.08 177.723 152.08C176.963 152.08 176.29 151.92 175.703 151.6C175.116 151.28 174.663 150.847 174.343 150.3C174.023 149.74 173.863 149.12 173.863 148.44C173.863 147.8 173.936 147.187 174.083 146.6C174.243 146 174.456 145.5 174.723 145.1C175.083 144.593 175.563 144.193 176.163 143.9C176.776 143.607 177.383 143.46 177.983 143.46C178.343 143.46 178.683 143.527 179.003 143.66C179.323 143.793 179.603 143.96 179.843 144.16C179.843 143.28 179.836 142.727 179.823 142.5V142.06C179.823 140.807 179.903 139.893 180.063 139.32C180.21 138.76 180.57 138.48 181.143 138.48C181.45 138.48 181.676 138.547 181.823 138.68C181.97 138.813 182.043 139.067 182.043 139.44C182.043 139.573 182.01 139.94 181.943 140.54C181.796 142.033 181.723 143.527 181.723 145.02C181.723 146.273 181.743 147.207 181.783 147.82C181.836 148.42 181.936 148.9 182.083 149.26C182.243 149.62 182.49 149.94 182.823 150.22C183.023 150.38 183.163 150.513 183.243 150.62C183.336 150.727 183.383 150.867 183.383 151.04C183.383 151.253 183.276 151.453 183.063 151.64C182.85 151.813 182.596 151.9 182.303 151.9ZM177.663 150.46C178.37 150.46 178.89 150.24 179.223 149.8C179.57 149.347 179.743 148.773 179.743 148.08L179.723 146.96C179.71 146.747 179.703 146.46 179.703 146.1C179.21 145.513 178.676 145.22 178.103 145.22C177.716 145.22 177.35 145.32 177.003 145.52C176.67 145.72 176.396 146.013 176.183 146.4C175.956 146.84 175.843 147.507 175.843 148.4C175.843 149.013 176.023 149.513 176.383 149.9C176.743 150.273 177.17 150.46 177.663 150.46ZM192.706 139.48C192.706 139.613 192.686 139.78 192.646 139.98C192.633 140.06 192.619 140.147 192.606 140.24C192.593 140.333 192.579 140.447 192.566 140.58C192.446 141.78 192.386 143.267 192.386 145.04C192.386 146.72 192.459 147.967 192.606 148.78C192.753 149.593 192.979 150.08 193.286 150.24L193.666 150.4C193.866 150.467 194.013 150.54 194.106 150.62C194.213 150.7 194.266 150.833 194.266 151.02C194.266 151.287 194.126 151.52 193.846 151.72C193.566 151.907 193.259 152 192.926 152C192.579 152 192.239 151.86 191.906 151.58C191.573 151.287 191.299 150.92 191.086 150.48C190.859 150.96 190.459 151.347 189.886 151.64C189.313 151.92 188.766 152.06 188.246 152.06C187.779 152.06 187.373 152 187.026 151.88C186.679 151.747 186.319 151.547 185.946 151.28C185.493 150.96 185.146 150.553 184.906 150.06C184.679 149.567 184.566 149.027 184.566 148.44C184.566 147.853 184.679 147.233 184.906 146.58C185.133 145.913 185.393 145.367 185.686 144.94C186.033 144.447 186.493 144.08 187.066 143.84C187.639 143.587 188.233 143.46 188.846 143.46C189.193 143.46 189.493 143.527 189.746 143.66C189.999 143.78 190.259 143.953 190.526 144.18C190.526 143.513 190.513 142.953 190.486 142.5C190.473 142.38 190.466 142.24 190.466 142.08C190.466 140.933 190.559 140.027 190.746 139.36C190.893 138.8 191.246 138.52 191.806 138.52C192.113 138.52 192.339 138.587 192.486 138.72C192.633 138.853 192.706 139.107 192.706 139.48ZM186.506 148.4C186.506 149.08 186.726 149.6 187.166 149.96C187.366 150.147 187.533 150.273 187.666 150.34C187.799 150.407 187.966 150.44 188.166 150.44C188.553 150.44 188.919 150.333 189.266 150.12C189.626 149.893 189.906 149.6 190.106 149.24C190.319 148.88 190.426 148.493 190.426 148.08L190.406 146.1C190.126 145.78 189.866 145.56 189.626 145.44C189.399 145.307 189.159 145.24 188.906 145.24C188.053 145.24 187.466 145.567 187.146 146.22C186.973 146.527 186.819 146.873 186.686 147.26C186.566 147.647 186.506 148.027 186.506 148.4ZM201.205 147.5C201.312 147.567 201.518 147.693 201.825 147.88C202.145 148.053 202.358 148.26 202.465 148.5C202.572 148.74 202.625 149.073 202.625 149.5C202.625 149.98 202.485 150.407 202.205 150.78C201.925 151.14 201.565 151.42 201.125 151.62C200.805 151.767 200.412 151.88 199.945 151.96C199.492 152.04 199.132 152.08 198.865 152.08C198.598 152.08 198.252 152.04 197.825 151.96C197.412 151.88 197.125 151.807 196.965 151.74C196.552 151.5 196.192 151.207 195.885 150.86C195.592 150.513 195.445 150.16 195.445 149.8C195.445 149.533 195.532 149.327 195.705 149.18C195.878 149.02 196.105 148.94 196.385 148.94C196.518 148.94 196.658 148.993 196.805 149.1C196.952 149.193 197.052 149.293 197.105 149.4C197.252 149.747 197.498 150.007 197.845 150.18C198.192 150.353 198.545 150.44 198.905 150.44C199.372 150.44 199.805 150.367 200.205 150.22C200.605 150.06 200.805 149.847 200.805 149.58C200.805 149.46 200.772 149.367 200.705 149.3C200.652 149.22 200.572 149.14 200.465 149.06C200.278 148.927 199.998 148.82 199.625 148.74C199.252 148.647 199.012 148.587 198.905 148.56C198.358 148.44 197.825 148.26 197.305 148.02C196.785 147.767 196.372 147.467 196.065 147.12C195.758 146.773 195.605 146.327 195.605 145.78C195.605 145.42 195.738 145.047 196.005 144.66C196.272 144.26 196.572 143.98 196.905 143.82C197.145 143.727 197.545 143.627 198.105 143.52C198.678 143.413 199.065 143.36 199.265 143.36C199.572 143.36 199.905 143.393 200.265 143.46C200.625 143.513 200.898 143.607 201.085 143.74C201.445 143.953 201.738 144.18 201.965 144.42C202.192 144.647 202.305 144.907 202.305 145.2C202.305 145.347 202.272 145.507 202.205 145.68C202.138 145.84 202.058 145.94 201.965 145.98C201.765 146.073 201.532 146.12 201.265 146.12C201.145 146.12 201.045 146.087 200.965 146.02C200.898 145.953 200.805 145.847 200.685 145.7C200.538 145.473 200.398 145.34 200.265 145.3C200.105 145.26 199.872 145.213 199.565 145.16C199.258 145.093 199.052 145.06 198.945 145.06C198.638 145.06 198.318 145.147 197.985 145.32C197.665 145.493 197.505 145.693 197.505 145.92C197.505 146.04 197.552 146.133 197.645 146.2C197.752 146.267 197.858 146.327 197.965 146.38C198.085 146.433 198.165 146.467 198.205 146.48C198.485 146.613 198.792 146.727 199.125 146.82C199.472 146.913 199.685 146.973 199.765 147C200.485 147.173 200.965 147.34 201.205 147.5Z" fill="black"/>
<path d="M106.161 205.34C106.161 204.767 106.581 204.48 107.421 204.48C107.781 204.48 108.468 204.493 109.481 204.52C110.601 204.573 111.448 204.6 112.021 204.6C112.488 204.6 113.055 204.573 113.721 204.52C114.175 204.493 114.461 204.48 114.581 204.48C115.315 204.507 115.935 204.64 116.441 204.88C116.588 204.947 116.708 205.027 116.801 205.12C116.895 205.213 116.941 205.367 116.941 205.58C116.941 205.873 116.848 206.127 116.661 206.34C116.475 206.54 116.248 206.64 115.981 206.64C115.688 206.64 115.261 206.6 114.701 206.52C114.208 206.427 113.775 206.38 113.401 206.38C113.041 206.38 112.768 206.387 112.581 206.4C112.541 206.84 112.521 207.893 112.521 209.56C112.521 211.547 112.581 213.56 112.701 215.6L112.741 216.18C112.741 216.727 112.428 217 111.801 217C111.308 217 110.975 216.887 110.801 216.66C110.628 216.42 110.541 216.06 110.541 215.58C110.541 214.633 110.515 213.453 110.461 212.04C110.408 210.867 110.381 210.033 110.381 209.54C110.381 209.207 110.421 208.187 110.501 206.48L108.161 206.5C107.415 206.5 106.895 206.433 106.601 206.3C106.308 206.153 106.161 205.833 106.161 205.34ZM116.08 212.76C116.08 212.253 116.173 211.747 116.36 211.24C116.546 210.72 116.793 210.247 117.1 209.82C117.406 209.393 117.893 209.047 118.56 208.78C119.226 208.5 119.82 208.36 120.34 208.36C120.873 208.36 121.413 208.433 121.96 208.58C122.52 208.727 122.906 208.953 123.12 209.26C123.613 209.953 123.86 210.633 123.86 211.3C123.86 211.66 123.78 211.967 123.62 212.22C123.473 212.473 123.26 212.747 122.98 213.04C122.753 213.28 122.393 213.44 121.9 213.52C121.42 213.6 120.94 213.64 120.46 213.64C120.153 213.64 119.78 213.613 119.34 213.56C118.9 213.493 118.473 213.413 118.06 213.32C118.086 213.587 118.153 213.847 118.26 214.1C118.366 214.353 118.493 214.547 118.64 214.68C118.906 214.933 119.18 215.093 119.46 215.16C119.753 215.227 120.126 215.26 120.58 215.26C121.06 215.26 121.506 215.18 121.92 215.02C122.253 214.9 122.526 214.84 122.74 214.84C122.993 214.84 123.186 214.92 123.32 215.08C123.453 215.227 123.52 215.42 123.52 215.66C123.52 215.993 123.326 216.267 122.94 216.48C122.553 216.693 122.106 216.853 121.6 216.96C121.106 217.053 120.706 217.1 120.4 217.1C119.773 217.1 119.166 216.987 118.58 216.76C117.993 216.533 117.506 216.213 117.12 215.8C116.8 215.427 116.546 214.98 116.36 214.46C116.173 213.927 116.08 213.36 116.08 212.76ZM120.44 210.06C120.146 210.06 119.853 210.12 119.56 210.24C119.266 210.347 119.026 210.5 118.84 210.7C118.6 210.953 118.433 211.16 118.34 211.32C118.26 211.467 118.206 211.673 118.18 211.94C118.513 212.047 119.206 212.1 120.26 212.1C120.833 212.1 121.273 212.013 121.58 211.84C121.9 211.667 122.06 211.44 122.06 211.16C122.06 210.88 121.886 210.627 121.54 210.4C121.193 210.173 120.826 210.06 120.44 210.06ZM133.371 217.08C132.918 217.08 132.571 217.013 132.331 216.88C132.091 216.733 131.831 216.467 131.551 216.08C131.204 216.387 130.684 216.633 129.991 216.82C129.311 217.007 128.724 217.1 128.231 217.1C127.418 217.1 126.758 216.88 126.251 216.44C125.758 215.987 125.511 215.327 125.511 214.46C125.511 214.087 125.611 213.747 125.811 213.44C126.024 213.12 126.298 212.84 126.631 212.6C127.004 212.347 127.444 212.147 127.951 212C128.471 211.853 128.944 211.78 129.371 211.78C130.091 211.78 130.731 211.847 131.291 211.98V211.96C131.291 211.24 131.111 210.747 130.751 210.48C130.404 210.2 129.844 210.06 129.071 210.06C128.578 210.06 128.151 210.28 127.791 210.72C127.658 210.893 127.378 210.98 126.951 210.98C126.738 210.98 126.578 210.893 126.471 210.72C126.378 210.533 126.331 210.347 126.331 210.16C126.331 209.773 126.491 209.44 126.811 209.16C127.144 208.88 127.544 208.673 128.011 208.54C128.478 208.393 128.911 208.32 129.311 208.32C129.698 208.32 130.158 208.4 130.691 208.56C131.224 208.72 131.658 208.933 131.991 209.2C132.391 209.547 132.698 209.953 132.911 210.42C133.138 210.873 133.251 211.373 133.251 211.92C133.251 212.093 133.238 212.353 133.211 212.7C133.184 213.1 133.171 213.427 133.171 213.68C133.171 213.8 133.158 213.953 133.131 214.14C133.104 214.38 133.091 214.58 133.091 214.74C133.091 214.913 133.144 215.08 133.251 215.24C133.358 215.4 133.504 215.533 133.691 215.64C133.864 215.733 133.978 215.833 134.031 215.94C134.084 216.047 134.111 216.167 134.111 216.3C134.111 216.433 134.024 216.6 133.851 216.8C133.691 216.987 133.531 217.08 133.371 217.08ZM129.371 213.26C128.851 213.26 128.391 213.36 127.991 213.56C127.591 213.76 127.391 214.113 127.391 214.62C127.391 214.873 127.478 215.087 127.651 215.26C127.838 215.433 128.038 215.52 128.251 215.52C128.824 215.52 129.304 215.46 129.691 215.34C130.078 215.22 130.544 215 131.091 214.68C131.158 214.467 131.198 214.167 131.211 213.78C131.211 213.633 131.218 213.52 131.231 213.44C130.511 213.32 129.891 213.26 129.371 213.26ZM148.235 216.3C148.035 215.927 147.908 215.513 147.855 215.06C147.801 214.593 147.775 213.953 147.775 213.14C147.775 212.367 147.668 211.693 147.455 211.12C147.241 210.547 146.801 210.26 146.135 210.26C145.881 210.26 145.628 210.34 145.375 210.5C145.135 210.647 144.955 210.833 144.835 211.06C144.648 211.42 144.521 211.813 144.455 212.24C144.388 212.653 144.355 213.133 144.355 213.68C144.355 214.027 144.375 214.38 144.415 214.74C144.415 214.847 144.421 215.02 144.435 215.26C144.461 215.487 144.475 215.693 144.475 215.88C144.475 216.68 144.195 217.08 143.635 217.08C142.901 217.08 142.515 216.693 142.475 215.92C142.475 215.373 142.481 215.08 142.495 215.04V214.18C142.495 213.7 142.475 213.233 142.435 212.78C142.395 212.327 142.348 211.987 142.295 211.76C142.175 211.32 142.015 210.98 141.815 210.74C141.628 210.5 141.328 210.38 140.915 210.38C140.328 210.38 139.855 210.633 139.495 211.14C139.241 211.54 139.075 212.027 138.995 212.6C138.915 213.333 138.855 213.913 138.815 214.34C138.788 214.753 138.775 215.233 138.775 215.78C138.775 216.167 138.708 216.48 138.575 216.72C138.455 216.96 138.221 217.08 137.875 217.08C137.621 217.08 137.355 217.013 137.075 216.88C136.808 216.733 136.675 216.54 136.675 216.3C136.675 216.047 136.701 215.793 136.755 215.54C136.875 214.78 136.935 213.42 136.935 211.46C136.935 211.14 136.855 210.833 136.695 210.54C136.548 210.233 136.368 210.08 136.155 210.08C136.101 210.08 136.001 210.107 135.855 210.16C135.721 210.213 135.621 210.24 135.555 210.24C135.381 210.24 135.221 210.16 135.075 210C134.941 209.84 134.875 209.707 134.875 209.6C134.875 209.267 135.035 208.987 135.355 208.76C135.688 208.52 136.035 208.4 136.395 208.4C136.888 208.4 137.308 208.553 137.655 208.86C138.001 209.167 138.268 209.593 138.455 210.14C138.761 209.607 139.175 209.18 139.695 208.86C140.215 208.527 140.795 208.36 141.435 208.36C141.835 208.36 142.155 208.413 142.395 208.52C142.648 208.613 142.855 208.753 143.015 208.94C143.175 209.113 143.381 209.38 143.635 209.74C143.968 209.313 144.395 208.98 144.915 208.74C145.448 208.5 145.995 208.38 146.555 208.38C147.221 208.38 147.821 208.653 148.355 209.2C148.888 209.733 149.248 210.353 149.435 211.06C149.528 211.42 149.575 212.113 149.575 213.14L149.655 214.3C149.721 214.993 149.948 215.413 150.335 215.56C150.788 215.693 151.015 215.833 151.015 215.98C151.015 216.3 150.935 216.533 150.775 216.68C150.655 216.76 150.488 216.847 150.275 216.94C150.061 217.033 149.895 217.08 149.775 217.08C149.055 217.08 148.541 216.82 148.235 216.3ZM165.503 214.28C165.757 214.28 165.943 214.38 166.063 214.58C166.197 214.767 166.263 214.973 166.263 215.2C166.263 215.48 166.217 215.68 166.123 215.8C166.043 215.907 165.883 216.02 165.643 216.14C165.083 216.407 164.39 216.62 163.563 216.78C162.737 216.94 161.85 217.02 160.903 217.02C159.717 217.02 158.843 216.82 158.283 216.42C157.737 216.02 157.397 215.54 157.263 214.98C157.143 214.407 157.083 213.66 157.083 212.74C157.083 211.753 157.123 210.787 157.203 209.84C157.283 208.88 157.423 207.66 157.623 206.18C157.717 205.54 157.97 205.08 158.383 204.8C158.797 204.507 159.25 204.36 159.743 204.36C160.157 204.36 160.83 204.347 161.763 204.32L163.503 204.3C164.223 204.3 164.743 204.32 165.063 204.36C165.463 204.44 165.757 204.533 165.943 204.64C166.143 204.733 166.243 204.9 166.243 205.14C166.243 205.407 166.15 205.667 165.963 205.92C165.79 206.173 165.523 206.3 165.163 206.3C164.75 206.3 164.157 206.273 163.383 206.22C162.61 206.167 162.03 206.14 161.643 206.14C161.31 206.14 160.983 206.16 160.663 206.2C160.29 206.227 160.023 206.273 159.863 206.34C159.703 206.407 159.61 206.52 159.583 206.68C159.397 208.053 159.303 209.067 159.303 209.72C159.61 209.76 159.91 209.78 160.203 209.78C160.577 209.78 160.977 209.76 161.403 209.72C161.83 209.68 162.103 209.653 162.223 209.64C162.93 209.573 163.537 209.54 164.043 209.54C164.337 209.54 164.557 209.593 164.703 209.7C164.863 209.807 164.943 209.953 164.943 210.14C164.943 210.433 164.863 210.66 164.703 210.82C164.557 210.98 164.29 211.1 163.903 211.18C163.437 211.273 162.857 211.347 162.163 211.4C161.483 211.453 160.817 211.48 160.163 211.48C159.937 211.48 159.623 211.467 159.223 211.44C159.183 212.253 159.163 213.007 159.163 213.7C159.163 214.647 159.79 215.12 161.043 215.12C161.71 215.12 162.263 215.073 162.703 214.98C163.143 214.887 163.65 214.753 164.223 214.58C164.757 214.38 165.183 214.28 165.503 214.28ZM172.598 211.86C172.638 211.753 172.778 211.367 173.018 210.7C173.272 210.033 173.505 209.527 173.718 209.18C174.065 208.633 174.372 208.36 174.638 208.36C175.012 208.36 175.298 208.433 175.498 208.58C175.698 208.713 175.798 208.907 175.798 209.16C175.798 209.28 175.745 209.447 175.638 209.66C175.545 209.873 175.492 210 175.478 210.04C174.945 211.213 174.465 212.473 174.038 213.82L173.618 215.38C173.458 215.887 173.185 216.3 172.798 216.62C172.412 216.927 171.958 217.08 171.438 217.08C170.972 217.08 170.538 216.867 170.138 216.44C169.898 216.067 169.645 215.593 169.378 215.02C169.125 214.447 168.905 213.887 168.718 213.34L168.018 211.24C167.872 210.827 167.752 210.473 167.658 210.18C167.578 209.887 167.538 209.62 167.538 209.38C167.525 209.1 167.605 208.873 167.778 208.7C167.952 208.527 168.192 208.44 168.498 208.44C168.845 208.44 169.092 208.513 169.238 208.66C169.385 208.793 169.518 209.007 169.638 209.3C169.692 209.607 169.838 210.233 170.078 211.18L170.218 211.74C170.338 212.193 170.492 212.653 170.678 213.12C170.865 213.587 171.052 214.033 171.238 214.46C171.212 214.393 171.305 214.613 171.518 215.12C171.652 214.733 171.805 214.26 171.978 213.7L172.598 211.86ZM177.056 212.48C177.056 212 177.143 211.553 177.316 211.14C177.49 210.713 177.743 210.273 178.076 209.82C178.41 209.367 178.87 209.013 179.456 208.76C180.043 208.493 180.683 208.36 181.376 208.36C181.91 208.36 182.423 208.473 182.916 208.7C183.423 208.913 183.876 209.18 184.276 209.5C184.33 209.593 184.423 209.767 184.556 210.02C184.69 210.26 184.783 210.48 184.836 210.68C184.903 210.88 184.936 211.087 184.936 211.3C184.936 212.193 184.61 212.793 183.956 213.1C183.303 213.393 182.476 213.54 181.476 213.54C180.476 213.54 179.663 213.473 179.036 213.34C179.063 213.593 179.13 213.847 179.236 214.1C179.343 214.353 179.47 214.547 179.616 214.68C179.883 214.933 180.143 215.1 180.396 215.18C180.663 215.247 181.016 215.28 181.456 215.28C182.123 215.28 182.643 215.153 183.016 214.9C183.363 214.673 183.63 214.56 183.816 214.56C184.07 214.56 184.263 214.64 184.396 214.8C184.53 214.947 184.596 215.14 184.596 215.38C184.596 215.887 184.27 216.3 183.616 216.62C182.976 216.94 182.25 217.1 181.436 217.1C180.796 217.1 180.163 216.987 179.536 216.76C178.91 216.533 178.41 216.213 178.036 215.8C177.783 215.373 177.556 214.853 177.356 214.24C177.156 213.627 177.056 213.04 177.056 212.48ZM181.456 210C181.163 210 180.856 210.053 180.536 210.16C180.23 210.253 179.99 210.4 179.816 210.6C179.603 210.827 179.443 211.033 179.336 211.22C179.243 211.407 179.183 211.64 179.156 211.92C179.303 211.92 179.443 211.927 179.576 211.94C179.71 211.953 179.836 211.967 179.956 211.98C180.543 212.033 180.983 212.06 181.276 212.06C181.863 212.06 182.31 211.973 182.616 211.8C182.936 211.627 183.096 211.393 183.096 211.1C183.096 210.82 182.916 210.567 182.556 210.34C182.21 210.113 181.843 210 181.456 210ZM195.985 215.46C196.051 215.487 196.158 215.52 196.305 215.56C196.451 215.6 196.558 215.64 196.625 215.68C196.691 215.72 196.725 215.78 196.725 215.86C196.738 216.18 196.618 216.447 196.365 216.66C196.125 216.86 195.838 216.96 195.505 216.96C194.985 216.96 194.578 216.82 194.285 216.54C193.991 216.26 193.778 215.833 193.645 215.26C193.591 215.033 193.565 214.72 193.565 214.32C193.565 214.093 193.578 213.727 193.605 213.22C193.631 212.687 193.645 212.26 193.645 211.94C193.645 211.367 193.585 210.933 193.465 210.64C193.345 210.333 193.058 210.18 192.605 210.18C192.138 210.18 191.718 210.367 191.345 210.74C190.985 211.113 190.678 211.673 190.425 212.42C190.078 213.46 189.885 214.84 189.845 216.56C189.845 216.653 189.745 216.767 189.545 216.9C189.358 217.02 189.131 217.08 188.865 217.08C188.371 217.08 188.065 216.82 187.945 216.3L187.925 215.96C187.925 215.84 187.938 215.7 187.965 215.54C188.125 214.607 188.205 213.793 188.205 213.1C188.205 212.793 188.198 212.553 188.185 212.38L188.165 211.44C188.165 211.12 188.085 210.813 187.925 210.52C187.765 210.213 187.578 210.06 187.365 210.06C187.298 210.06 187.205 210.087 187.085 210.14C186.965 210.18 186.865 210.2 186.785 210.2C186.651 210.2 186.505 210.133 186.345 210C186.198 209.867 186.125 209.727 186.125 209.58C186.125 209.3 186.218 209.073 186.405 208.9C186.605 208.74 186.798 208.613 186.985 208.52C187.185 208.427 187.411 208.38 187.665 208.38C187.878 208.38 188.051 208.4 188.185 208.44C188.318 208.48 188.498 208.567 188.725 208.7C188.858 208.767 189.011 208.953 189.185 209.26C189.358 209.567 189.491 210 189.585 210.56C189.851 210.067 190.298 209.547 190.925 209C191.391 208.573 192.065 208.36 192.945 208.36C193.745 208.36 194.378 208.653 194.845 209.24C195.311 209.813 195.545 210.607 195.545 211.62C195.545 211.82 195.531 212.147 195.505 212.6C195.465 212.96 195.445 213.34 195.445 213.74C195.445 214.673 195.625 215.247 195.985 215.46ZM203.812 212.5C203.919 212.567 204.126 212.693 204.432 212.88C204.752 213.053 204.966 213.26 205.072 213.5C205.179 213.74 205.232 214.073 205.232 214.5C205.232 214.98 205.092 215.407 204.812 215.78C204.532 216.14 204.172 216.42 203.732 216.62C203.412 216.767 203.019 216.88 202.552 216.96C202.099 217.04 201.739 217.08 201.472 217.08C201.206 217.08 200.859 217.04 200.432 216.96C200.019 216.88 199.732 216.807 199.572 216.74C199.159 216.5 198.799 216.207 198.492 215.86C198.199 215.513 198.052 215.16 198.052 214.8C198.052 214.533 198.139 214.327 198.312 214.18C198.486 214.02 198.712 213.94 198.992 213.94C199.126 213.94 199.266 213.993 199.412 214.1C199.559 214.193 199.659 214.293 199.712 214.4C199.859 214.747 200.106 215.007 200.452 215.18C200.799 215.353 201.152 215.44 201.512 215.44C201.979 215.44 202.412 215.367 202.812 215.22C203.212 215.06 203.412 214.847 203.412 214.58C203.412 214.46 203.379 214.367 203.312 214.3C203.259 214.22 203.179 214.14 203.072 214.06C202.886 213.927 202.606 213.82 202.232 213.74C201.859 213.647 201.619 213.587 201.512 213.56C200.966 213.44 200.432 213.26 199.912 213.02C199.392 212.767 198.979 212.467 198.672 212.12C198.366 211.773 198.212 211.327 198.212 210.78C198.212 210.42 198.346 210.047 198.612 209.66C198.879 209.26 199.179 208.98 199.512 208.82C199.752 208.727 200.152 208.627 200.712 208.52C201.286 208.413 201.672 208.36 201.872 208.36C202.179 208.36 202.512 208.393 202.872 208.46C203.232 208.513 203.506 208.607 203.692 208.74C204.052 208.953 204.346 209.18 204.572 209.42C204.799 209.647 204.912 209.907 204.912 210.2C204.912 210.347 204.879 210.507 204.812 210.68C204.746 210.84 204.666 210.94 204.572 210.98C204.372 211.073 204.139 211.12 203.872 211.12C203.752 211.12 203.652 211.087 203.572 211.02C203.506 210.953 203.412 210.847 203.292 210.7C203.146 210.473 203.006 210.34 202.872 210.3C202.712 210.26 202.479 210.213 202.172 210.16C201.866 210.093 201.659 210.06 201.552 210.06C201.246 210.06 200.926 210.147 200.592 210.32C200.272 210.493 200.112 210.693 200.112 210.92C200.112 211.04 200.159 211.133 200.252 211.2C200.359 211.267 200.466 211.327 200.572 211.38C200.692 211.433 200.772 211.467 200.812 211.48C201.092 211.613 201.399 211.727 201.732 211.82C202.079 211.913 202.292 211.973 202.372 212C203.092 212.173 203.572 212.34 203.812 212.5Z" fill="black"/>
</svg>
