<svg width="318" height="295" viewBox="0 0 318 295" fill="none" xmlns="http://www.w3.org/2000/svg">
<path d="M120.47 16.8838C134.665 10.6635 141.763 7.55334 149.133 6.32456C155.666 5.23542 162.334 5.23542 168.867 6.32456C176.237 7.55334 183.335 10.6635 197.53 16.8837L274.277 50.5139C281.787 53.8049 285.542 55.4504 288.785 57.3891C304.614 66.8511 315.212 83.0664 317.526 101.362C318 105.111 318 109.21 318 117.41C318 125.859 318 130.084 317.502 133.927C315.067 152.698 303.917 169.219 287.42 178.5C284.043 180.401 280.125 181.981 272.29 185.142L131.919 241.776C87.7425 259.6 65.6544 268.511 47.9152 264.864C32.4034 261.674 18.7816 252.481 10.0199 239.289C0 224.203 0 200.385 0 152.749V132.419C0 109.715 0 98.363 3.58312 88.4653C6.75019 79.7169 11.9084 71.8249 18.6501 65.4129C26.2775 58.1586 36.675 53.6025 57.47 44.4902L120.47 16.8838Z" fill="#FDBFF5"/>
<path d="M70.1883 187.336C69.7616 195.699 69.5483 202.355 69.5483 207.304C69.5483 209.864 69.6123 212.296 69.7403 214.6C70.0816 214.856 70.7429 214.984 71.7243 214.984L73.1963 214.92C73.7936 214.835 74.3483 214.792 74.8603 214.792C75.9696 214.792 76.8229 214.984 77.4203 215.368C78.0603 215.752 78.3803 216.499 78.3803 217.608C78.3803 218.675 78.0603 219.507 77.4203 220.104C76.8229 220.701 75.5643 221 73.6443 221C72.0229 221 70.0603 220.872 67.7563 220.616C67.2016 220.573 66.6683 220.531 66.1562 220.488C65.6443 220.445 65.1749 220.424 64.7483 220.424C62.4016 220.467 60.6523 220.552 59.5003 220.68C58.3483 220.808 57.0469 220.872 55.5963 220.872C54.2736 220.872 53.6123 219.869 53.6123 217.864C53.6123 215.944 54.8496 214.984 57.3243 214.984C57.7083 214.984 58.3269 215.027 59.1803 215.112C59.9056 215.24 60.6736 215.304 61.4843 215.304C61.9536 215.304 62.3376 215.283 62.6363 215.24C62.6789 212.381 62.8283 208.221 63.0843 202.76C63.3403 196.36 63.4683 191.624 63.4683 188.552C63.2549 188.595 62.5083 188.893 61.2283 189.448C59.2656 190.429 57.8149 190.92 56.8763 190.92C56.3643 190.92 55.8949 190.664 55.4683 190.152C55.0416 189.597 54.8283 188.957 54.8283 188.232C54.8283 187.507 55.2763 186.803 56.1723 186.12C57.0683 185.437 58.5189 184.541 60.5243 183.432C61.6336 182.877 62.7003 182.259 63.7243 181.576C63.9803 181.405 64.3429 181.235 64.8123 181.064C65.3243 180.893 65.7083 180.808 65.9643 180.808C67.0736 180.808 68.0763 181.043 68.9722 181.512C69.9109 181.939 70.3803 182.515 70.3803 183.24L70.1883 187.336Z" fill="#F335DA"/>
</svg>
