<svg width="310" height="138" viewBox="0 0 310 138" fill="none" xmlns="http://www.w3.org/2000/svg">
<path d="M274.833 15.655C291.367 8.29487 310 20.3963 310 38.4943V113C310 126.807 298.807 138 285 138H117.632C90.6384 138 82.8044 101.139 107.465 90.1608L274.833 15.655Z" fill="#F335DA"/>
<path d="M210.602 100.76C210.602 102.013 210.308 103.093 209.722 104C209.162 104.88 208.228 105.693 206.922 106.44C206.042 106.973 205.015 107.373 203.842 107.64C202.668 107.907 201.482 108.04 200.282 108.04C199.055 108.04 197.535 107.64 195.722 106.84C194.415 106.2 193.375 105.44 192.602 104.56C191.855 103.68 191.482 102.72 191.482 101.68C191.482 100.96 191.642 100.44 191.962 100.12C192.282 99.7733 192.802 99.6 193.522 99.6C193.895 99.6 194.282 99.76 194.682 100.08C195.082 100.373 195.322 100.667 195.402 100.96C195.775 102.053 196.428 102.893 197.362 103.48C198.295 104.04 199.455 104.32 200.842 104.32C202.442 104.32 203.775 104.027 204.842 103.44C205.935 102.853 206.482 102.067 206.482 101.08C206.482 100.12 205.895 99.2667 204.722 98.52C203.548 97.7733 202.348 97.2533 201.122 96.96C199.362 96.48 197.802 95.9067 196.442 95.24C195.028 94.5467 193.975 93.6933 193.282 92.68C192.588 91.6667 192.242 90.6 192.242 89.48C192.242 88.44 192.602 87.3867 193.322 86.32C194.042 85.2267 194.895 84.44 195.882 83.96C196.415 83.6933 197.322 83.4133 198.602 83.12C199.908 82.8 200.855 82.64 201.442 82.64C202.215 82.64 203.068 82.7333 204.002 82.92C204.935 83.1067 205.695 83.3733 206.282 83.72C207.455 84.3867 208.322 84.9867 208.882 85.52C209.442 86.0533 209.722 86.72 209.722 87.52C209.722 88 209.535 88.4267 209.162 88.8C208.815 89.1733 208.202 89.36 207.322 89.36C207.108 89.36 206.895 89.2667 206.682 89.08C206.468 88.8933 206.202 88.6133 205.882 88.24C205.455 87.68 205.042 87.3067 204.642 87.12C204.242 86.9867 203.655 86.84 202.882 86.68C202.135 86.52 201.468 86.44 200.882 86.44C200.242 86.44 199.575 86.5733 198.882 86.84C198.188 87.1067 197.602 87.4933 197.122 88C196.668 88.48 196.442 89.04 196.442 89.68C196.442 90.2133 196.682 90.68 197.162 91.08C197.668 91.4533 198.268 91.76 198.962 92C199.762 92.32 200.628 92.6 201.562 92.84C202.788 93.2133 203.788 93.56 204.562 93.88C205.362 94.1733 206.135 94.5467 206.882 95C208.188 95.7733 209.135 96.5733 209.722 97.4C210.308 98.2 210.602 99.32 210.602 100.76ZM214.343 94.16C213.969 94.1067 213.663 93.9467 213.423 93.68C213.209 93.4133 213.103 93.0933 213.103 92.72C213.103 92.5333 213.143 92.3333 213.223 92.12C213.329 91.9067 213.476 91.72 213.663 91.56C214.009 91.2133 214.943 91.04 216.463 91.04C216.676 90 216.783 88.9467 216.783 87.88C216.783 87.48 216.769 87.1333 216.743 86.84C216.716 86.5467 216.703 86.32 216.703 86.16C216.703 85.5733 216.916 85.1333 217.343 84.84C217.796 84.5467 218.303 84.4 218.863 84.4C219.556 84.4 220.023 84.5733 220.263 84.92C220.529 85.2667 220.663 85.9067 220.663 86.84C220.663 88.2267 220.543 89.5867 220.303 90.92C220.729 90.92 221.316 90.8933 222.063 90.84C223.076 90.7867 223.809 90.76 224.263 90.76C224.716 90.76 225.103 90.88 225.423 91.12C225.769 91.3333 225.943 91.64 225.943 92.04C225.943 93.08 225.476 93.6933 224.543 93.88C223.556 94.12 222.023 94.2667 219.943 94.32C219.863 95.36 219.823 96.4933 219.823 97.72C219.823 99.64 219.943 101.213 220.183 102.44C220.343 103.293 220.609 103.92 220.983 104.32C221.383 104.693 221.969 104.88 222.743 104.88C223.196 104.88 223.663 104.76 224.143 104.52C224.463 104.333 224.756 104.24 225.023 104.24C225.396 104.24 225.663 104.36 225.823 104.6C226.009 104.84 226.103 105.16 226.103 105.56C226.103 106.307 225.703 106.933 224.903 107.44C224.103 107.92 223.076 108.16 221.823 108.16C221.049 108.16 220.263 107.973 219.463 107.6C218.689 107.227 218.036 106.76 217.503 106.2C217.423 106.12 217.276 105.813 217.063 105.28C216.849 104.747 216.663 104.173 216.503 103.56C216.236 102.307 216.103 100.547 216.103 98.28C216.103 97.2933 216.156 95.9733 216.263 94.32L214.343 94.16ZM247.582 106.08C247.582 106.667 247.262 107.16 246.622 107.56C246.008 107.96 245.435 108.16 244.902 108.16C243.888 108.16 243.075 108.04 242.462 107.8C241.875 107.533 241.328 107.053 240.822 106.36C240.128 106.973 239.182 107.44 237.982 107.76C236.782 108.053 235.675 108.2 234.662 108.2C233.008 108.2 231.648 107.76 230.582 106.88C229.515 105.973 228.982 104.653 228.982 102.92C228.982 102.173 229.182 101.493 229.582 100.88C229.982 100.24 230.528 99.68 231.222 99.2C231.995 98.6933 232.875 98.3067 233.862 98.04C234.848 97.7467 235.875 97.6 236.942 97.6C237.502 97.6 238.168 97.7067 238.942 97.92C239.715 98.1333 240.315 98.36 240.742 98.6V97.96C240.742 96.52 240.395 95.5333 239.702 95C239.008 94.44 237.888 94.16 236.342 94.16C235.888 94.16 235.435 94.2533 234.982 94.44C234.555 94.6267 234.062 94.88 233.502 95.2C232.755 95.6 232.048 95.8 231.382 95.8C231.142 95.8 230.915 95.64 230.702 95.32C230.488 94.9733 230.382 94.6667 230.382 94.4C230.382 93.6267 230.742 92.96 231.462 92.4C232.208 91.84 233.088 91.4267 234.102 91.16C235.115 90.8667 236.022 90.72 236.822 90.72C237.622 90.72 238.542 90.88 239.582 91.2C240.622 91.4933 241.475 91.9067 242.142 92.44C242.942 93.1333 243.555 93.9467 243.982 94.88C244.435 95.7867 244.662 96.7867 244.662 97.88C244.662 98.2267 244.635 98.7467 244.582 99.44C244.528 100.187 244.502 100.827 244.502 101.36C244.502 101.6 244.475 101.96 244.422 102.44C244.368 103.027 244.342 103.493 244.342 103.84C244.342 104.16 244.462 104.44 244.702 104.68C244.942 104.893 245.222 105 245.542 105L246.662 104.96C246.955 104.96 247.182 105.067 247.342 105.28C247.502 105.493 247.582 105.76 247.582 106.08ZM234.702 105.04C235.848 105.04 236.808 104.92 237.582 104.68C238.355 104.44 239.288 104 240.382 103.36C240.488 102.907 240.555 102.307 240.582 101.56C239.115 100.867 237.902 100.52 236.942 100.52C235.848 100.52 234.875 100.72 234.022 101.12C233.168 101.52 232.742 102.227 232.742 103.24C232.742 103.747 232.955 104.173 233.382 104.52C233.808 104.867 234.248 105.04 234.702 105.04ZM250.401 93.96C249.708 93.48 249.361 92.9733 249.361 92.44C249.361 92.0667 249.521 91.72 249.841 91.4C250.161 91.08 250.641 90.92 251.281 90.92C252.028 90.92 252.694 91.12 253.281 91.52C253.894 91.8933 254.321 92.44 254.561 93.16C255.174 92.44 255.868 91.8667 256.641 91.44C257.441 91.0133 258.254 90.8 259.081 90.8C260.068 90.8 260.961 91.0667 261.761 91.6C262.561 92.1333 262.961 92.8533 262.961 93.76C262.961 94.2667 262.734 94.7867 262.281 95.32C261.854 95.8533 261.414 96.12 260.961 96.12C260.721 96.12 260.508 96.0667 260.321 95.96C260.161 95.8267 259.961 95.64 259.721 95.4C259.454 95.1333 259.228 94.9467 259.041 94.84C258.854 94.7067 258.641 94.64 258.401 94.64C257.974 94.64 257.574 94.7067 257.201 94.84C256.828 94.9733 256.574 95.1333 256.441 95.32C256.014 95.9867 255.694 96.5867 255.481 97.12C255.294 97.6533 255.201 98.2267 255.201 98.84C255.201 99.2933 255.188 99.6533 255.161 99.92L255.121 102.2C255.121 102.547 255.134 102.933 255.161 103.36C255.188 103.787 255.214 104.107 255.241 104.32C255.321 105.04 255.361 105.733 255.361 106.4C255.361 106.853 255.188 107.253 254.841 107.6C254.494 107.947 254.068 108.12 253.561 108.12C252.761 108.12 252.174 107.973 251.801 107.68C251.428 107.36 251.241 106.787 251.241 105.96L251.201 103.4C251.174 102.893 251.161 102.173 251.161 101.24L251.201 98.6C251.254 97.32 251.281 96.28 251.281 95.48C251.281 95.1867 251.214 94.92 251.081 94.68C250.974 94.44 250.748 94.2 250.401 93.96ZM265.399 94.16C265.026 94.1067 264.719 93.9467 264.479 93.68C264.266 93.4133 264.159 93.0933 264.159 92.72C264.159 92.5333 264.199 92.3333 264.279 92.12C264.386 91.9067 264.533 91.72 264.719 91.56C265.066 91.2667 265.533 90.9867 266.119 90.72C266.733 90.48 267.173 90.1867 267.439 89.84C267.706 89.4933 267.839 88.84 267.839 87.88C267.839 87.48 267.813 87.1333 267.759 86.84C267.733 86.5467 267.719 86.32 267.719 86.16C267.719 85.5733 267.933 85.1333 268.359 84.84C268.786 84.5467 269.279 84.4 269.839 84.4C270.533 84.4 270.999 84.5733 271.239 84.92C271.506 85.2667 271.639 85.9067 271.639 86.84C271.639 87.7467 271.599 88.5333 271.519 89.2C271.439 89.84 271.266 90.4133 270.999 90.92C271.373 90.92 271.986 90.8933 272.839 90.84C274.013 90.7867 274.826 90.76 275.279 90.76C275.733 90.76 276.133 90.88 276.479 91.12C276.826 91.3333 276.999 91.64 276.999 92.04C276.999 92.6 276.879 93.0133 276.639 93.28C276.399 93.5467 276.053 93.72 275.599 93.8C274.506 94.0933 272.959 94.2667 270.959 94.32C270.906 95.36 270.879 96.4933 270.879 97.72C270.879 99.7733 270.999 101.347 271.239 102.44C271.399 103.293 271.666 103.92 272.039 104.32C272.439 104.693 273.026 104.88 273.799 104.88C274.199 104.88 274.519 104.827 274.759 104.72C275.026 104.613 275.173 104.547 275.199 104.52C275.519 104.333 275.813 104.24 276.079 104.24C276.453 104.24 276.719 104.36 276.879 104.6C277.066 104.84 277.159 105.16 277.159 105.56C277.159 106.307 276.759 106.933 275.959 107.44C275.159 107.92 274.133 108.16 272.879 108.16C271.466 108.16 270.266 107.747 269.279 106.92C268.319 106.067 267.746 104.947 267.559 103.56C267.293 102.307 267.159 100.547 267.159 98.28C267.159 97.2933 267.213 95.9733 267.319 94.32L265.399 94.16Z" fill="white"/>
</svg>
