<svg width="301" height="196" viewBox="0 0 301 196" fill="none" xmlns="http://www.w3.org/2000/svg">
<path d="M0 80.2185C0 40.1531 38.5174 11.3437 76.9507 22.6627L293.03 86.3001C297.459 87.6044 300.5 91.67 300.5 96.2871V96.2871C300.5 100.869 297.505 104.912 293.122 106.247L77.4773 171.909C38.9297 183.646 0 154.806 0 114.511V80.2185Z" fill="#F335DA"/>
<path d="M0 80.2185C0 40.1531 38.5174 11.3437 76.9507 22.6627L293.03 86.3001C297.459 87.6044 300.5 91.67 300.5 96.2871V96.2871C300.5 100.869 297.505 104.912 293.122 106.247L77.4773 171.909C38.9297 183.646 0 154.806 0 114.511V80.2185Z" fill="#F335DA"/>
<path d="M53.784 102.032C53.944 102.48 54.056 102.992 54.12 103.568C54.216 104.112 54.264 104.672 54.264 105.248C54.264 105.824 54.216 106.4 54.12 106.976C54.056 107.52 53.96 108 53.832 108.416C53.32 110.208 52.296 111.712 50.76 112.928C49.224 114.112 47.464 114.976 45.48 115.52C43.528 116.064 41.496 116.256 39.384 116.096C37.304 115.936 35.448 115.408 33.816 114.512C32.792 113.936 31.912 113.232 31.176 112.4C30.44 111.568 29.816 110.64 29.304 109.616C29.112 109.264 28.984 108.864 28.92 108.416C28.888 107.936 28.936 107.488 29.064 107.072C29.192 106.624 29.4 106.24 29.688 105.92C29.976 105.568 30.376 105.328 30.888 105.2C31.208 105.136 31.56 105.104 31.944 105.104C32.36 105.104 32.76 105.168 33.144 105.296C33.528 105.392 33.88 105.568 34.2 105.824C34.52 106.048 34.776 106.368 34.968 106.784C35.32 107.456 35.816 108.08 36.456 108.656C37.128 109.2 37.832 109.648 38.568 110C39.624 110.352 40.68 110.496 41.736 110.432C42.824 110.368 43.8 110.128 44.664 109.712C45.56 109.296 46.28 108.736 46.824 108.032C47.368 107.296 47.64 106.464 47.64 105.536C47.64 104.768 47.528 104.144 47.304 103.664C47.08 103.152 46.76 102.736 46.344 102.416C45.96 102.064 45.48 101.776 44.904 101.552C44.36 101.328 43.752 101.136 43.08 100.976C42.312 100.816 41.528 100.704 40.728 100.64C39.96 100.576 39.176 100.496 38.376 100.4C37.576 100.304 36.792 100.176 36.024 100.016C35.256 99.856 34.504 99.616 33.768 99.296C32.296 98.688 31.176 97.76 30.408 96.512C29.64 95.264 29.176 93.92 29.016 92.48C28.888 91.04 29.064 89.616 29.544 88.208C30.024 86.768 30.792 85.536 31.848 84.512C32.872 83.584 34.088 82.928 35.496 82.544C36.936 82.128 38.52 81.888 40.248 81.824C41.208 81.792 42.168 81.824 43.128 81.92C44.12 82.016 45.064 82.176 45.96 82.4C46.888 82.624 47.736 82.912 48.504 83.264C49.304 83.616 49.992 84.032 50.568 84.512C50.984 84.832 51.4 85.264 51.816 85.808C52.232 86.32 52.552 86.88 52.776 87.488C53 88.064 53.064 88.624 52.968 89.168C52.904 89.712 52.568 90.176 51.96 90.56C51.448 90.88 50.952 91.024 50.472 90.992C50.024 90.928 49.592 90.784 49.176 90.56C48.76 90.304 48.36 90.016 47.976 89.696C47.592 89.376 47.24 89.088 46.92 88.832C46.056 88.192 44.984 87.76 43.704 87.536C42.424 87.312 41.224 87.264 40.104 87.392C39.4 87.488 38.744 87.648 38.136 87.872C37.528 88.096 37 88.4 36.552 88.784C36.136 89.168 35.8 89.648 35.544 90.224C35.32 90.768 35.24 91.392 35.304 92.096C35.336 92.608 35.48 93.04 35.736 93.392C36.024 93.744 36.36 94.032 36.744 94.256C37.16 94.48 37.608 94.656 38.088 94.784C38.568 94.912 39.048 95.008 39.528 95.072C40.968 95.264 42.408 95.408 43.848 95.504C45.288 95.6 46.696 95.92 48.072 96.464C49.48 97.008 50.68 97.744 51.672 98.672C52.664 99.6 53.368 100.72 53.784 102.032ZM82.6973 83.504C83.0493 83.92 83.2253 84.352 83.2253 84.8C83.2253 84.992 83.2093 85.2 83.1773 85.424C83.1773 85.616 83.1613 85.792 83.1293 85.952C83.0333 86.304 82.8253 86.64 82.5052 86.96C82.2493 87.152 81.8973 87.296 81.4493 87.392C81.2253 87.456 81.0013 87.504 80.7773 87.536C80.5533 87.568 80.3133 87.616 80.0573 87.68C79.8333 87.712 79.6093 87.728 79.3853 87.728C79.1613 87.728 78.9213 87.728 78.6653 87.728H76.2173C75.6413 87.76 75.0653 87.776 74.4893 87.776C73.9453 87.776 73.4013 87.776 72.8573 87.776C72.8893 88.768 72.9053 89.84 72.9053 90.992C72.9053 92.112 72.8893 93.424 72.8573 94.928C72.8573 96.432 72.8413 98.176 72.8093 100.16C72.8093 102.144 72.8093 104.448 72.8093 107.072V110.72C72.8093 111.04 72.8253 111.28 72.8573 111.44C72.8573 111.568 72.8573 111.696 72.8573 111.824C72.8573 111.92 72.8413 112.048 72.8093 112.208C72.7453 112.496 72.6973 112.832 72.6653 113.216C72.6653 113.376 72.6493 113.536 72.6173 113.696C72.5853 113.824 72.5373 113.968 72.4733 114.128C72.3453 114.256 72.2813 114.352 72.2813 114.416L72.1373 114.704C71.9773 115.024 71.6733 115.328 71.2253 115.616C70.5213 115.968 69.7373 116.048 68.8733 115.856C68.3293 115.792 67.9133 115.648 67.6253 115.424C67.3373 115.136 67.1293 114.848 67.0013 114.56C66.8093 114.208 66.6973 113.872 66.6653 113.552C66.5693 113.264 66.5213 112.96 66.5213 112.64V87.968C66.3293 87.968 65.9293 87.968 65.3213 87.968C64.7133 87.968 64.0573 87.968 63.3533 87.968C62.6813 87.936 62.0413 87.904 61.4333 87.872C60.8253 87.84 60.4093 87.808 60.1853 87.776C59.9933 87.744 59.6893 87.696 59.2733 87.632C58.8893 87.568 58.5693 87.504 58.3133 87.44C57.6413 87.248 57.1133 86.944 56.7293 86.528C56.3773 86.112 56.2013 85.648 56.2013 85.136C56.2013 84.944 56.2013 84.752 56.2013 84.56C56.2013 84.368 56.2333 84.192 56.2973 84.032C56.3933 83.648 56.6493 83.328 57.0653 83.072C57.1933 82.976 57.3853 82.864 57.6413 82.736C57.9293 82.576 58.2013 82.464 58.4573 82.4C58.8413 82.272 59.3213 82.176 59.8973 82.112C60.1533 82.08 60.4093 82.064 60.6653 82.064C60.9213 82.064 61.1933 82.064 61.4813 82.064C62.6013 82.064 63.6573 82.064 64.6493 82.064C65.6733 82.064 66.7453 82.048 67.8653 82.016C69.7213 81.984 71.5613 81.984 73.3853 82.016C75.2413 82.016 77.0813 82.048 78.9053 82.112C79.3213 82.144 79.7213 82.192 80.1053 82.256C80.4893 82.32 80.8733 82.432 81.2573 82.592C81.5453 82.688 81.8173 82.816 82.0733 82.976C82.3293 83.104 82.5373 83.28 82.6973 83.504ZM110.427 112.736C110.459 112.928 110.475 113.12 110.475 113.312C110.507 113.472 110.523 113.664 110.523 113.888C110.523 114.272 110.411 114.624 110.187 114.944C110.091 115.104 109.963 115.264 109.803 115.424C109.643 115.552 109.451 115.664 109.227 115.76C108.427 116.208 107.579 116.368 106.683 116.24C106.235 116.112 105.835 115.904 105.483 115.616C105.419 115.552 105.371 115.52 105.339 115.52C105.307 115.488 105.275 115.44 105.243 115.376C105.211 115.344 105.179 115.312 105.147 115.28C105.115 115.216 105.067 115.168 105.003 115.136C104.843 114.976 104.715 114.832 104.619 114.704C104.523 114.544 104.427 114.384 104.331 114.224C104.267 114.064 104.187 113.92 104.091 113.792C104.027 113.632 103.947 113.472 103.851 113.312C103.787 113.184 103.723 113.072 103.659 112.976C103.595 112.848 103.547 112.72 103.515 112.592C103.387 112.304 103.307 112.048 103.275 111.824L102.267 109.472C100.059 109.472 97.8506 109.488 95.6426 109.52C93.4666 109.52 91.2746 109.504 89.0666 109.472L88.0586 111.824C87.9946 111.952 87.9466 112.08 87.9146 112.208C87.9146 112.336 87.8826 112.464 87.8186 112.592C87.7546 112.72 87.6906 112.848 87.6266 112.976C87.5946 113.072 87.5466 113.184 87.4826 113.312C87.3866 113.472 87.2906 113.632 87.1946 113.792C87.1306 113.92 87.0506 114.064 86.9546 114.224C86.8906 114.384 86.8106 114.544 86.7146 114.704C86.6186 114.832 86.4906 114.976 86.3306 115.136C86.2666 115.168 86.2186 115.216 86.1866 115.28C86.1546 115.312 86.1226 115.344 86.0906 115.376C86.0586 115.44 86.0266 115.488 85.9946 115.52C85.9626 115.52 85.9146 115.552 85.8506 115.616C85.4986 115.904 85.0986 116.112 84.6506 116.24C83.7546 116.368 82.9066 116.208 82.1066 115.76C81.8826 115.664 81.6906 115.552 81.5306 115.424C81.3706 115.264 81.2426 115.104 81.1466 114.944C80.9226 114.624 80.8106 114.272 80.8106 113.888C80.8106 113.664 80.8106 113.472 80.8106 113.312C80.8426 113.12 80.8746 112.928 80.9066 112.736C80.9706 112.448 81.0506 112.16 81.1466 111.872C81.2426 111.584 81.2906 111.44 81.2906 111.44L91.2746 86.864L91.5626 86.096C91.6266 85.904 91.7066 85.728 91.8026 85.568C91.8986 85.408 91.9786 85.216 92.0426 84.992C92.2026 84.576 92.3786 84.208 92.5706 83.888C92.6666 83.696 92.7786 83.52 92.9066 83.36C93.0346 83.2 93.1626 83.04 93.2906 82.88C93.4826 82.624 93.7546 82.416 94.1066 82.256C94.5546 82.096 95.0666 82.016 95.6426 82.016C96.2506 82.016 96.7786 82.096 97.2266 82.256C97.5786 82.416 97.8506 82.624 98.0426 82.88C98.2666 83.168 98.5066 83.504 98.7626 83.888C98.9546 84.208 99.1306 84.576 99.2906 84.992C99.3546 85.216 99.4346 85.408 99.5306 85.568C99.6266 85.728 99.7066 85.904 99.7706 86.096L100.059 86.864L110.043 111.44C110.043 111.44 110.091 111.584 110.187 111.872C110.283 112.16 110.363 112.448 110.427 112.736ZM99.0506 100.976C98.6346 100.048 98.2026 99.088 97.7546 98.096C97.3386 97.104 96.8906 96.096 96.4106 95.072C96.2826 94.784 96.1546 94.496 96.0266 94.208C95.8986 93.888 95.7706 93.584 95.6426 93.296C95.5466 93.584 95.4346 93.888 95.3066 94.208C95.1786 94.496 95.0506 94.784 94.9226 95.072C94.4426 96.096 93.9786 97.104 93.5306 98.096C93.1146 99.088 92.6986 100.048 92.2826 100.976L91.4186 103.088H99.9146L99.0506 100.976ZM139.141 113.888C139.173 114.208 139.141 114.512 139.045 114.8C138.981 114.992 138.885 115.152 138.757 115.28C138.661 115.408 138.533 115.536 138.373 115.664C138.085 115.856 137.733 116.032 137.317 116.192C137.061 116.256 136.805 116.304 136.549 116.336C136.325 116.4 136.085 116.4 135.829 116.336C135.317 116.304 134.869 116.112 134.485 115.76C133.941 115.312 133.493 114.816 133.141 114.272C132.981 114.016 132.805 113.728 132.613 113.408C132.421 113.088 132.245 112.752 132.085 112.4L126.757 102.272C126.501 102.272 126.245 102.288 125.989 102.32C125.733 102.32 125.477 102.336 125.221 102.368C124.549 102.432 123.909 102.448 123.301 102.416C122.725 102.384 122.117 102.384 121.477 102.416H120.565V111.104C120.565 111.36 120.549 111.6 120.517 111.824C120.517 112.048 120.517 112.288 120.517 112.544C120.517 112.704 120.501 112.912 120.469 113.168C120.469 113.424 120.453 113.664 120.421 113.888C120.357 114.24 120.213 114.608 119.989 114.992C119.765 115.344 119.461 115.648 119.077 115.904C118.405 116.32 117.589 116.432 116.629 116.24C116.213 116.144 115.813 115.984 115.429 115.76C115.301 115.664 115.189 115.552 115.093 115.424C114.997 115.264 114.917 115.104 114.853 114.944C114.789 114.784 114.725 114.624 114.661 114.464C114.629 114.272 114.581 114.096 114.517 113.936C114.421 113.616 114.373 113.312 114.373 113.024V85.76C114.373 85.568 114.373 85.376 114.373 85.184C114.405 84.96 114.437 84.768 114.469 84.608C114.501 84.256 114.613 83.904 114.805 83.552C114.901 83.168 115.061 82.896 115.285 82.736C115.477 82.544 115.765 82.384 116.149 82.256C116.565 82.096 117.157 82.032 117.925 82.064C119.365 82.096 120.789 82.112 122.197 82.112C123.605 82.112 125.013 82.144 126.421 82.208C127.349 82.272 128.325 82.384 129.349 82.544C130.405 82.672 131.381 82.912 132.277 83.264C132.853 83.488 133.381 83.712 133.861 83.936C134.469 84.288 134.949 84.624 135.301 84.944C136.421 85.968 137.269 87.2 137.845 88.64C138.421 90.08 138.709 91.536 138.709 93.008C138.709 94.736 138.293 96.32 137.461 97.76C136.661 99.2 135.365 100.272 133.573 100.976C133.509 101.04 133.413 101.088 133.285 101.12C133.189 101.12 133.109 101.136 133.045 101.168L137.461 110.048L137.893 110.816C137.957 110.944 138.037 111.088 138.133 111.248C138.229 111.408 138.309 111.568 138.373 111.728C138.469 111.888 138.549 112.064 138.613 112.256C138.709 112.448 138.805 112.624 138.901 112.784C138.997 113.232 139.077 113.6 139.141 113.888ZM127.141 96.8C127.717 96.8 128.261 96.704 128.773 96.512C129.317 96.288 129.797 96 130.213 95.648C130.661 95.296 131.029 94.896 131.317 94.448C131.605 93.968 131.765 93.456 131.797 92.912C131.925 91.312 131.509 90.128 130.549 89.36C129.589 88.56 128.325 88.128 126.757 88.064C125.829 88 124.805 87.968 123.685 87.968C122.597 87.968 121.557 87.968 120.565 87.968C120.597 89.28 120.597 90.624 120.565 92C120.565 93.344 120.565 94.944 120.565 96.8H127.141ZM166.369 83.504C166.721 83.92 166.897 84.352 166.897 84.8C166.897 84.992 166.881 85.2 166.849 85.424C166.849 85.616 166.833 85.792 166.801 85.952C166.705 86.304 166.497 86.64 166.177 86.96C165.921 87.152 165.569 87.296 165.121 87.392C164.897 87.456 164.673 87.504 164.449 87.536C164.225 87.568 163.985 87.616 163.729 87.68C163.505 87.712 163.281 87.728 163.057 87.728C162.833 87.728 162.593 87.728 162.337 87.728H159.889C159.313 87.76 158.737 87.776 158.161 87.776C157.617 87.776 157.073 87.776 156.529 87.776C156.561 88.768 156.577 89.84 156.577 90.992C156.577 92.112 156.561 93.424 156.529 94.928C156.529 96.432 156.513 98.176 156.481 100.16C156.481 102.144 156.481 104.448 156.481 107.072V110.72C156.481 111.04 156.497 111.28 156.529 111.44C156.529 111.568 156.529 111.696 156.529 111.824C156.529 111.92 156.513 112.048 156.481 112.208C156.417 112.496 156.369 112.832 156.337 113.216C156.337 113.376 156.321 113.536 156.289 113.696C156.257 113.824 156.209 113.968 156.145 114.128C156.017 114.256 155.953 114.352 155.953 114.416L155.809 114.704C155.649 115.024 155.345 115.328 154.897 115.616C154.193 115.968 153.409 116.048 152.545 115.856C152.001 115.792 151.585 115.648 151.297 115.424C151.009 115.136 150.801 114.848 150.673 114.56C150.481 114.208 150.369 113.872 150.337 113.552C150.241 113.264 150.193 112.96 150.193 112.64V87.968C150.001 87.968 149.601 87.968 148.993 87.968C148.385 87.968 147.729 87.968 147.025 87.968C146.353 87.936 145.713 87.904 145.105 87.872C144.497 87.84 144.081 87.808 143.857 87.776C143.665 87.744 143.361 87.696 142.945 87.632C142.561 87.568 142.241 87.504 141.985 87.44C141.313 87.248 140.785 86.944 140.401 86.528C140.049 86.112 139.873 85.648 139.873 85.136C139.873 84.944 139.873 84.752 139.873 84.56C139.873 84.368 139.905 84.192 139.969 84.032C140.065 83.648 140.321 83.328 140.737 83.072C140.865 82.976 141.057 82.864 141.313 82.736C141.601 82.576 141.873 82.464 142.129 82.4C142.513 82.272 142.993 82.176 143.569 82.112C143.825 82.08 144.081 82.064 144.337 82.064C144.593 82.064 144.865 82.064 145.153 82.064C146.273 82.064 147.329 82.064 148.321 82.064C149.345 82.064 150.417 82.048 151.537 82.016C153.393 81.984 155.233 81.984 157.057 82.016C158.913 82.016 160.753 82.048 162.577 82.112C162.993 82.144 163.393 82.192 163.777 82.256C164.161 82.32 164.545 82.432 164.929 82.592C165.217 82.688 165.489 82.816 165.745 82.976C166.001 83.104 166.209 83.28 166.369 83.504Z" fill="white"/>
<path d="M53.784 102.032C53.944 102.48 54.056 102.992 54.12 103.568C54.216 104.112 54.264 104.672 54.264 105.248C54.264 105.824 54.216 106.4 54.12 106.976C54.056 107.52 53.96 108 53.832 108.416C53.32 110.208 52.296 111.712 50.76 112.928C49.224 114.112 47.464 114.976 45.48 115.52C43.528 116.064 41.496 116.256 39.384 116.096C37.304 115.936 35.448 115.408 33.816 114.512C32.792 113.936 31.912 113.232 31.176 112.4C30.44 111.568 29.816 110.64 29.304 109.616C29.112 109.264 28.984 108.864 28.92 108.416C28.888 107.936 28.936 107.488 29.064 107.072C29.192 106.624 29.4 106.24 29.688 105.92C29.976 105.568 30.376 105.328 30.888 105.2C31.208 105.136 31.56 105.104 31.944 105.104C32.36 105.104 32.76 105.168 33.144 105.296C33.528 105.392 33.88 105.568 34.2 105.824C34.52 106.048 34.776 106.368 34.968 106.784C35.32 107.456 35.816 108.08 36.456 108.656C37.128 109.2 37.832 109.648 38.568 110C39.624 110.352 40.68 110.496 41.736 110.432C42.824 110.368 43.8 110.128 44.664 109.712C45.56 109.296 46.28 108.736 46.824 108.032C47.368 107.296 47.64 106.464 47.64 105.536C47.64 104.768 47.528 104.144 47.304 103.664C47.08 103.152 46.76 102.736 46.344 102.416C45.96 102.064 45.48 101.776 44.904 101.552C44.36 101.328 43.752 101.136 43.08 100.976C42.312 100.816 41.528 100.704 40.728 100.64C39.96 100.576 39.176 100.496 38.376 100.4C37.576 100.304 36.792 100.176 36.024 100.016C35.256 99.856 34.504 99.616 33.768 99.296C32.296 98.688 31.176 97.76 30.408 96.512C29.64 95.264 29.176 93.92 29.016 92.48C28.888 91.04 29.064 89.616 29.544 88.208C30.024 86.768 30.792 85.536 31.848 84.512C32.872 83.584 34.088 82.928 35.496 82.544C36.936 82.128 38.52 81.888 40.248 81.824C41.208 81.792 42.168 81.824 43.128 81.92C44.12 82.016 45.064 82.176 45.96 82.4C46.888 82.624 47.736 82.912 48.504 83.264C49.304 83.616 49.992 84.032 50.568 84.512C50.984 84.832 51.4 85.264 51.816 85.808C52.232 86.32 52.552 86.88 52.776 87.488C53 88.064 53.064 88.624 52.968 89.168C52.904 89.712 52.568 90.176 51.96 90.56C51.448 90.88 50.952 91.024 50.472 90.992C50.024 90.928 49.592 90.784 49.176 90.56C48.76 90.304 48.36 90.016 47.976 89.696C47.592 89.376 47.24 89.088 46.92 88.832C46.056 88.192 44.984 87.76 43.704 87.536C42.424 87.312 41.224 87.264 40.104 87.392C39.4 87.488 38.744 87.648 38.136 87.872C37.528 88.096 37 88.4 36.552 88.784C36.136 89.168 35.8 89.648 35.544 90.224C35.32 90.768 35.24 91.392 35.304 92.096C35.336 92.608 35.48 93.04 35.736 93.392C36.024 93.744 36.36 94.032 36.744 94.256C37.16 94.48 37.608 94.656 38.088 94.784C38.568 94.912 39.048 95.008 39.528 95.072C40.968 95.264 42.408 95.408 43.848 95.504C45.288 95.6 46.696 95.92 48.072 96.464C49.48 97.008 50.68 97.744 51.672 98.672C52.664 99.6 53.368 100.72 53.784 102.032ZM82.6973 83.504C83.0493 83.92 83.2253 84.352 83.2253 84.8C83.2253 84.992 83.2093 85.2 83.1773 85.424C83.1773 85.616 83.1613 85.792 83.1293 85.952C83.0333 86.304 82.8253 86.64 82.5052 86.96C82.2493 87.152 81.8973 87.296 81.4493 87.392C81.2253 87.456 81.0013 87.504 80.7773 87.536C80.5533 87.568 80.3133 87.616 80.0573 87.68C79.8333 87.712 79.6093 87.728 79.3853 87.728C79.1613 87.728 78.9213 87.728 78.6653 87.728H76.2173C75.6413 87.76 75.0653 87.776 74.4893 87.776C73.9453 87.776 73.4013 87.776 72.8573 87.776C72.8893 88.768 72.9053 89.84 72.9053 90.992C72.9053 92.112 72.8893 93.424 72.8573 94.928C72.8573 96.432 72.8413 98.176 72.8093 100.16C72.8093 102.144 72.8093 104.448 72.8093 107.072V110.72C72.8093 111.04 72.8253 111.28 72.8573 111.44C72.8573 111.568 72.8573 111.696 72.8573 111.824C72.8573 111.92 72.8413 112.048 72.8093 112.208C72.7453 112.496 72.6973 112.832 72.6653 113.216C72.6653 113.376 72.6493 113.536 72.6173 113.696C72.5853 113.824 72.5373 113.968 72.4733 114.128C72.3453 114.256 72.2813 114.352 72.2813 114.416L72.1373 114.704C71.9773 115.024 71.6733 115.328 71.2253 115.616C70.5213 115.968 69.7373 116.048 68.8733 115.856C68.3293 115.792 67.9133 115.648 67.6253 115.424C67.3373 115.136 67.1293 114.848 67.0013 114.56C66.8093 114.208 66.6973 113.872 66.6653 113.552C66.5693 113.264 66.5213 112.96 66.5213 112.64V87.968C66.3293 87.968 65.9293 87.968 65.3213 87.968C64.7133 87.968 64.0573 87.968 63.3533 87.968C62.6813 87.936 62.0413 87.904 61.4333 87.872C60.8253 87.84 60.4093 87.808 60.1853 87.776C59.9933 87.744 59.6893 87.696 59.2733 87.632C58.8893 87.568 58.5693 87.504 58.3133 87.44C57.6413 87.248 57.1133 86.944 56.7293 86.528C56.3773 86.112 56.2013 85.648 56.2013 85.136C56.2013 84.944 56.2013 84.752 56.2013 84.56C56.2013 84.368 56.2333 84.192 56.2973 84.032C56.3933 83.648 56.6493 83.328 57.0653 83.072C57.1933 82.976 57.3853 82.864 57.6413 82.736C57.9293 82.576 58.2013 82.464 58.4573 82.4C58.8413 82.272 59.3213 82.176 59.8973 82.112C60.1533 82.08 60.4093 82.064 60.6653 82.064C60.9213 82.064 61.1933 82.064 61.4813 82.064C62.6013 82.064 63.6573 82.064 64.6493 82.064C65.6733 82.064 66.7453 82.048 67.8653 82.016C69.7213 81.984 71.5613 81.984 73.3853 82.016C75.2413 82.016 77.0813 82.048 78.9053 82.112C79.3213 82.144 79.7213 82.192 80.1053 82.256C80.4893 82.32 80.8733 82.432 81.2573 82.592C81.5453 82.688 81.8173 82.816 82.0733 82.976C82.3293 83.104 82.5373 83.28 82.6973 83.504ZM110.427 112.736C110.459 112.928 110.475 113.12 110.475 113.312C110.507 113.472 110.523 113.664 110.523 113.888C110.523 114.272 110.411 114.624 110.187 114.944C110.091 115.104 109.963 115.264 109.803 115.424C109.643 115.552 109.451 115.664 109.227 115.76C108.427 116.208 107.579 116.368 106.683 116.24C106.235 116.112 105.835 115.904 105.483 115.616C105.419 115.552 105.371 115.52 105.339 115.52C105.307 115.488 105.275 115.44 105.243 115.376C105.211 115.344 105.179 115.312 105.147 115.28C105.115 115.216 105.067 115.168 105.003 115.136C104.843 114.976 104.715 114.832 104.619 114.704C104.523 114.544 104.427 114.384 104.331 114.224C104.267 114.064 104.187 113.92 104.091 113.792C104.027 113.632 103.947 113.472 103.851 113.312C103.787 113.184 103.723 113.072 103.659 112.976C103.595 112.848 103.547 112.72 103.515 112.592C103.387 112.304 103.307 112.048 103.275 111.824L102.267 109.472C100.059 109.472 97.8506 109.488 95.6426 109.52C93.4666 109.52 91.2746 109.504 89.0666 109.472L88.0586 111.824C87.9946 111.952 87.9466 112.08 87.9146 112.208C87.9146 112.336 87.8826 112.464 87.8186 112.592C87.7546 112.72 87.6906 112.848 87.6266 112.976C87.5946 113.072 87.5466 113.184 87.4826 113.312C87.3866 113.472 87.2906 113.632 87.1946 113.792C87.1306 113.92 87.0506 114.064 86.9546 114.224C86.8906 114.384 86.8106 114.544 86.7146 114.704C86.6186 114.832 86.4906 114.976 86.3306 115.136C86.2666 115.168 86.2186 115.216 86.1866 115.28C86.1546 115.312 86.1226 115.344 86.0906 115.376C86.0586 115.44 86.0266 115.488 85.9946 115.52C85.9626 115.52 85.9146 115.552 85.8506 115.616C85.4986 115.904 85.0986 116.112 84.6506 116.24C83.7546 116.368 82.9066 116.208 82.1066 115.76C81.8826 115.664 81.6906 115.552 81.5306 115.424C81.3706 115.264 81.2426 115.104 81.1466 114.944C80.9226 114.624 80.8106 114.272 80.8106 113.888C80.8106 113.664 80.8106 113.472 80.8106 113.312C80.8426 113.12 80.8746 112.928 80.9066 112.736C80.9706 112.448 81.0506 112.16 81.1466 111.872C81.2426 111.584 81.2906 111.44 81.2906 111.44L91.2746 86.864L91.5626 86.096C91.6266 85.904 91.7066 85.728 91.8026 85.568C91.8986 85.408 91.9786 85.216 92.0426 84.992C92.2026 84.576 92.3786 84.208 92.5706 83.888C92.6666 83.696 92.7786 83.52 92.9066 83.36C93.0346 83.2 93.1626 83.04 93.2906 82.88C93.4826 82.624 93.7546 82.416 94.1066 82.256C94.5546 82.096 95.0666 82.016 95.6426 82.016C96.2506 82.016 96.7786 82.096 97.2266 82.256C97.5786 82.416 97.8506 82.624 98.0426 82.88C98.2666 83.168 98.5066 83.504 98.7626 83.888C98.9546 84.208 99.1306 84.576 99.2906 84.992C99.3546 85.216 99.4346 85.408 99.5306 85.568C99.6266 85.728 99.7066 85.904 99.7706 86.096L100.059 86.864L110.043 111.44C110.043 111.44 110.091 111.584 110.187 111.872C110.283 112.16 110.363 112.448 110.427 112.736ZM99.0506 100.976C98.6346 100.048 98.2026 99.088 97.7546 98.096C97.3386 97.104 96.8906 96.096 96.4106 95.072C96.2826 94.784 96.1546 94.496 96.0266 94.208C95.8986 93.888 95.7706 93.584 95.6426 93.296C95.5466 93.584 95.4346 93.888 95.3066 94.208C95.1786 94.496 95.0506 94.784 94.9226 95.072C94.4426 96.096 93.9786 97.104 93.5306 98.096C93.1146 99.088 92.6986 100.048 92.2826 100.976L91.4186 103.088H99.9146L99.0506 100.976ZM139.141 113.888C139.173 114.208 139.141 114.512 139.045 114.8C138.981 114.992 138.885 115.152 138.757 115.28C138.661 115.408 138.533 115.536 138.373 115.664C138.085 115.856 137.733 116.032 137.317 116.192C137.061 116.256 136.805 116.304 136.549 116.336C136.325 116.4 136.085 116.4 135.829 116.336C135.317 116.304 134.869 116.112 134.485 115.76C133.941 115.312 133.493 114.816 133.141 114.272C132.981 114.016 132.805 113.728 132.613 113.408C132.421 113.088 132.245 112.752 132.085 112.4L126.757 102.272C126.501 102.272 126.245 102.288 125.989 102.32C125.733 102.32 125.477 102.336 125.221 102.368C124.549 102.432 123.909 102.448 123.301 102.416C122.725 102.384 122.117 102.384 121.477 102.416H120.565V111.104C120.565 111.36 120.549 111.6 120.517 111.824C120.517 112.048 120.517 112.288 120.517 112.544C120.517 112.704 120.501 112.912 120.469 113.168C120.469 113.424 120.453 113.664 120.421 113.888C120.357 114.24 120.213 114.608 119.989 114.992C119.765 115.344 119.461 115.648 119.077 115.904C118.405 116.32 117.589 116.432 116.629 116.24C116.213 116.144 115.813 115.984 115.429 115.76C115.301 115.664 115.189 115.552 115.093 115.424C114.997 115.264 114.917 115.104 114.853 114.944C114.789 114.784 114.725 114.624 114.661 114.464C114.629 114.272 114.581 114.096 114.517 113.936C114.421 113.616 114.373 113.312 114.373 113.024V85.76C114.373 85.568 114.373 85.376 114.373 85.184C114.405 84.96 114.437 84.768 114.469 84.608C114.501 84.256 114.613 83.904 114.805 83.552C114.901 83.168 115.061 82.896 115.285 82.736C115.477 82.544 115.765 82.384 116.149 82.256C116.565 82.096 117.157 82.032 117.925 82.064C119.365 82.096 120.789 82.112 122.197 82.112C123.605 82.112 125.013 82.144 126.421 82.208C127.349 82.272 128.325 82.384 129.349 82.544C130.405 82.672 131.381 82.912 132.277 83.264C132.853 83.488 133.381 83.712 133.861 83.936C134.469 84.288 134.949 84.624 135.301 84.944C136.421 85.968 137.269 87.2 137.845 88.64C138.421 90.08 138.709 91.536 138.709 93.008C138.709 94.736 138.293 96.32 137.461 97.76C136.661 99.2 135.365 100.272 133.573 100.976C133.509 101.04 133.413 101.088 133.285 101.12C133.189 101.12 133.109 101.136 133.045 101.168L137.461 110.048L137.893 110.816C137.957 110.944 138.037 111.088 138.133 111.248C138.229 111.408 138.309 111.568 138.373 111.728C138.469 111.888 138.549 112.064 138.613 112.256C138.709 112.448 138.805 112.624 138.901 112.784C138.997 113.232 139.077 113.6 139.141 113.888ZM127.141 96.8C127.717 96.8 128.261 96.704 128.773 96.512C129.317 96.288 129.797 96 130.213 95.648C130.661 95.296 131.029 94.896 131.317 94.448C131.605 93.968 131.765 93.456 131.797 92.912C131.925 91.312 131.509 90.128 130.549 89.36C129.589 88.56 128.325 88.128 126.757 88.064C125.829 88 124.805 87.968 123.685 87.968C122.597 87.968 121.557 87.968 120.565 87.968C120.597 89.28 120.597 90.624 120.565 92C120.565 93.344 120.565 94.944 120.565 96.8H127.141ZM166.369 83.504C166.721 83.92 166.897 84.352 166.897 84.8C166.897 84.992 166.881 85.2 166.849 85.424C166.849 85.616 166.833 85.792 166.801 85.952C166.705 86.304 166.497 86.64 166.177 86.96C165.921 87.152 165.569 87.296 165.121 87.392C164.897 87.456 164.673 87.504 164.449 87.536C164.225 87.568 163.985 87.616 163.729 87.68C163.505 87.712 163.281 87.728 163.057 87.728C162.833 87.728 162.593 87.728 162.337 87.728H159.889C159.313 87.76 158.737 87.776 158.161 87.776C157.617 87.776 157.073 87.776 156.529 87.776C156.561 88.768 156.577 89.84 156.577 90.992C156.577 92.112 156.561 93.424 156.529 94.928C156.529 96.432 156.513 98.176 156.481 100.16C156.481 102.144 156.481 104.448 156.481 107.072V110.72C156.481 111.04 156.497 111.28 156.529 111.44C156.529 111.568 156.529 111.696 156.529 111.824C156.529 111.92 156.513 112.048 156.481 112.208C156.417 112.496 156.369 112.832 156.337 113.216C156.337 113.376 156.321 113.536 156.289 113.696C156.257 113.824 156.209 113.968 156.145 114.128C156.017 114.256 155.953 114.352 155.953 114.416L155.809 114.704C155.649 115.024 155.345 115.328 154.897 115.616C154.193 115.968 153.409 116.048 152.545 115.856C152.001 115.792 151.585 115.648 151.297 115.424C151.009 115.136 150.801 114.848 150.673 114.56C150.481 114.208 150.369 113.872 150.337 113.552C150.241 113.264 150.193 112.96 150.193 112.64V87.968C150.001 87.968 149.601 87.968 148.993 87.968C148.385 87.968 147.729 87.968 147.025 87.968C146.353 87.936 145.713 87.904 145.105 87.872C144.497 87.84 144.081 87.808 143.857 87.776C143.665 87.744 143.361 87.696 142.945 87.632C142.561 87.568 142.241 87.504 141.985 87.44C141.313 87.248 140.785 86.944 140.401 86.528C140.049 86.112 139.873 85.648 139.873 85.136C139.873 84.944 139.873 84.752 139.873 84.56C139.873 84.368 139.905 84.192 139.969 84.032C140.065 83.648 140.321 83.328 140.737 83.072C140.865 82.976 141.057 82.864 141.313 82.736C141.601 82.576 141.873 82.464 142.129 82.4C142.513 82.272 142.993 82.176 143.569 82.112C143.825 82.08 144.081 82.064 144.337 82.064C144.593 82.064 144.865 82.064 145.153 82.064C146.273 82.064 147.329 82.064 148.321 82.064C149.345 82.064 150.417 82.048 151.537 82.016C153.393 81.984 155.233 81.984 157.057 82.016C158.913 82.016 160.753 82.048 162.577 82.112C162.993 82.144 163.393 82.192 163.777 82.256C164.161 82.32 164.545 82.432 164.929 82.592C165.217 82.688 165.489 82.816 165.745 82.976C166.001 83.104 166.209 83.28 166.369 83.504Z" fill="white"/>
</svg>
