<svg width="312" height="355" viewBox="0 0 312 355" fill="none" xmlns="http://www.w3.org/2000/svg">
<path d="M110.932 51.2793C134.827 24.0914 177.173 24.0913 201.068 51.2793L277.189 137.891C297.098 160.544 297.098 194.456 277.189 217.109L201.068 303.721C177.173 330.909 134.827 330.909 110.932 303.721L34.8113 217.109C14.902 194.456 14.902 160.544 34.8113 137.891L110.932 51.2793Z" fill="#FDBFF5"/>
<path d="M108.769 127.34C108.769 126.767 109.189 126.48 110.029 126.48C110.389 126.48 111.075 126.493 112.089 126.52C113.209 126.573 114.055 126.6 114.629 126.6C115.095 126.6 115.662 126.573 116.329 126.52C116.782 126.493 117.069 126.48 117.189 126.48C117.922 126.507 118.542 126.64 119.049 126.88C119.195 126.947 119.315 127.027 119.409 127.12C119.502 127.213 119.549 127.367 119.549 127.58C119.549 127.873 119.455 128.127 119.269 128.34C119.082 128.54 118.855 128.64 118.589 128.64C118.295 128.64 117.869 128.6 117.309 128.52C116.815 128.427 116.382 128.38 116.009 128.38C115.649 128.38 115.375 128.387 115.189 128.4C115.149 128.84 115.129 129.893 115.129 131.56C115.129 133.547 115.189 135.56 115.309 137.6L115.349 138.18C115.349 138.727 115.035 139 114.409 139C113.915 139 113.582 138.887 113.409 138.66C113.235 138.42 113.149 138.06 113.149 137.58C113.149 136.633 113.122 135.453 113.069 134.04C113.015 132.867 112.989 132.033 112.989 131.54C112.989 131.207 113.029 130.187 113.109 128.48L110.769 128.5C110.022 128.5 109.502 128.433 109.209 128.3C108.915 128.153 108.769 127.833 108.769 127.34ZM118.687 134.76C118.687 134.253 118.78 133.747 118.967 133.24C119.154 132.72 119.4 132.247 119.707 131.82C120.014 131.393 120.5 131.047 121.167 130.78C121.834 130.5 122.427 130.36 122.947 130.36C123.48 130.36 124.02 130.433 124.567 130.58C125.127 130.727 125.514 130.953 125.727 131.26C126.22 131.953 126.467 132.633 126.467 133.3C126.467 133.66 126.387 133.967 126.227 134.22C126.08 134.473 125.867 134.747 125.587 135.04C125.36 135.28 125 135.44 124.507 135.52C124.027 135.6 123.547 135.64 123.067 135.64C122.76 135.64 122.387 135.613 121.947 135.56C121.507 135.493 121.08 135.413 120.667 135.32C120.694 135.587 120.76 135.847 120.867 136.1C120.974 136.353 121.1 136.547 121.247 136.68C121.514 136.933 121.787 137.093 122.067 137.16C122.36 137.227 122.734 137.26 123.187 137.26C123.667 137.26 124.114 137.18 124.527 137.02C124.86 136.9 125.134 136.84 125.347 136.84C125.6 136.84 125.794 136.92 125.927 137.08C126.06 137.227 126.127 137.42 126.127 137.66C126.127 137.993 125.934 138.267 125.547 138.48C125.16 138.693 124.714 138.853 124.207 138.96C123.714 139.053 123.314 139.1 123.007 139.1C122.38 139.1 121.774 138.987 121.187 138.76C120.6 138.533 120.114 138.213 119.727 137.8C119.407 137.427 119.154 136.98 118.967 136.46C118.78 135.927 118.687 135.36 118.687 134.76ZM123.047 132.06C122.754 132.06 122.46 132.12 122.167 132.24C121.874 132.347 121.634 132.5 121.447 132.7C121.207 132.953 121.04 133.16 120.947 133.32C120.867 133.467 120.814 133.673 120.787 133.94C121.12 134.047 121.814 134.1 122.867 134.1C123.44 134.1 123.88 134.013 124.187 133.84C124.507 133.667 124.667 133.44 124.667 133.16C124.667 132.88 124.494 132.627 124.147 132.4C123.8 132.173 123.434 132.06 123.047 132.06ZM135.978 139.08C135.525 139.08 135.178 139.013 134.938 138.88C134.698 138.733 134.438 138.467 134.158 138.08C133.812 138.387 133.292 138.633 132.598 138.82C131.918 139.007 131.332 139.1 130.838 139.1C130.025 139.1 129.365 138.88 128.858 138.44C128.365 137.987 128.118 137.327 128.118 136.46C128.118 136.087 128.218 135.747 128.418 135.44C128.632 135.12 128.905 134.84 129.238 134.6C129.612 134.347 130.052 134.147 130.558 134C131.078 133.853 131.552 133.78 131.978 133.78C132.698 133.78 133.338 133.847 133.898 133.98V133.96C133.898 133.24 133.718 132.747 133.358 132.48C133.012 132.2 132.452 132.06 131.678 132.06C131.185 132.06 130.758 132.28 130.398 132.72C130.265 132.893 129.985 132.98 129.558 132.98C129.345 132.98 129.185 132.893 129.078 132.72C128.985 132.533 128.938 132.347 128.938 132.16C128.938 131.773 129.098 131.44 129.418 131.16C129.752 130.88 130.152 130.673 130.618 130.54C131.085 130.393 131.518 130.32 131.918 130.32C132.305 130.32 132.765 130.4 133.298 130.56C133.832 130.72 134.265 130.933 134.598 131.2C134.998 131.547 135.305 131.953 135.518 132.42C135.745 132.873 135.858 133.373 135.858 133.92C135.858 134.093 135.845 134.353 135.818 134.7C135.792 135.1 135.778 135.427 135.778 135.68C135.778 135.8 135.765 135.953 135.738 136.14C135.712 136.38 135.698 136.58 135.698 136.74C135.698 136.913 135.752 137.08 135.858 137.24C135.965 137.4 136.112 137.533 136.298 137.64C136.472 137.733 136.585 137.833 136.638 137.94C136.692 138.047 136.718 138.167 136.718 138.3C136.718 138.433 136.632 138.6 136.458 138.8C136.298 138.987 136.138 139.08 135.978 139.08ZM131.978 135.26C131.458 135.26 130.998 135.36 130.598 135.56C130.198 135.76 129.998 136.113 129.998 136.62C129.998 136.873 130.085 137.087 130.258 137.26C130.445 137.433 130.645 137.52 130.858 137.52C131.432 137.52 131.912 137.46 132.298 137.34C132.685 137.22 133.152 137 133.698 136.68C133.765 136.467 133.805 136.167 133.818 135.78C133.818 135.633 133.825 135.52 133.838 135.44C133.118 135.32 132.498 135.26 131.978 135.26ZM150.842 138.3C150.642 137.927 150.515 137.513 150.462 137.06C150.409 136.593 150.382 135.953 150.382 135.14C150.382 134.367 150.275 133.693 150.062 133.12C149.849 132.547 149.409 132.26 148.742 132.26C148.489 132.26 148.235 132.34 147.982 132.5C147.742 132.647 147.562 132.833 147.442 133.06C147.255 133.42 147.129 133.813 147.062 134.24C146.995 134.653 146.962 135.133 146.962 135.68C146.962 136.027 146.982 136.38 147.022 136.74C147.022 136.847 147.029 137.02 147.042 137.26C147.069 137.487 147.082 137.693 147.082 137.88C147.082 138.68 146.802 139.08 146.242 139.08C145.509 139.08 145.122 138.693 145.082 137.92C145.082 137.373 145.089 137.08 145.102 137.04V136.18C145.102 135.7 145.082 135.233 145.042 134.78C145.002 134.327 144.955 133.987 144.902 133.76C144.782 133.32 144.622 132.98 144.422 132.74C144.235 132.5 143.935 132.38 143.522 132.38C142.935 132.38 142.462 132.633 142.102 133.14C141.849 133.54 141.682 134.027 141.602 134.6C141.522 135.333 141.462 135.913 141.422 136.34C141.395 136.753 141.382 137.233 141.382 137.78C141.382 138.167 141.315 138.48 141.182 138.72C141.062 138.96 140.829 139.08 140.482 139.08C140.229 139.08 139.962 139.013 139.682 138.88C139.415 138.733 139.282 138.54 139.282 138.3C139.282 138.047 139.309 137.793 139.362 137.54C139.482 136.78 139.542 135.42 139.542 133.46C139.542 133.14 139.462 132.833 139.302 132.54C139.155 132.233 138.975 132.08 138.762 132.08C138.709 132.08 138.609 132.107 138.462 132.16C138.329 132.213 138.229 132.24 138.162 132.24C137.989 132.24 137.829 132.16 137.682 132C137.549 131.84 137.482 131.707 137.482 131.6C137.482 131.267 137.642 130.987 137.962 130.76C138.295 130.52 138.642 130.4 139.002 130.4C139.495 130.4 139.915 130.553 140.262 130.86C140.609 131.167 140.875 131.593 141.062 132.14C141.369 131.607 141.782 131.18 142.302 130.86C142.822 130.527 143.402 130.36 144.042 130.36C144.442 130.36 144.762 130.413 145.002 130.52C145.255 130.613 145.462 130.753 145.622 130.94C145.782 131.113 145.989 131.38 146.242 131.74C146.575 131.313 147.002 130.98 147.522 130.74C148.055 130.5 148.602 130.38 149.162 130.38C149.829 130.38 150.429 130.653 150.962 131.2C151.495 131.733 151.855 132.353 152.042 133.06C152.135 133.42 152.182 134.113 152.182 135.14L152.262 136.3C152.329 136.993 152.555 137.413 152.942 137.56C153.395 137.693 153.622 137.833 153.622 137.98C153.622 138.3 153.542 138.533 153.382 138.68C153.262 138.76 153.095 138.847 152.882 138.94C152.669 139.033 152.502 139.08 152.382 139.08C151.662 139.08 151.149 138.82 150.842 138.3ZM165.411 126.28C166.304 126.28 167.117 126.393 167.851 126.62C168.584 126.833 169.184 127.153 169.651 127.58C170.491 128.34 171.077 129.173 171.411 130.08C171.757 130.973 171.931 132.12 171.931 133.52C171.931 133.813 171.891 134.08 171.811 134.32C171.744 134.56 171.631 134.867 171.471 135.24C171.271 135.653 171.151 135.98 171.111 136.22C170.844 136.687 170.404 137.133 169.791 137.56C169.191 137.987 168.537 138.333 167.831 138.6C167.124 138.867 166.504 139 165.971 139C163.397 139 161.564 138.12 160.471 136.36C160.164 135.867 159.924 135.353 159.751 134.82C159.591 134.287 159.511 133.767 159.511 133.26C159.511 131.9 159.751 130.72 160.231 129.72C160.724 128.707 161.404 127.92 162.271 127.36C162.791 127.053 163.331 126.8 163.891 126.6C164.464 126.387 164.971 126.28 165.411 126.28ZM161.591 133.32C161.591 134.04 161.751 134.633 162.071 135.1C162.404 135.567 162.911 136.073 163.591 136.62C164.151 136.833 164.531 136.973 164.731 137.04C164.931 137.093 165.157 137.12 165.411 137.12C166.757 137.12 167.831 136.753 168.631 136.02C169.431 135.287 169.831 134.28 169.831 133C169.831 131.987 169.717 131.187 169.491 130.6C169.264 130.013 168.857 129.487 168.271 129.02C167.964 128.767 167.571 128.58 167.091 128.46C166.624 128.34 166.117 128.28 165.571 128.28C164.744 128.28 164.031 128.527 163.431 129.02C162.831 129.5 162.371 130.127 162.051 130.9C161.744 131.673 161.591 132.48 161.591 133.32ZM182.303 138.9C182.023 138.9 181.756 138.82 181.503 138.66C181.263 138.487 181.05 138.307 180.863 138.12C180.676 137.92 180.55 137.787 180.483 137.72C180.203 138.12 179.796 138.447 179.263 138.7C178.73 138.953 178.216 139.08 177.723 139.08C176.963 139.08 176.29 138.92 175.703 138.6C175.116 138.28 174.663 137.847 174.343 137.3C174.023 136.74 173.863 136.12 173.863 135.44C173.863 134.8 173.936 134.187 174.083 133.6C174.243 133 174.456 132.5 174.723 132.1C175.083 131.593 175.563 131.193 176.163 130.9C176.776 130.607 177.383 130.46 177.983 130.46C178.343 130.46 178.683 130.527 179.003 130.66C179.323 130.793 179.603 130.96 179.843 131.16C179.843 130.28 179.836 129.727 179.823 129.5V129.06C179.823 127.807 179.903 126.893 180.063 126.32C180.21 125.76 180.57 125.48 181.143 125.48C181.45 125.48 181.676 125.547 181.823 125.68C181.97 125.813 182.043 126.067 182.043 126.44C182.043 126.573 182.01 126.94 181.943 127.54C181.796 129.033 181.723 130.527 181.723 132.02C181.723 133.273 181.743 134.207 181.783 134.82C181.836 135.42 181.936 135.9 182.083 136.26C182.243 136.62 182.49 136.94 182.823 137.22C183.023 137.38 183.163 137.513 183.243 137.62C183.336 137.727 183.383 137.867 183.383 138.04C183.383 138.253 183.276 138.453 183.063 138.64C182.85 138.813 182.596 138.9 182.303 138.9ZM177.663 137.46C178.37 137.46 178.89 137.24 179.223 136.8C179.57 136.347 179.743 135.773 179.743 135.08L179.723 133.96C179.71 133.747 179.703 133.46 179.703 133.1C179.21 132.513 178.676 132.22 178.103 132.22C177.716 132.22 177.35 132.32 177.003 132.52C176.67 132.72 176.396 133.013 176.183 133.4C175.956 133.84 175.843 134.507 175.843 135.4C175.843 136.013 176.023 136.513 176.383 136.9C176.743 137.273 177.17 137.46 177.663 137.46ZM192.706 126.48C192.706 126.613 192.686 126.78 192.646 126.98C192.633 127.06 192.619 127.147 192.606 127.24C192.593 127.333 192.579 127.447 192.566 127.58C192.446 128.78 192.386 130.267 192.386 132.04C192.386 133.72 192.459 134.967 192.606 135.78C192.753 136.593 192.979 137.08 193.286 137.24L193.666 137.4C193.866 137.467 194.013 137.54 194.106 137.62C194.213 137.7 194.266 137.833 194.266 138.02C194.266 138.287 194.126 138.52 193.846 138.72C193.566 138.907 193.259 139 192.926 139C192.579 139 192.239 138.86 191.906 138.58C191.573 138.287 191.299 137.92 191.086 137.48C190.859 137.96 190.459 138.347 189.886 138.64C189.313 138.92 188.766 139.06 188.246 139.06C187.779 139.06 187.373 139 187.026 138.88C186.679 138.747 186.319 138.547 185.946 138.28C185.493 137.96 185.146 137.553 184.906 137.06C184.679 136.567 184.566 136.027 184.566 135.44C184.566 134.853 184.679 134.233 184.906 133.58C185.133 132.913 185.393 132.367 185.686 131.94C186.033 131.447 186.493 131.08 187.066 130.84C187.639 130.587 188.233 130.46 188.846 130.46C189.193 130.46 189.493 130.527 189.746 130.66C189.999 130.78 190.259 130.953 190.526 131.18C190.526 130.513 190.513 129.953 190.486 129.5C190.473 129.38 190.466 129.24 190.466 129.08C190.466 127.933 190.559 127.027 190.746 126.36C190.893 125.8 191.246 125.52 191.806 125.52C192.113 125.52 192.339 125.587 192.486 125.72C192.633 125.853 192.706 126.107 192.706 126.48ZM186.506 135.4C186.506 136.08 186.726 136.6 187.166 136.96C187.366 137.147 187.533 137.273 187.666 137.34C187.799 137.407 187.966 137.44 188.166 137.44C188.553 137.44 188.919 137.333 189.266 137.12C189.626 136.893 189.906 136.6 190.106 136.24C190.319 135.88 190.426 135.493 190.426 135.08L190.406 133.1C190.126 132.78 189.866 132.56 189.626 132.44C189.399 132.307 189.159 132.24 188.906 132.24C188.053 132.24 187.466 132.567 187.146 133.22C186.973 133.527 186.819 133.873 186.686 134.26C186.566 134.647 186.506 135.027 186.506 135.4ZM201.205 134.5C201.312 134.567 201.518 134.693 201.825 134.88C202.145 135.053 202.358 135.26 202.465 135.5C202.572 135.74 202.625 136.073 202.625 136.5C202.625 136.98 202.485 137.407 202.205 137.78C201.925 138.14 201.565 138.42 201.125 138.62C200.805 138.767 200.412 138.88 199.945 138.96C199.492 139.04 199.132 139.08 198.865 139.08C198.598 139.08 198.252 139.04 197.825 138.96C197.412 138.88 197.125 138.807 196.965 138.74C196.552 138.5 196.192 138.207 195.885 137.86C195.592 137.513 195.445 137.16 195.445 136.8C195.445 136.533 195.532 136.327 195.705 136.18C195.878 136.02 196.105 135.94 196.385 135.94C196.518 135.94 196.658 135.993 196.805 136.1C196.952 136.193 197.052 136.293 197.105 136.4C197.252 136.747 197.498 137.007 197.845 137.18C198.192 137.353 198.545 137.44 198.905 137.44C199.372 137.44 199.805 137.367 200.205 137.22C200.605 137.06 200.805 136.847 200.805 136.58C200.805 136.46 200.772 136.367 200.705 136.3C200.652 136.22 200.572 136.14 200.465 136.06C200.278 135.927 199.998 135.82 199.625 135.74C199.252 135.647 199.012 135.587 198.905 135.56C198.358 135.44 197.825 135.26 197.305 135.02C196.785 134.767 196.372 134.467 196.065 134.12C195.758 133.773 195.605 133.327 195.605 132.78C195.605 132.42 195.738 132.047 196.005 131.66C196.272 131.26 196.572 130.98 196.905 130.82C197.145 130.727 197.545 130.627 198.105 130.52C198.678 130.413 199.065 130.36 199.265 130.36C199.572 130.36 199.905 130.393 200.265 130.46C200.625 130.513 200.898 130.607 201.085 130.74C201.445 130.953 201.738 131.18 201.965 131.42C202.192 131.647 202.305 131.907 202.305 132.2C202.305 132.347 202.272 132.507 202.205 132.68C202.138 132.84 202.058 132.94 201.965 132.98C201.765 133.073 201.532 133.12 201.265 133.12C201.145 133.12 201.045 133.087 200.965 133.02C200.898 132.953 200.805 132.847 200.685 132.7C200.538 132.473 200.398 132.34 200.265 132.3C200.105 132.26 199.872 132.213 199.565 132.16C199.258 132.093 199.052 132.06 198.945 132.06C198.638 132.06 198.318 132.147 197.985 132.32C197.665 132.493 197.505 132.693 197.505 132.92C197.505 133.04 197.552 133.133 197.645 133.2C197.752 133.267 197.858 133.327 197.965 133.38C198.085 133.433 198.165 133.467 198.205 133.48C198.485 133.613 198.792 133.727 199.125 133.82C199.472 133.913 199.685 133.973 199.765 134C200.485 134.173 200.965 134.34 201.205 134.5Z" fill="black"/>
<path d="M106.161 220.34C106.161 219.767 106.581 219.48 107.421 219.48C107.781 219.48 108.468 219.493 109.481 219.52C110.601 219.573 111.448 219.6 112.021 219.6C112.488 219.6 113.055 219.573 113.721 219.52C114.175 219.493 114.461 219.48 114.581 219.48C115.315 219.507 115.935 219.64 116.441 219.88C116.588 219.947 116.708 220.027 116.801 220.12C116.895 220.213 116.941 220.367 116.941 220.58C116.941 220.873 116.848 221.127 116.661 221.34C116.475 221.54 116.248 221.64 115.981 221.64C115.688 221.64 115.261 221.6 114.701 221.52C114.208 221.427 113.775 221.38 113.401 221.38C113.041 221.38 112.768 221.387 112.581 221.4C112.541 221.84 112.521 222.893 112.521 224.56C112.521 226.547 112.581 228.56 112.701 230.6L112.741 231.18C112.741 231.727 112.428 232 111.801 232C111.308 232 110.975 231.887 110.801 231.66C110.628 231.42 110.541 231.06 110.541 230.58C110.541 229.633 110.515 228.453 110.461 227.04C110.408 225.867 110.381 225.033 110.381 224.54C110.381 224.207 110.421 223.187 110.501 221.48L108.161 221.5C107.415 221.5 106.895 221.433 106.601 221.3C106.308 221.153 106.161 220.833 106.161 220.34ZM116.08 227.76C116.08 227.253 116.173 226.747 116.36 226.24C116.546 225.72 116.793 225.247 117.1 224.82C117.406 224.393 117.893 224.047 118.56 223.78C119.226 223.5 119.82 223.36 120.34 223.36C120.873 223.36 121.413 223.433 121.96 223.58C122.52 223.727 122.906 223.953 123.12 224.26C123.613 224.953 123.86 225.633 123.86 226.3C123.86 226.66 123.78 226.967 123.62 227.22C123.473 227.473 123.26 227.747 122.98 228.04C122.753 228.28 122.393 228.44 121.9 228.52C121.42 228.6 120.94 228.64 120.46 228.64C120.153 228.64 119.78 228.613 119.34 228.56C118.9 228.493 118.473 228.413 118.06 228.32C118.086 228.587 118.153 228.847 118.26 229.1C118.366 229.353 118.493 229.547 118.64 229.68C118.906 229.933 119.18 230.093 119.46 230.16C119.753 230.227 120.126 230.26 120.58 230.26C121.06 230.26 121.506 230.18 121.92 230.02C122.253 229.9 122.526 229.84 122.74 229.84C122.993 229.84 123.186 229.92 123.32 230.08C123.453 230.227 123.52 230.42 123.52 230.66C123.52 230.993 123.326 231.267 122.94 231.48C122.553 231.693 122.106 231.853 121.6 231.96C121.106 232.053 120.706 232.1 120.4 232.1C119.773 232.1 119.166 231.987 118.58 231.76C117.993 231.533 117.506 231.213 117.12 230.8C116.8 230.427 116.546 229.98 116.36 229.46C116.173 228.927 116.08 228.36 116.08 227.76ZM120.44 225.06C120.146 225.06 119.853 225.12 119.56 225.24C119.266 225.347 119.026 225.5 118.84 225.7C118.6 225.953 118.433 226.16 118.34 226.32C118.26 226.467 118.206 226.673 118.18 226.94C118.513 227.047 119.206 227.1 120.26 227.1C120.833 227.1 121.273 227.013 121.58 226.84C121.9 226.667 122.06 226.44 122.06 226.16C122.06 225.88 121.886 225.627 121.54 225.4C121.193 225.173 120.826 225.06 120.44 225.06ZM133.371 232.08C132.918 232.08 132.571 232.013 132.331 231.88C132.091 231.733 131.831 231.467 131.551 231.08C131.204 231.387 130.684 231.633 129.991 231.82C129.311 232.007 128.724 232.1 128.231 232.1C127.418 232.1 126.758 231.88 126.251 231.44C125.758 230.987 125.511 230.327 125.511 229.46C125.511 229.087 125.611 228.747 125.811 228.44C126.024 228.12 126.298 227.84 126.631 227.6C127.004 227.347 127.444 227.147 127.951 227C128.471 226.853 128.944 226.78 129.371 226.78C130.091 226.78 130.731 226.847 131.291 226.98V226.96C131.291 226.24 131.111 225.747 130.751 225.48C130.404 225.2 129.844 225.06 129.071 225.06C128.578 225.06 128.151 225.28 127.791 225.72C127.658 225.893 127.378 225.98 126.951 225.98C126.738 225.98 126.578 225.893 126.471 225.72C126.378 225.533 126.331 225.347 126.331 225.16C126.331 224.773 126.491 224.44 126.811 224.16C127.144 223.88 127.544 223.673 128.011 223.54C128.478 223.393 128.911 223.32 129.311 223.32C129.698 223.32 130.158 223.4 130.691 223.56C131.224 223.72 131.658 223.933 131.991 224.2C132.391 224.547 132.698 224.953 132.911 225.42C133.138 225.873 133.251 226.373 133.251 226.92C133.251 227.093 133.238 227.353 133.211 227.7C133.184 228.1 133.171 228.427 133.171 228.68C133.171 228.8 133.158 228.953 133.131 229.14C133.104 229.38 133.091 229.58 133.091 229.74C133.091 229.913 133.144 230.08 133.251 230.24C133.358 230.4 133.504 230.533 133.691 230.64C133.864 230.733 133.978 230.833 134.031 230.94C134.084 231.047 134.111 231.167 134.111 231.3C134.111 231.433 134.024 231.6 133.851 231.8C133.691 231.987 133.531 232.08 133.371 232.08ZM129.371 228.26C128.851 228.26 128.391 228.36 127.991 228.56C127.591 228.76 127.391 229.113 127.391 229.62C127.391 229.873 127.478 230.087 127.651 230.26C127.838 230.433 128.038 230.52 128.251 230.52C128.824 230.52 129.304 230.46 129.691 230.34C130.078 230.22 130.544 230 131.091 229.68C131.158 229.467 131.198 229.167 131.211 228.78C131.211 228.633 131.218 228.52 131.231 228.44C130.511 228.32 129.891 228.26 129.371 228.26ZM148.235 231.3C148.035 230.927 147.908 230.513 147.855 230.06C147.801 229.593 147.775 228.953 147.775 228.14C147.775 227.367 147.668 226.693 147.455 226.12C147.241 225.547 146.801 225.26 146.135 225.26C145.881 225.26 145.628 225.34 145.375 225.5C145.135 225.647 144.955 225.833 144.835 226.06C144.648 226.42 144.521 226.813 144.455 227.24C144.388 227.653 144.355 228.133 144.355 228.68C144.355 229.027 144.375 229.38 144.415 229.74C144.415 229.847 144.421 230.02 144.435 230.26C144.461 230.487 144.475 230.693 144.475 230.88C144.475 231.68 144.195 232.08 143.635 232.08C142.901 232.08 142.515 231.693 142.475 230.92C142.475 230.373 142.481 230.08 142.495 230.04V229.18C142.495 228.7 142.475 228.233 142.435 227.78C142.395 227.327 142.348 226.987 142.295 226.76C142.175 226.32 142.015 225.98 141.815 225.74C141.628 225.5 141.328 225.38 140.915 225.38C140.328 225.38 139.855 225.633 139.495 226.14C139.241 226.54 139.075 227.027 138.995 227.6C138.915 228.333 138.855 228.913 138.815 229.34C138.788 229.753 138.775 230.233 138.775 230.78C138.775 231.167 138.708 231.48 138.575 231.72C138.455 231.96 138.221 232.08 137.875 232.08C137.621 232.08 137.355 232.013 137.075 231.88C136.808 231.733 136.675 231.54 136.675 231.3C136.675 231.047 136.701 230.793 136.755 230.54C136.875 229.78 136.935 228.42 136.935 226.46C136.935 226.14 136.855 225.833 136.695 225.54C136.548 225.233 136.368 225.08 136.155 225.08C136.101 225.08 136.001 225.107 135.855 225.16C135.721 225.213 135.621 225.24 135.555 225.24C135.381 225.24 135.221 225.16 135.075 225C134.941 224.84 134.875 224.707 134.875 224.6C134.875 224.267 135.035 223.987 135.355 223.76C135.688 223.52 136.035 223.4 136.395 223.4C136.888 223.4 137.308 223.553 137.655 223.86C138.001 224.167 138.268 224.593 138.455 225.14C138.761 224.607 139.175 224.18 139.695 223.86C140.215 223.527 140.795 223.36 141.435 223.36C141.835 223.36 142.155 223.413 142.395 223.52C142.648 223.613 142.855 223.753 143.015 223.94C143.175 224.113 143.381 224.38 143.635 224.74C143.968 224.313 144.395 223.98 144.915 223.74C145.448 223.5 145.995 223.38 146.555 223.38C147.221 223.38 147.821 223.653 148.355 224.2C148.888 224.733 149.248 225.353 149.435 226.06C149.528 226.42 149.575 227.113 149.575 228.14L149.655 229.3C149.721 229.993 149.948 230.413 150.335 230.56C150.788 230.693 151.015 230.833 151.015 230.98C151.015 231.3 150.935 231.533 150.775 231.68C150.655 231.76 150.488 231.847 150.275 231.94C150.061 232.033 149.895 232.08 149.775 232.08C149.055 232.08 148.541 231.82 148.235 231.3ZM165.503 229.28C165.757 229.28 165.943 229.38 166.063 229.58C166.197 229.767 166.263 229.973 166.263 230.2C166.263 230.48 166.217 230.68 166.123 230.8C166.043 230.907 165.883 231.02 165.643 231.14C165.083 231.407 164.39 231.62 163.563 231.78C162.737 231.94 161.85 232.02 160.903 232.02C159.717 232.02 158.843 231.82 158.283 231.42C157.737 231.02 157.397 230.54 157.263 229.98C157.143 229.407 157.083 228.66 157.083 227.74C157.083 226.753 157.123 225.787 157.203 224.84C157.283 223.88 157.423 222.66 157.623 221.18C157.717 220.54 157.97 220.08 158.383 219.8C158.797 219.507 159.25 219.36 159.743 219.36C160.157 219.36 160.83 219.347 161.763 219.32L163.503 219.3C164.223 219.3 164.743 219.32 165.063 219.36C165.463 219.44 165.757 219.533 165.943 219.64C166.143 219.733 166.243 219.9 166.243 220.14C166.243 220.407 166.15 220.667 165.963 220.92C165.79 221.173 165.523 221.3 165.163 221.3C164.75 221.3 164.157 221.273 163.383 221.22C162.61 221.167 162.03 221.14 161.643 221.14C161.31 221.14 160.983 221.16 160.663 221.2C160.29 221.227 160.023 221.273 159.863 221.34C159.703 221.407 159.61 221.52 159.583 221.68C159.397 223.053 159.303 224.067 159.303 224.72C159.61 224.76 159.91 224.78 160.203 224.78C160.577 224.78 160.977 224.76 161.403 224.72C161.83 224.68 162.103 224.653 162.223 224.64C162.93 224.573 163.537 224.54 164.043 224.54C164.337 224.54 164.557 224.593 164.703 224.7C164.863 224.807 164.943 224.953 164.943 225.14C164.943 225.433 164.863 225.66 164.703 225.82C164.557 225.98 164.29 226.1 163.903 226.18C163.437 226.273 162.857 226.347 162.163 226.4C161.483 226.453 160.817 226.48 160.163 226.48C159.937 226.48 159.623 226.467 159.223 226.44C159.183 227.253 159.163 228.007 159.163 228.7C159.163 229.647 159.79 230.12 161.043 230.12C161.71 230.12 162.263 230.073 162.703 229.98C163.143 229.887 163.65 229.753 164.223 229.58C164.757 229.38 165.183 229.28 165.503 229.28ZM172.598 226.86C172.638 226.753 172.778 226.367 173.018 225.7C173.272 225.033 173.505 224.527 173.718 224.18C174.065 223.633 174.372 223.36 174.638 223.36C175.012 223.36 175.298 223.433 175.498 223.58C175.698 223.713 175.798 223.907 175.798 224.16C175.798 224.28 175.745 224.447 175.638 224.66C175.545 224.873 175.492 225 175.478 225.04C174.945 226.213 174.465 227.473 174.038 228.82L173.618 230.38C173.458 230.887 173.185 231.3 172.798 231.62C172.412 231.927 171.958 232.08 171.438 232.08C170.972 232.08 170.538 231.867 170.138 231.44C169.898 231.067 169.645 230.593 169.378 230.02C169.125 229.447 168.905 228.887 168.718 228.34L168.018 226.24C167.872 225.827 167.752 225.473 167.658 225.18C167.578 224.887 167.538 224.62 167.538 224.38C167.525 224.1 167.605 223.873 167.778 223.7C167.952 223.527 168.192 223.44 168.498 223.44C168.845 223.44 169.092 223.513 169.238 223.66C169.385 223.793 169.518 224.007 169.638 224.3C169.692 224.607 169.838 225.233 170.078 226.18L170.218 226.74C170.338 227.193 170.492 227.653 170.678 228.12C170.865 228.587 171.052 229.033 171.238 229.46C171.212 229.393 171.305 229.613 171.518 230.12C171.652 229.733 171.805 229.26 171.978 228.7L172.598 226.86ZM177.056 227.48C177.056 227 177.143 226.553 177.316 226.14C177.49 225.713 177.743 225.273 178.076 224.82C178.41 224.367 178.87 224.013 179.456 223.76C180.043 223.493 180.683 223.36 181.376 223.36C181.91 223.36 182.423 223.473 182.916 223.7C183.423 223.913 183.876 224.18 184.276 224.5C184.33 224.593 184.423 224.767 184.556 225.02C184.69 225.26 184.783 225.48 184.836 225.68C184.903 225.88 184.936 226.087 184.936 226.3C184.936 227.193 184.61 227.793 183.956 228.1C183.303 228.393 182.476 228.54 181.476 228.54C180.476 228.54 179.663 228.473 179.036 228.34C179.063 228.593 179.13 228.847 179.236 229.1C179.343 229.353 179.47 229.547 179.616 229.68C179.883 229.933 180.143 230.1 180.396 230.18C180.663 230.247 181.016 230.28 181.456 230.28C182.123 230.28 182.643 230.153 183.016 229.9C183.363 229.673 183.63 229.56 183.816 229.56C184.07 229.56 184.263 229.64 184.396 229.8C184.53 229.947 184.596 230.14 184.596 230.38C184.596 230.887 184.27 231.3 183.616 231.62C182.976 231.94 182.25 232.1 181.436 232.1C180.796 232.1 180.163 231.987 179.536 231.76C178.91 231.533 178.41 231.213 178.036 230.8C177.783 230.373 177.556 229.853 177.356 229.24C177.156 228.627 177.056 228.04 177.056 227.48ZM181.456 225C181.163 225 180.856 225.053 180.536 225.16C180.23 225.253 179.99 225.4 179.816 225.6C179.603 225.827 179.443 226.033 179.336 226.22C179.243 226.407 179.183 226.64 179.156 226.92C179.303 226.92 179.443 226.927 179.576 226.94C179.71 226.953 179.836 226.967 179.956 226.98C180.543 227.033 180.983 227.06 181.276 227.06C181.863 227.06 182.31 226.973 182.616 226.8C182.936 226.627 183.096 226.393 183.096 226.1C183.096 225.82 182.916 225.567 182.556 225.34C182.21 225.113 181.843 225 181.456 225ZM195.985 230.46C196.051 230.487 196.158 230.52 196.305 230.56C196.451 230.6 196.558 230.64 196.625 230.68C196.691 230.72 196.725 230.78 196.725 230.86C196.738 231.18 196.618 231.447 196.365 231.66C196.125 231.86 195.838 231.96 195.505 231.96C194.985 231.96 194.578 231.82 194.285 231.54C193.991 231.26 193.778 230.833 193.645 230.26C193.591 230.033 193.565 229.72 193.565 229.32C193.565 229.093 193.578 228.727 193.605 228.22C193.631 227.687 193.645 227.26 193.645 226.94C193.645 226.367 193.585 225.933 193.465 225.64C193.345 225.333 193.058 225.18 192.605 225.18C192.138 225.18 191.718 225.367 191.345 225.74C190.985 226.113 190.678 226.673 190.425 227.42C190.078 228.46 189.885 229.84 189.845 231.56C189.845 231.653 189.745 231.767 189.545 231.9C189.358 232.02 189.131 232.08 188.865 232.08C188.371 232.08 188.065 231.82 187.945 231.3L187.925 230.96C187.925 230.84 187.938 230.7 187.965 230.54C188.125 229.607 188.205 228.793 188.205 228.1C188.205 227.793 188.198 227.553 188.185 227.38L188.165 226.44C188.165 226.12 188.085 225.813 187.925 225.52C187.765 225.213 187.578 225.06 187.365 225.06C187.298 225.06 187.205 225.087 187.085 225.14C186.965 225.18 186.865 225.2 186.785 225.2C186.651 225.2 186.505 225.133 186.345 225C186.198 224.867 186.125 224.727 186.125 224.58C186.125 224.3 186.218 224.073 186.405 223.9C186.605 223.74 186.798 223.613 186.985 223.52C187.185 223.427 187.411 223.38 187.665 223.38C187.878 223.38 188.051 223.4 188.185 223.44C188.318 223.48 188.498 223.567 188.725 223.7C188.858 223.767 189.011 223.953 189.185 224.26C189.358 224.567 189.491 225 189.585 225.56C189.851 225.067 190.298 224.547 190.925 224C191.391 223.573 192.065 223.36 192.945 223.36C193.745 223.36 194.378 223.653 194.845 224.24C195.311 224.813 195.545 225.607 195.545 226.62C195.545 226.82 195.531 227.147 195.505 227.6C195.465 227.96 195.445 228.34 195.445 228.74C195.445 229.673 195.625 230.247 195.985 230.46ZM203.812 227.5C203.919 227.567 204.126 227.693 204.432 227.88C204.752 228.053 204.966 228.26 205.072 228.5C205.179 228.74 205.232 229.073 205.232 229.5C205.232 229.98 205.092 230.407 204.812 230.78C204.532 231.14 204.172 231.42 203.732 231.62C203.412 231.767 203.019 231.88 202.552 231.96C202.099 232.04 201.739 232.08 201.472 232.08C201.206 232.08 200.859 232.04 200.432 231.96C200.019 231.88 199.732 231.807 199.572 231.74C199.159 231.5 198.799 231.207 198.492 230.86C198.199 230.513 198.052 230.16 198.052 229.8C198.052 229.533 198.139 229.327 198.312 229.18C198.486 229.02 198.712 228.94 198.992 228.94C199.126 228.94 199.266 228.993 199.412 229.1C199.559 229.193 199.659 229.293 199.712 229.4C199.859 229.747 200.106 230.007 200.452 230.18C200.799 230.353 201.152 230.44 201.512 230.44C201.979 230.44 202.412 230.367 202.812 230.22C203.212 230.06 203.412 229.847 203.412 229.58C203.412 229.46 203.379 229.367 203.312 229.3C203.259 229.22 203.179 229.14 203.072 229.06C202.886 228.927 202.606 228.82 202.232 228.74C201.859 228.647 201.619 228.587 201.512 228.56C200.966 228.44 200.432 228.26 199.912 228.02C199.392 227.767 198.979 227.467 198.672 227.12C198.366 226.773 198.212 226.327 198.212 225.78C198.212 225.42 198.346 225.047 198.612 224.66C198.879 224.26 199.179 223.98 199.512 223.82C199.752 223.727 200.152 223.627 200.712 223.52C201.286 223.413 201.672 223.36 201.872 223.36C202.179 223.36 202.512 223.393 202.872 223.46C203.232 223.513 203.506 223.607 203.692 223.74C204.052 223.953 204.346 224.18 204.572 224.42C204.799 224.647 204.912 224.907 204.912 225.2C204.912 225.347 204.879 225.507 204.812 225.68C204.746 225.84 204.666 225.94 204.572 225.98C204.372 226.073 204.139 226.12 203.872 226.12C203.752 226.12 203.652 226.087 203.572 226.02C203.506 225.953 203.412 225.847 203.292 225.7C203.146 225.473 203.006 225.34 202.872 225.3C202.712 225.26 202.479 225.213 202.172 225.16C201.866 225.093 201.659 225.06 201.552 225.06C201.246 225.06 200.926 225.147 200.592 225.32C200.272 225.493 200.112 225.693 200.112 225.92C200.112 226.04 200.159 226.133 200.252 226.2C200.359 226.267 200.466 226.327 200.572 226.38C200.692 226.433 200.772 226.467 200.812 226.48C201.092 226.613 201.399 226.727 201.732 226.82C202.079 226.913 202.292 226.973 202.372 227C203.092 227.173 203.572 227.34 203.812 227.5Z" fill="black"/>
</svg>
