<svg width="146" height="172" viewBox="0 0 146 172" fill="none" xmlns="http://www.w3.org/2000/svg">
<path d="M110.752 130.476C122.799 144.668 146 136.149 146 117.533V20C146 8.9543 137.046 0 126 0H43.2105C26.1686 0 16.9346 19.9503 27.963 32.9427L110.752 130.476Z" fill="#C10BA9"/>
<path d="M100.445 71.44C100.525 71.16 100.645 70.9333 100.805 70.76C100.965 70.5733 101.138 70.48 101.325 70.48C101.778 70.48 102.105 70.5667 102.305 70.74C102.505 70.9133 102.605 71.2133 102.605 71.64C102.605 71.76 102.512 72.1 102.325 72.66C101.912 73.9267 101.458 75.4933 100.965 77.36C100.845 77.7867 100.745 78.16 100.665 78.48C100.598 78.8 100.538 79.0667 100.485 79.28C100.165 80.6533 99.8848 81.6867 99.6448 82.38C99.5648 82.58 99.4248 82.74 99.2248 82.86C99.0248 82.9667 98.8115 83.02 98.5848 83.02C98.3582 83.02 98.1315 82.9733 97.9048 82.88C97.6915 82.7733 97.5382 82.6533 97.4448 82.52C97.0315 81.7067 96.5182 80.6 95.9048 79.2C95.3048 77.7867 94.8382 76.5533 94.5048 75.5C93.6782 77.5933 92.9382 79.6133 92.2848 81.56C92.2448 81.68 92.1982 81.8133 92.1448 81.96C92.1048 82.0933 92.0582 82.2333 92.0048 82.38C91.9115 82.58 91.7782 82.74 91.6048 82.86C91.4315 82.9667 91.2382 83.02 91.0248 83.02C90.7848 83.02 90.5515 82.9733 90.3248 82.88C90.0982 82.7733 89.9448 82.6533 89.8648 82.52C89.6915 82.2267 89.5048 81.7733 89.3048 81.16C89.1182 80.5467 88.8648 79.6867 88.5448 78.58L88.0448 76.88C87.6982 75.7733 87.3982 74.64 87.1448 73.48C86.8915 72.32 86.7648 71.6267 86.7648 71.4C86.7648 71.12 86.9048 70.9 87.1848 70.74C87.4648 70.5667 87.7448 70.48 88.0248 70.48C88.1848 70.48 88.3515 70.5333 88.5248 70.64C88.6982 70.7333 88.8115 70.9 88.8648 71.14C89.3315 73.6333 90.0182 76.5267 90.9248 79.82C91.2715 78.9933 91.6515 77.9867 92.0648 76.8C92.4915 75.6133 92.8982 74.46 93.2848 73.34L93.4848 72.74C93.5382 72.54 93.6715 72.3867 93.8848 72.28C94.1115 72.16 94.3382 72.1 94.5648 72.1C94.8582 72.1 95.0982 72.1733 95.2848 72.32C95.4715 72.4667 95.5915 72.6267 95.6448 72.8C95.6582 72.8533 95.9248 73.6467 96.4448 75.18C96.9648 76.7133 97.5848 78.26 98.3048 79.82C98.5715 79.0333 98.8915 77.7733 99.2648 76.04L99.5648 74.72C99.9248 73.3067 100.218 72.2133 100.445 71.44ZM111.371 76.58C111.477 76.7667 111.564 77.04 111.631 77.4C111.697 77.7467 111.731 78.06 111.731 78.34C111.731 78.86 111.617 79.6 111.391 80.56C110.471 82.24 109.111 83.08 107.311 83.08C106.644 83.08 105.964 82.86 105.271 82.42C104.577 81.98 104.097 81.4733 103.831 80.9C103.471 79.7533 103.291 79.0267 103.291 78.72C103.291 78.1867 103.404 77.62 103.631 77.02C103.871 76.42 104.171 75.9 104.531 75.46C104.757 75.1533 105.164 74.8933 105.751 74.68C106.337 74.4533 106.871 74.34 107.351 74.34C108.284 74.34 109.077 74.52 109.731 74.88C110.384 75.2267 110.931 75.7933 111.371 76.58ZM109.631 79.8C109.697 79.6267 109.731 79.18 109.731 78.46C109.731 78.0733 109.657 77.6933 109.511 77.32C109.377 76.9467 109.177 76.6267 108.911 76.36C108.884 76.3333 108.811 76.2933 108.691 76.24C108.571 76.1733 108.404 76.1133 108.191 76.06C107.991 75.9933 107.757 75.96 107.491 75.96C106.744 75.96 106.197 76.26 105.851 76.86C105.504 77.46 105.331 78.14 105.331 78.9C105.331 79.0333 105.364 79.2867 105.431 79.66C105.511 80.0333 105.577 80.2667 105.631 80.36C105.671 80.4533 105.771 80.5867 105.931 80.76C106.104 80.92 106.311 81.0667 106.551 81.2C106.804 81.32 107.064 81.38 107.331 81.38C107.931 81.38 108.411 81.24 108.771 80.96C109.131 80.6667 109.417 80.28 109.631 79.8ZM116.645 82.2C116.645 82.4267 116.558 82.6267 116.385 82.8C116.212 82.9733 115.998 83.06 115.745 83.06C115.345 83.06 115.052 82.9867 114.865 82.84C114.678 82.68 114.585 82.3933 114.585 81.98C114.585 81.4867 114.572 80.84 114.545 80.04C114.518 79.3733 114.505 78.8133 114.505 78.36C114.505 78.1467 114.518 77.8667 114.545 77.52C114.572 77.2 114.585 76.96 114.585 76.8C114.545 76.5467 114.445 76.34 114.285 76.18C114.125 76.0067 113.918 75.92 113.665 75.92C113.545 75.92 113.445 75.8667 113.365 75.76C113.285 75.64 113.245 75.52 113.245 75.4C113.245 75.0933 113.365 74.86 113.605 74.7C113.858 74.54 114.158 74.46 114.505 74.46C115.225 74.46 115.725 74.8867 116.005 75.74C116.352 75.34 116.745 75.02 117.185 74.78C117.638 74.5267 118.072 74.4 118.485 74.4C118.978 74.4 119.425 74.5333 119.825 74.8C120.238 75.0667 120.445 75.4267 120.445 75.88C120.445 76.1333 120.332 76.3933 120.105 76.66C119.892 76.9267 119.672 77.06 119.445 77.06C119.325 77.06 119.218 77.0333 119.125 76.98C119.045 76.9133 118.945 76.82 118.825 76.7C118.692 76.5667 118.578 76.4733 118.485 76.42C118.392 76.3533 118.285 76.32 118.165 76.32C117.952 76.32 117.752 76.3533 117.565 76.42C117.378 76.4867 117.252 76.5667 117.185 76.66C116.972 76.9933 116.812 77.2933 116.705 77.56C116.612 77.8267 116.565 78.1133 116.565 78.42C116.565 78.6467 116.558 78.8267 116.545 78.96L116.525 80.1C116.525 80.2733 116.532 80.4667 116.545 80.68C116.558 80.8933 116.572 81.0533 116.585 81.16C116.625 81.52 116.645 81.8667 116.645 82.2ZM127.234 78.68C127.341 78.7467 127.548 78.8733 127.854 79.06C128.174 79.2333 128.388 79.44 128.494 79.68C128.601 79.92 128.654 80.2533 128.654 80.68C128.654 81.16 128.514 81.5867 128.234 81.96C127.954 82.32 127.594 82.6 127.154 82.8C126.848 82.9333 126.514 83.0133 126.154 83.04C125.808 83.0667 125.388 83.08 124.894 83.08C124.628 83.08 124.281 83.04 123.854 82.96C123.441 82.88 123.154 82.8067 122.994 82.74C122.568 82.5 122.208 82.22 121.914 81.9C121.621 81.58 121.474 81.2533 121.474 80.92C121.474 80.6533 121.561 80.44 121.734 80.28C121.908 80.12 122.134 80.04 122.414 80.04C122.561 80.04 122.701 80.08 122.834 80.16C122.981 80.2267 123.081 80.3067 123.134 80.4C123.281 80.7467 123.528 81.0067 123.874 81.18C124.221 81.3533 124.574 81.44 124.934 81.44C126.201 81.44 126.834 81.2133 126.834 80.76C126.834 80.64 126.801 80.5467 126.734 80.48C126.681 80.4 126.601 80.32 126.494 80.24C126.321 80.12 126.074 79.9933 125.754 79.86C125.448 79.7267 125.174 79.6267 124.934 79.56C124.388 79.44 123.854 79.26 123.334 79.02C122.854 78.78 122.461 78.4667 122.154 78.08C121.848 77.68 121.694 77.1933 121.694 76.62C121.694 76.2733 121.821 75.9333 122.074 75.6C122.341 75.2533 122.648 74.9933 122.994 74.82C123.234 74.7267 123.628 74.6267 124.174 74.52C124.721 74.4133 125.094 74.36 125.294 74.36C125.601 74.36 125.934 74.3933 126.294 74.46C126.654 74.5133 126.928 74.6067 127.114 74.74C127.474 74.9533 127.768 75.18 127.994 75.42C128.221 75.6467 128.334 75.9067 128.334 76.2C128.334 76.3467 128.301 76.5067 128.234 76.68C128.168 76.84 128.088 76.94 127.994 76.98C127.794 77.0733 127.561 77.12 127.294 77.12C127.174 77.12 127.074 77.0867 126.994 77.02C126.928 76.9533 126.834 76.8467 126.714 76.7C126.568 76.4733 126.428 76.34 126.294 76.3C126.134 76.26 125.901 76.2133 125.594 76.16C125.288 76.0933 125.081 76.06 124.974 76.06C124.641 76.06 124.321 76.1267 124.014 76.26C123.721 76.3933 123.574 76.5733 123.574 76.8C123.574 77.0667 123.794 77.2933 124.234 77.48C124.514 77.6133 124.821 77.7267 125.154 77.82C125.501 77.9133 125.714 77.9733 125.794 78C125.981 78.04 126.221 78.1333 126.514 78.28C126.821 78.4267 127.061 78.56 127.234 78.68ZM130.58 76.08C130.394 76.0533 130.24 75.9733 130.12 75.84C130.014 75.7067 129.96 75.5467 129.96 75.36C129.96 75.2667 129.98 75.1667 130.02 75.06C130.074 74.9533 130.147 74.86 130.24 74.78C130.414 74.6333 130.647 74.4933 130.94 74.36C131.247 74.24 131.467 74.0933 131.6 73.92C131.734 73.7467 131.8 73.42 131.8 72.94C131.8 72.74 131.787 72.5667 131.76 72.42C131.747 72.2733 131.74 72.16 131.74 72.08C131.74 71.7867 131.847 71.5667 132.06 71.42C132.274 71.2733 132.52 71.2 132.8 71.2C133.147 71.2 133.38 71.2867 133.5 71.46C133.634 71.6333 133.7 71.9533 133.7 72.42C133.7 72.8733 133.68 73.2667 133.64 73.6C133.6 73.92 133.514 74.2067 133.38 74.46C133.567 74.46 133.874 74.4467 134.3 74.42C134.887 74.3933 135.294 74.38 135.52 74.38C135.747 74.38 135.947 74.44 136.12 74.56C136.294 74.6667 136.38 74.82 136.38 75.02C136.38 75.3 136.32 75.5067 136.2 75.64C136.08 75.7733 135.907 75.86 135.68 75.9C135.134 76.0467 134.36 76.1333 133.36 76.16C133.334 76.68 133.32 77.2467 133.32 77.86C133.32 78.8867 133.38 79.6733 133.5 80.22C133.58 80.6467 133.714 80.96 133.9 81.16C134.1 81.3467 134.394 81.44 134.78 81.44C134.98 81.44 135.14 81.4133 135.26 81.36C135.394 81.3067 135.467 81.2733 135.48 81.26C135.64 81.1667 135.787 81.12 135.92 81.12C136.107 81.12 136.24 81.18 136.32 81.3C136.414 81.42 136.46 81.58 136.46 81.78C136.46 82.1533 136.26 82.4667 135.86 82.72C135.46 82.96 134.947 83.08 134.32 83.08C133.614 83.08 133.014 82.8733 132.52 82.46C132.04 82.0333 131.754 81.4733 131.66 80.78C131.527 80.1533 131.46 79.2733 131.46 78.14C131.46 77.6467 131.487 76.9867 131.54 76.16L130.58 76.08ZM97.7864 95.34C97.7864 94.7667 98.2064 94.48 99.0464 94.48C99.4064 94.48 100.093 94.4933 101.106 94.52C102.226 94.5733 103.073 94.6 103.646 94.6C104.113 94.6 104.68 94.5733 105.346 94.52C105.8 94.4933 106.086 94.48 106.206 94.48C106.94 94.5067 107.56 94.64 108.066 94.88C108.213 94.9467 108.333 95.0267 108.426 95.12C108.52 95.2133 108.566 95.3667 108.566 95.58C108.566 95.8733 108.473 96.1267 108.286 96.34C108.1 96.54 107.873 96.64 107.606 96.64C107.313 96.64 106.886 96.6 106.326 96.52C105.833 96.4267 105.4 96.38 105.026 96.38C104.666 96.38 104.393 96.3867 104.206 96.4C104.166 96.84 104.146 97.8933 104.146 99.56C104.146 101.547 104.206 103.56 104.326 105.6L104.366 106.18C104.366 106.727 104.053 107 103.426 107C102.933 107 102.6 106.887 102.426 106.66C102.253 106.42 102.166 106.06 102.166 105.58C102.166 104.633 102.14 103.453 102.086 102.04C102.033 100.867 102.006 100.033 102.006 99.54C102.006 99.2067 102.046 98.1867 102.126 96.48L99.7864 96.5C99.0397 96.5 98.5197 96.4333 98.2264 96.3C97.9331 96.1533 97.7864 95.8333 97.7864 95.34ZM108.012 100.26C107.905 100.26 107.805 100.22 107.712 100.14C107.632 100.047 107.592 99.94 107.592 99.82C107.592 99.5133 107.725 99.2267 107.992 98.96C108.072 98.92 108.232 98.8533 108.472 98.76C108.712 98.6667 108.925 98.62 109.112 98.62C109.619 98.62 110.032 98.76 110.352 99.04C110.672 99.3067 110.832 99.6933 110.832 100.2C110.832 100.347 110.805 100.66 110.752 101.14C110.699 101.7 110.672 102.133 110.672 102.44C110.672 103.373 110.799 104.127 111.052 104.7C111.145 104.887 111.292 105.033 111.492 105.14C111.692 105.247 111.872 105.3 112.032 105.3C112.419 105.3 112.732 105.233 112.972 105.1C113.212 104.967 113.472 104.753 113.752 104.46C114.032 104.167 114.212 103.833 114.292 103.46C114.385 103.087 114.452 102.573 114.492 101.92C114.519 101.493 114.545 101.18 114.572 100.98C114.639 100.34 114.672 99.7933 114.672 99.34C114.672 99.0467 114.752 98.8067 114.912 98.62C115.072 98.42 115.292 98.32 115.572 98.32C115.732 98.32 115.912 98.3733 116.112 98.48C116.325 98.5733 116.465 98.6867 116.532 98.82C116.612 98.9533 116.652 99.1733 116.652 99.48C116.652 99.64 116.632 99.7933 116.592 99.94C116.499 100.273 116.452 100.673 116.452 101.14L116.472 102.18C116.472 103.127 116.539 103.827 116.672 104.28C116.739 104.493 116.832 104.713 116.952 104.94C117.072 105.153 117.185 105.333 117.292 105.48C117.559 105.773 117.732 105.98 117.812 106.1C117.892 106.207 117.932 106.313 117.932 106.42C117.932 106.58 117.852 106.733 117.692 106.88C117.545 107.013 117.385 107.08 117.212 107.08C116.719 107.08 116.292 106.913 115.932 106.58C115.572 106.247 115.305 105.813 115.132 105.28C114.679 105.8 114.259 106.22 113.872 106.54C113.605 106.727 113.279 106.867 112.892 106.96C112.505 107.04 112.119 107.08 111.732 107.08C111.212 107.08 110.685 106.867 110.152 106.44C109.619 106.013 109.259 105.52 109.072 104.96C109.059 104.933 109.019 104.827 108.952 104.64C108.899 104.453 108.872 104.173 108.872 103.8C108.872 103.307 108.899 102.687 108.952 101.94C108.992 101.46 109.012 101.02 109.012 100.62C109.012 100.5 108.965 100.4 108.872 100.32C108.792 100.24 108.699 100.2 108.592 100.2C108.512 100.2 108.419 100.213 108.312 100.24C108.219 100.253 108.119 100.26 108.012 100.26ZM122.407 106.2C122.407 106.427 122.32 106.627 122.147 106.8C121.973 106.973 121.76 107.06 121.507 107.06C121.107 107.06 120.813 106.987 120.627 106.84C120.44 106.68 120.347 106.393 120.347 105.98C120.347 105.487 120.333 104.84 120.307 104.04C120.28 103.373 120.267 102.813 120.267 102.36C120.267 102.147 120.28 101.867 120.307 101.52C120.333 101.2 120.347 100.96 120.347 100.8C120.307 100.547 120.207 100.34 120.047 100.18C119.887 100.007 119.68 99.92 119.427 99.92C119.307 99.92 119.207 99.8667 119.127 99.76C119.047 99.64 119.007 99.52 119.007 99.4C119.007 99.0933 119.127 98.86 119.367 98.7C119.62 98.54 119.92 98.46 120.267 98.46C120.987 98.46 121.487 98.8867 121.767 99.74C122.113 99.34 122.507 99.02 122.947 98.78C123.4 98.5267 123.833 98.4 124.247 98.4C124.74 98.4 125.187 98.5333 125.587 98.8C126 99.0667 126.207 99.4267 126.207 99.88C126.207 100.133 126.093 100.393 125.867 100.66C125.653 100.927 125.433 101.06 125.207 101.06C125.087 101.06 124.98 101.033 124.887 100.98C124.807 100.913 124.707 100.82 124.587 100.7C124.453 100.567 124.34 100.473 124.247 100.42C124.153 100.353 124.047 100.32 123.927 100.32C123.713 100.32 123.513 100.353 123.327 100.42C123.14 100.487 123.013 100.567 122.947 100.66C122.733 100.993 122.573 101.293 122.467 101.56C122.373 101.827 122.327 102.113 122.327 102.42C122.327 102.647 122.32 102.827 122.307 102.96L122.287 104.1C122.287 104.273 122.293 104.467 122.307 104.68C122.32 104.893 122.333 105.053 122.347 105.16C122.387 105.52 122.407 105.867 122.407 106.2ZM127.236 99.96C127.129 99.88 127.043 99.8 126.976 99.72C126.909 99.6267 126.876 99.4667 126.876 99.24C126.876 98.9867 126.963 98.7933 127.136 98.66C127.323 98.5133 127.536 98.44 127.776 98.44C128.243 98.44 128.643 98.56 128.976 98.8C129.323 99.04 129.576 99.3733 129.736 99.8C130.029 99.2533 130.403 98.88 130.856 98.68C131.309 98.4667 131.936 98.36 132.736 98.36C133.056 98.36 133.383 98.46 133.716 98.66C134.063 98.8467 134.376 99.08 134.656 99.36C134.883 99.6533 135.076 100.02 135.236 100.46C135.396 100.887 135.476 101.273 135.476 101.62C135.476 101.82 135.463 102.147 135.436 102.6C135.409 103.08 135.396 103.46 135.396 103.74C135.396 104.673 135.576 105.247 135.936 105.46C135.989 105.487 136.089 105.52 136.236 105.56C136.383 105.6 136.489 105.64 136.556 105.68C136.636 105.72 136.676 105.78 136.676 105.86C136.689 106.18 136.569 106.447 136.316 106.66C136.076 106.86 135.783 106.96 135.436 106.96C134.916 106.96 134.509 106.82 134.216 106.54C133.923 106.26 133.716 105.833 133.596 105.26C133.529 105.047 133.496 104.733 133.496 104.32C133.496 104.093 133.509 103.727 133.536 103.22C133.576 102.82 133.596 102.393 133.596 101.94C133.596 101.473 133.463 101.067 133.196 100.72C132.929 100.36 132.563 100.18 132.096 100.18C131.816 100.18 131.523 100.267 131.216 100.44C130.909 100.6 130.696 100.8 130.576 101.04C130.376 101.453 130.243 101.873 130.176 102.3C130.016 103.127 129.936 103.92 129.936 104.68C129.936 104.867 129.949 105.227 129.976 105.76C129.976 105.8 129.976 105.9 129.976 106.06C129.976 106.207 129.956 106.347 129.916 106.48C129.889 106.613 129.836 106.733 129.756 106.84C129.703 106.893 129.603 106.947 129.456 107C129.309 107.053 129.183 107.08 129.076 107.08C128.889 107.08 128.656 107 128.376 106.84C128.096 106.68 127.929 106.5 127.876 106.3L127.856 106.02C127.856 105.913 127.869 105.753 127.896 105.54C128.056 104.607 128.136 103.793 128.136 103.1C128.136 102.793 128.129 102.56 128.116 102.4L128.096 101.48C128.096 101.2 128.016 100.933 127.856 100.68C127.696 100.413 127.489 100.173 127.236 99.96Z" fill="white"/>
</svg>
