<svg width="146" height="172" viewBox="0 0 146 172" fill="none" xmlns="http://www.w3.org/2000/svg">
<path d="M110.752 130.476C122.799 144.668 146 136.149 146 117.533V20C146 8.9543 137.046 0 126 0H43.2105C26.1686 0 16.9346 19.9503 27.963 32.9427L110.752 130.476Z" fill="#C10BA9"/>
<path d="M103.1 78.596C103.172 78.344 103.28 78.14 103.424 77.984C103.568 77.816 103.724 77.732 103.892 77.732C104.3 77.732 104.594 77.81 104.774 77.966C104.954 78.122 105.044 78.392 105.044 78.776C105.044 78.884 104.96 79.19 104.792 79.694C104.42 80.834 104.012 82.244 103.568 83.924C103.46 84.308 103.37 84.644 103.298 84.932C103.238 85.22 103.184 85.46 103.136 85.652C102.848 86.888 102.596 87.818 102.38 88.442C102.308 88.622 102.182 88.766 102.002 88.874C101.822 88.97 101.63 89.018 101.426 89.018C101.222 89.018 101.018 88.976 100.814 88.892C100.622 88.796 100.484 88.688 100.4 88.568C100.028 87.836 99.5664 86.84 99.0144 85.58C98.4744 84.308 98.0544 83.198 97.7544 82.25C97.0104 84.134 96.3444 85.952 95.7564 87.704C95.7204 87.812 95.6784 87.932 95.6304 88.064C95.5944 88.184 95.5524 88.31 95.5044 88.442C95.4204 88.622 95.3004 88.766 95.1444 88.874C94.9884 88.97 94.8144 89.018 94.6224 89.018C94.4064 89.018 94.1964 88.976 93.9924 88.892C93.7884 88.796 93.6504 88.688 93.5784 88.568C93.4224 88.304 93.2544 87.896 93.0744 87.344C92.9064 86.792 92.6784 86.018 92.3904 85.022L91.9404 83.492C91.6284 82.496 91.3584 81.476 91.1304 80.432C90.9024 79.388 90.7884 78.764 90.7884 78.56C90.7884 78.308 90.9144 78.11 91.1664 77.966C91.4184 77.81 91.6704 77.732 91.9224 77.732C92.0664 77.732 92.2164 77.78 92.3724 77.876C92.5284 77.96 92.6304 78.11 92.6784 78.326C93.0984 80.57 93.7164 83.174 94.5324 86.138C94.8444 85.394 95.1864 84.488 95.5584 83.42C95.9424 82.352 96.3084 81.314 96.6564 80.306L96.8364 79.766C96.8844 79.586 97.0044 79.448 97.1964 79.352C97.4004 79.244 97.6044 79.19 97.8084 79.19C98.0724 79.19 98.2884 79.256 98.4564 79.388C98.6244 79.52 98.7324 79.664 98.7804 79.82C98.7924 79.868 99.0324 80.582 99.5004 81.962C99.9684 83.342 100.526 84.734 101.174 86.138C101.414 85.43 101.702 84.296 102.038 82.736L102.308 81.548C102.632 80.276 102.896 79.292 103.1 78.596ZM112.934 83.222C113.03 83.39 113.108 83.636 113.168 83.96C113.228 84.272 113.258 84.554 113.258 84.806C113.258 85.274 113.156 85.94 112.952 86.804C112.124 88.316 110.9 89.072 109.28 89.072C108.68 89.072 108.068 88.874 107.444 88.478C106.82 88.082 106.388 87.626 106.148 87.11C105.824 86.078 105.662 85.424 105.662 85.148C105.662 84.668 105.764 84.158 105.968 83.618C106.184 83.078 106.454 82.61 106.778 82.214C106.982 81.938 107.348 81.704 107.876 81.512C108.404 81.308 108.884 81.206 109.316 81.206C110.156 81.206 110.87 81.368 111.458 81.692C112.046 82.004 112.538 82.514 112.934 83.222ZM111.368 86.12C111.428 85.964 111.458 85.562 111.458 84.914C111.458 84.566 111.392 84.224 111.26 83.888C111.14 83.552 110.96 83.264 110.72 83.024C110.696 83 110.63 82.964 110.522 82.916C110.414 82.856 110.264 82.802 110.072 82.754C109.892 82.694 109.682 82.664 109.442 82.664C108.77 82.664 108.278 82.934 107.966 83.474C107.654 84.014 107.498 84.626 107.498 85.31C107.498 85.43 107.528 85.658 107.588 85.994C107.66 86.33 107.72 86.54 107.768 86.624C107.804 86.708 107.894 86.828 108.038 86.984C108.194 87.128 108.38 87.26 108.596 87.38C108.824 87.488 109.058 87.542 109.298 87.542C109.838 87.542 110.27 87.416 110.594 87.164C110.918 86.9 111.176 86.552 111.368 86.12ZM117.681 88.28C117.681 88.484 117.603 88.664 117.447 88.82C117.291 88.976 117.099 89.054 116.871 89.054C116.511 89.054 116.247 88.988 116.079 88.856C115.911 88.712 115.827 88.454 115.827 88.082C115.827 87.638 115.815 87.056 115.791 86.336C115.767 85.736 115.755 85.232 115.755 84.824C115.755 84.632 115.767 84.38 115.791 84.068C115.815 83.78 115.827 83.564 115.827 83.42C115.791 83.192 115.701 83.006 115.557 82.862C115.413 82.706 115.227 82.628 114.999 82.628C114.891 82.628 114.801 82.58 114.729 82.484C114.657 82.376 114.621 82.268 114.621 82.16C114.621 81.884 114.729 81.674 114.945 81.53C115.173 81.386 115.443 81.314 115.755 81.314C116.403 81.314 116.853 81.698 117.105 82.466C117.417 82.106 117.771 81.818 118.167 81.602C118.575 81.374 118.965 81.26 119.337 81.26C119.781 81.26 120.183 81.38 120.543 81.62C120.915 81.86 121.101 82.184 121.101 82.592C121.101 82.82 120.999 83.054 120.795 83.294C120.603 83.534 120.405 83.654 120.201 83.654C120.093 83.654 119.997 83.63 119.913 83.582C119.841 83.522 119.751 83.438 119.643 83.33C119.523 83.21 119.421 83.126 119.337 83.078C119.253 83.018 119.157 82.988 119.049 82.988C118.857 82.988 118.677 83.018 118.509 83.078C118.341 83.138 118.227 83.21 118.167 83.294C117.975 83.594 117.831 83.864 117.735 84.104C117.651 84.344 117.609 84.602 117.609 84.878C117.609 85.082 117.603 85.244 117.591 85.364L117.573 86.39C117.573 86.546 117.579 86.72 117.591 86.912C117.603 87.104 117.615 87.248 117.627 87.344C117.663 87.668 117.681 87.98 117.681 88.28ZM127.211 85.112C127.307 85.172 127.493 85.286 127.769 85.454C128.057 85.61 128.249 85.796 128.345 86.012C128.441 86.228 128.489 86.528 128.489 86.912C128.489 87.344 128.363 87.728 128.111 88.064C127.859 88.388 127.535 88.64 127.139 88.82C126.863 88.94 126.563 89.012 126.239 89.036C125.927 89.06 125.549 89.072 125.105 89.072C124.865 89.072 124.553 89.036 124.169 88.964C123.797 88.892 123.539 88.826 123.395 88.766C123.011 88.55 122.687 88.298 122.423 88.01C122.159 87.722 122.027 87.428 122.027 87.128C122.027 86.888 122.105 86.696 122.261 86.552C122.417 86.408 122.621 86.336 122.873 86.336C123.005 86.336 123.131 86.372 123.251 86.444C123.383 86.504 123.473 86.576 123.521 86.66C123.653 86.972 123.875 87.206 124.187 87.362C124.499 87.518 124.817 87.596 125.141 87.596C126.281 87.596 126.851 87.392 126.851 86.984C126.851 86.876 126.821 86.792 126.761 86.732C126.713 86.66 126.641 86.588 126.545 86.516C126.389 86.408 126.167 86.294 125.879 86.174C125.603 86.054 125.357 85.964 125.141 85.904C124.649 85.796 124.169 85.634 123.701 85.418C123.269 85.202 122.915 84.92 122.639 84.572C122.363 84.212 122.225 83.774 122.225 83.258C122.225 82.946 122.339 82.64 122.567 82.34C122.807 82.028 123.083 81.794 123.395 81.638C123.611 81.554 123.965 81.464 124.457 81.368C124.949 81.272 125.285 81.224 125.465 81.224C125.741 81.224 126.041 81.254 126.365 81.314C126.689 81.362 126.935 81.446 127.103 81.566C127.427 81.758 127.691 81.962 127.895 82.178C128.099 82.382 128.201 82.616 128.201 82.88C128.201 83.012 128.171 83.156 128.111 83.312C128.051 83.456 127.979 83.546 127.895 83.582C127.715 83.666 127.505 83.708 127.265 83.708C127.157 83.708 127.067 83.678 126.995 83.618C126.935 83.558 126.851 83.462 126.743 83.33C126.611 83.126 126.485 83.006 126.365 82.97C126.221 82.934 126.011 82.892 125.735 82.844C125.459 82.784 125.273 82.754 125.177 82.754C124.877 82.754 124.589 82.814 124.313 82.934C124.049 83.054 123.917 83.216 123.917 83.42C123.917 83.66 124.115 83.864 124.511 84.032C124.763 84.152 125.039 84.254 125.339 84.338C125.651 84.422 125.843 84.476 125.915 84.5C126.083 84.536 126.299 84.62 126.563 84.752C126.839 84.884 127.055 85.004 127.211 85.112ZM130.222 82.772C130.054 82.748 129.916 82.676 129.808 82.556C129.712 82.436 129.664 82.292 129.664 82.124C129.664 82.04 129.682 81.95 129.718 81.854C129.766 81.758 129.832 81.674 129.916 81.602C130.072 81.47 130.282 81.344 130.546 81.224C130.822 81.116 131.02 80.984 131.14 80.828C131.26 80.672 131.32 80.378 131.32 79.946C131.32 79.766 131.308 79.61 131.284 79.478C131.272 79.346 131.266 79.244 131.266 79.172C131.266 78.908 131.362 78.71 131.554 78.578C131.746 78.446 131.968 78.38 132.22 78.38C132.532 78.38 132.742 78.458 132.85 78.614C132.97 78.77 133.03 79.058 133.03 79.478C133.03 79.886 133.012 80.24 132.976 80.54C132.94 80.828 132.862 81.086 132.742 81.314C132.91 81.314 133.186 81.302 133.57 81.278C134.098 81.254 134.464 81.242 134.668 81.242C134.872 81.242 135.052 81.296 135.208 81.404C135.364 81.5 135.442 81.638 135.442 81.818C135.442 82.07 135.388 82.256 135.28 82.376C135.172 82.496 135.016 82.574 134.812 82.61C134.32 82.742 133.624 82.82 132.724 82.844C132.7 83.312 132.688 83.822 132.688 84.374C132.688 85.298 132.742 86.006 132.85 86.498C132.922 86.882 133.042 87.164 133.21 87.344C133.39 87.512 133.654 87.596 134.002 87.596C134.182 87.596 134.326 87.572 134.434 87.524C134.554 87.476 134.62 87.446 134.632 87.434C134.776 87.35 134.908 87.308 135.028 87.308C135.196 87.308 135.316 87.362 135.388 87.47C135.472 87.578 135.514 87.722 135.514 87.902C135.514 88.238 135.334 88.52 134.974 88.748C134.614 88.964 134.152 89.072 133.588 89.072C132.952 89.072 132.412 88.886 131.968 88.514C131.536 88.13 131.278 87.626 131.194 87.002C131.074 86.438 131.014 85.646 131.014 84.626C131.014 84.182 131.038 83.588 131.086 82.844L130.222 82.772ZM100.708 98.506C100.708 97.99 101.086 97.732 101.842 97.732C102.166 97.732 102.784 97.744 103.696 97.768C104.704 97.816 105.466 97.84 105.982 97.84C106.402 97.84 106.912 97.816 107.512 97.768C107.92 97.744 108.178 97.732 108.286 97.732C108.946 97.756 109.504 97.876 109.96 98.092C110.092 98.152 110.2 98.224 110.284 98.308C110.368 98.392 110.41 98.53 110.41 98.722C110.41 98.986 110.326 99.214 110.158 99.406C109.99 99.586 109.786 99.676 109.546 99.676C109.282 99.676 108.898 99.64 108.394 99.568C107.95 99.484 107.56 99.442 107.224 99.442C106.9 99.442 106.654 99.448 106.486 99.46C106.45 99.856 106.432 100.804 106.432 102.304C106.432 104.092 106.486 105.904 106.594 107.74L106.63 108.262C106.63 108.754 106.348 109 105.784 109C105.34 109 105.04 108.898 104.884 108.694C104.728 108.478 104.65 108.154 104.65 107.722C104.65 106.87 104.626 105.808 104.578 104.536C104.53 103.48 104.506 102.73 104.506 102.286C104.506 101.986 104.542 101.068 104.614 99.532L102.508 99.55C101.836 99.55 101.368 99.49 101.104 99.37C100.84 99.238 100.708 98.95 100.708 98.506ZM109.911 102.934C109.815 102.934 109.725 102.898 109.641 102.826C109.569 102.742 109.533 102.646 109.533 102.538C109.533 102.262 109.653 102.004 109.893 101.764C109.965 101.728 110.109 101.668 110.325 101.584C110.541 101.5 110.733 101.458 110.901 101.458C111.357 101.458 111.729 101.584 112.017 101.836C112.305 102.076 112.449 102.424 112.449 102.88C112.449 103.012 112.425 103.294 112.377 103.726C112.329 104.23 112.305 104.62 112.305 104.896C112.305 105.736 112.419 106.414 112.647 106.93C112.731 107.098 112.863 107.23 113.043 107.326C113.223 107.422 113.385 107.47 113.529 107.47C113.877 107.47 114.159 107.41 114.375 107.29C114.591 107.17 114.825 106.978 115.077 106.714C115.329 106.45 115.491 106.15 115.563 105.814C115.647 105.478 115.707 105.016 115.743 104.428C115.767 104.044 115.791 103.762 115.815 103.582C115.875 103.006 115.905 102.514 115.905 102.106C115.905 101.842 115.977 101.626 116.121 101.458C116.265 101.278 116.463 101.188 116.715 101.188C116.859 101.188 117.021 101.236 117.201 101.332C117.393 101.416 117.519 101.518 117.579 101.638C117.651 101.758 117.687 101.956 117.687 102.232C117.687 102.376 117.669 102.514 117.633 102.646C117.549 102.946 117.507 103.306 117.507 103.726L117.525 104.662C117.525 105.514 117.585 106.144 117.705 106.552C117.765 106.744 117.849 106.942 117.957 107.146C118.065 107.338 118.167 107.5 118.263 107.632C118.503 107.896 118.659 108.082 118.731 108.19C118.803 108.286 118.839 108.382 118.839 108.478C118.839 108.622 118.767 108.76 118.623 108.892C118.491 109.012 118.347 109.072 118.191 109.072C117.747 109.072 117.363 108.922 117.039 108.622C116.715 108.322 116.475 107.932 116.319 107.452C115.911 107.92 115.533 108.298 115.185 108.586C114.945 108.754 114.651 108.88 114.303 108.964C113.955 109.036 113.607 109.072 113.259 109.072C112.791 109.072 112.317 108.88 111.837 108.496C111.357 108.112 111.033 107.668 110.865 107.164C110.853 107.14 110.817 107.044 110.757 106.876C110.709 106.708 110.685 106.456 110.685 106.12C110.685 105.676 110.709 105.118 110.757 104.446C110.793 104.014 110.811 103.618 110.811 103.258C110.811 103.15 110.769 103.06 110.685 102.988C110.613 102.916 110.529 102.88 110.433 102.88C110.361 102.88 110.277 102.892 110.181 102.916C110.097 102.928 110.007 102.934 109.911 102.934ZM122.866 108.28C122.866 108.484 122.788 108.664 122.632 108.82C122.476 108.976 122.284 109.054 122.056 109.054C121.696 109.054 121.432 108.988 121.264 108.856C121.096 108.712 121.012 108.454 121.012 108.082C121.012 107.638 121 107.056 120.976 106.336C120.952 105.736 120.94 105.232 120.94 104.824C120.94 104.632 120.952 104.38 120.976 104.068C121 103.78 121.012 103.564 121.012 103.42C120.976 103.192 120.886 103.006 120.742 102.862C120.598 102.706 120.412 102.628 120.184 102.628C120.076 102.628 119.986 102.58 119.914 102.484C119.842 102.376 119.806 102.268 119.806 102.16C119.806 101.884 119.914 101.674 120.13 101.53C120.358 101.386 120.628 101.314 120.94 101.314C121.588 101.314 122.038 101.698 122.29 102.466C122.602 102.106 122.956 101.818 123.352 101.602C123.76 101.374 124.15 101.26 124.522 101.26C124.966 101.26 125.368 101.38 125.728 101.62C126.1 101.86 126.286 102.184 126.286 102.592C126.286 102.82 126.184 103.054 125.98 103.294C125.788 103.534 125.59 103.654 125.386 103.654C125.278 103.654 125.182 103.63 125.098 103.582C125.026 103.522 124.936 103.438 124.828 103.33C124.708 103.21 124.606 103.126 124.522 103.078C124.438 103.018 124.342 102.988 124.234 102.988C124.042 102.988 123.862 103.018 123.694 103.078C123.526 103.138 123.412 103.21 123.352 103.294C123.16 103.594 123.016 103.864 122.92 104.104C122.836 104.344 122.794 104.602 122.794 104.878C122.794 105.082 122.788 105.244 122.776 105.364L122.758 106.39C122.758 106.546 122.764 106.72 122.776 106.912C122.788 107.104 122.8 107.248 122.812 107.344C122.848 107.668 122.866 107.98 122.866 108.28ZM127.212 102.664C127.116 102.592 127.038 102.52 126.978 102.448C126.918 102.364 126.888 102.22 126.888 102.016C126.888 101.788 126.966 101.614 127.122 101.494C127.29 101.362 127.482 101.296 127.698 101.296C128.118 101.296 128.478 101.404 128.778 101.62C129.09 101.836 129.318 102.136 129.462 102.52C129.726 102.028 130.062 101.692 130.47 101.512C130.878 101.32 131.442 101.224 132.162 101.224C132.45 101.224 132.744 101.314 133.044 101.494C133.356 101.662 133.638 101.872 133.89 102.124C134.094 102.388 134.268 102.718 134.412 103.114C134.556 103.498 134.628 103.846 134.628 104.158C134.628 104.338 134.616 104.632 134.592 105.04C134.568 105.472 134.556 105.814 134.556 106.066C134.556 106.906 134.718 107.422 135.042 107.614C135.09 107.638 135.18 107.668 135.312 107.704C135.444 107.74 135.54 107.776 135.6 107.812C135.672 107.848 135.708 107.902 135.708 107.974C135.72 108.262 135.612 108.502 135.384 108.694C135.168 108.874 134.904 108.964 134.592 108.964C134.124 108.964 133.758 108.838 133.494 108.586C133.23 108.334 133.044 107.95 132.936 107.434C132.876 107.242 132.846 106.96 132.846 106.588C132.846 106.384 132.858 106.054 132.882 105.598C132.918 105.238 132.936 104.854 132.936 104.446C132.936 104.026 132.816 103.66 132.576 103.348C132.336 103.024 132.006 102.862 131.586 102.862C131.334 102.862 131.07 102.94 130.794 103.096C130.518 103.24 130.326 103.42 130.218 103.636C130.038 104.008 129.918 104.386 129.858 104.77C129.714 105.514 129.642 106.228 129.642 106.912C129.642 107.08 129.654 107.404 129.678 107.884C129.678 107.92 129.678 108.01 129.678 108.154C129.678 108.286 129.66 108.412 129.624 108.532C129.6 108.652 129.552 108.76 129.48 108.856C129.432 108.904 129.342 108.952 129.21 109C129.078 109.048 128.964 109.072 128.868 109.072C128.7 109.072 128.49 109 128.238 108.856C127.986 108.712 127.836 108.55 127.788 108.37L127.77 108.118C127.77 108.022 127.782 107.878 127.806 107.686C127.95 106.846 128.022 106.114 128.022 105.49C128.022 105.214 128.016 105.004 128.004 104.86L127.986 104.032C127.986 103.78 127.914 103.54 127.77 103.312C127.626 103.072 127.44 102.856 127.212 102.664Z" fill="#FDBFF5"/>
</svg>
